<svg xmlns="http://www.w3.org/2000/svg" width="22" height="20" viewBox="0 0 22 20"><path d="M7,3H3.58A.62.62,0,0,0,3,3.58V7a.61.61,0,0,0,.62.61H7A.61.61,0,0,0,7.65,7V3.58A.61.61,0,0,0,7,3ZM6.42,6.42H4.2V4.2H6.42ZM12.72,3H9.26a.62.62,0,0,0-.62.62V7a.61.61,0,0,0,.62.61h3.46A.61.61,0,0,0,13.33,7V3.58A.61.61,0,0,0,12.72,3ZM12.1,6.42H9.88V4.2H12.1ZM7,8.64H3.58A.62.62,0,0,0,3,9.26v3.46a.61.61,0,0,0,.62.61H7a.61.61,0,0,0,.61-.61V9.26A.61.61,0,0,0,7,8.64ZM6.42,12.1H4.2V9.88H6.42Zm6.3-3.46H9.26a.62.62,0,0,0-.62.62v3.46a.61.61,0,0,0,.62.61h3.46a.61.61,0,0,0,.61-.61V9.26a.61.61,0,0,0-.61-.62ZM12.1,12.1H9.88V9.88H12.1ZM18.4,3H14.94a.62.62,0,0,0-.62.62V7a.61.61,0,0,0,.62.61H18.4A.61.61,0,0,0,19,7V3.58A.61.61,0,0,0,18.4,3Zm-.62,3.46H15.56V4.2h2.22Zm.62,2.22H14.94a.62.62,0,0,0-.62.62v3.46a.61.61,0,0,0,.62.61H18.4a.61.61,0,0,0,.61-.61V9.26a.61.61,0,0,0-.61-.62Zm-.62,3.46H15.56V9.88h2.22ZM19.63,0H2.35A2.35,2.35,0,0,0,0,2.35v15.3A2.35,2.35,0,0,0,2.35,20H8.77a.61.61,0,0,0,.61-.62v-2a1.11,1.11,0,0,1,1.11-1.11h1.24a1.11,1.11,0,0,1,1.11,1.11v2a.62.62,0,0,0,.62.62h6.17A2.35,2.35,0,0,0,22,17.65V2.35A2.35,2.35,0,0,0,19.63,0Zm1.11,17.65a1.12,1.12,0,0,1-1.11,1.12H14.07V17.41a2.35,2.35,0,0,0-2.34-2.35H10.49a2.35,2.35,0,0,0-2.34,2.35v1.36H2.35a1.12,1.12,0,0,1-1.12-1.12V2.35A1.12,1.12,0,0,1,2.35,1.23H19.63a1.12,1.12,0,0,1,1.11,1.12Z" transform="translate(0 0)" fill="#fff"/></svg>