<svg xmlns="http://www.w3.org/2000/svg" width="17.902" height="19.995" viewBox="0 0 17.902 19.995"><path d="M15.74,10.72l-1-3.6a.52.52,0,0,0-.36-.36A20.33,20.33,0,0,0,8.86,6a17.75,17.75,0,0,0-5.39.76.52.52,0,0,0-.33.36l-1,3.59a1.53,1.53,0,0,0-1.5,1.5v4.13a1.55,1.55,0,0,0,1.56,1.5h.15v.65A1.48,1.48,0,0,0,3.82,20h.32a1.41,1.41,0,0,0,1.39-1.5v-.72h6.86v.72A1.49,1.49,0,0,0,13.88,20h.32a1.39,1.39,0,0,0,1.37-1.5v-.65h0a1.64,1.64,0,0,0,1.66-1.5V12.22a1.52,1.52,0,0,0-1.49-1.5Zm.57,5.63a.45.45,0,0,1-.45.45h-.75a.52.52,0,0,0-.52.53v1.23a.45.45,0,0,1-.45.45h-.32a.45.45,0,0,1-.45-.45V17.33a.53.53,0,0,0-.53-.53H5.07a.52.52,0,0,0-.52.53v1.23A.45.45,0,0,1,4.1,19H3.77a.45.45,0,0,1-.44-.45V17.33a.53.53,0,0,0-.53-.53H2.06a.45.45,0,0,1-.45-.45V12.22c0-.25.2-.56.45-.56h.47a.52.52,0,0,0,.5-.38l1-3.6a17.94,17.94,0,0,1,4.79-.62,19,19,0,0,1,4.93.64l1,3.58a.52.52,0,0,0,.5.38h.53c.25,0,.45.31.45.56ZM5.21,13.56a.81.81,0,1,0,.81.8.8.8,0,0,0-.81-.8Zm7.44,0a.81.81,0,1,0,.8.81.81.81,0,0,0-.8-.81ZM5.16,11.9H12.7a.42.42,0,0,0,.33-.16.41.41,0,0,0,.09-.37l-.49-2.08a.43.43,0,0,0-.3-.31A12.67,12.67,0,0,0,9,8.47,11.636,11.636,0,0,0,5.532,9a.43.43,0,0,0-.3.311l-.49,2.08a.41.41,0,0,0,.09.37.42.42,0,0,0,.33.14ZM6,9.74a14.59,14.59,0,0,1,3-.29,11.93,11.93,0,0,1,2.85.29l.3,1.18H5.7ZM17.66,6.16,9.38.12a.62.62,0,0,0-.72,0L.26,6.16A.6.6,0,0,0,.12,7a.58.58,0,0,0,.49.26A.6.6,0,0,0,1,7.15L9,1.37l7.92,5.78A.62.62,0,0,0,17.8,7a.61.61,0,0,0-.14-.84Z" transform="translate(-0.007 -0.005)" fill="#fff"/></svg>