<svg xmlns="http://www.w3.org/2000/svg" width="21.496" height="20.001" viewBox="0 0 21.496 20.001"><path d="M21.26,10.66,19.57,9.44V3.2A.68.68,0,0,0,19,2.5H16.69a.7.7,0,0,0-.62.7V6.87l-2-1.44a.63.63,0,0,0-.73,0L6.07,10.66a.62.62,0,0,0-.14.87.65.65,0,0,0,.52.26c.12,0,.12,0,.37-.11v6.47A1.84,1.84,0,0,0,8.65,20h10a1.88,1.88,0,0,0,1.88-1.85V11.68a.6.6,0,0,0,.84-.15.63.63,0,0,0-.11-.87ZM17.32,3.75h1V8.53l-1-.75Zm-2.5,15h-2.5V14.6c0-.21.58-.62,1.25-.62a1.8,1.8,0,0,1,1.25.62Zm4.5-.6a.63.63,0,0,1-.63.6H16.07V14.41A.68.68,0,0,0,16,14.1a2.9,2.9,0,0,0-2.43-1.37,2.83,2.83,0,0,0-2.4,1.37.64.64,0,0,0-.06.31v4.34H8.65a.58.58,0,0,1-.58-.6V10.78L13.75,6.7l5.57,4.07ZM8.14,1.25h0a2.71,2.71,0,0,1,2,.76,2.63,2.63,0,0,1,.81,1.91.6.6,0,0,0,.63.58h0a.57.57,0,0,0,.62-.57A3.88,3.88,0,0,0,11,1.14,4,4,0,0,0,8.14,0h0A4,4,0,0,0,4.22,3.07,2.79,2.79,0,0,0,3.84,3h0A3.86,3.86,0,0,0,0,6.86,3.78,3.78,0,0,0,.66,9a4.07,4.07,0,0,0,.55,5.09A4,4,0,0,0,4.1,15.25h0A.63.63,0,0,0,4.1,14h0a2.82,2.82,0,0,1-2-.79,2.74,2.74,0,0,1-.83-2A2.8,2.8,0,0,1,1.92,9.4L2.27,9l-.36-.41A2.59,2.59,0,0,1,3.84,4.27a2.37,2.37,0,0,1,.73.12l.76.23V3.85a2.74,2.74,0,0,1,2.81-2.6Z" transform="translate(0 0.001)" fill="#fff"/></svg>