<svg xmlns="http://www.w3.org/2000/svg" width="19.008" height="20" viewBox="0 0 19.008 20"><path d="M19,17.54,16.75,2.33A2.38,2.38,0,0,0,14.38,0H4.62A2.38,2.38,0,0,0,2.25,2.33L0,17.54a.31.31,0,0,0,0,.1A2.38,2.38,0,0,0,2.38,20H16.62A2.38,2.38,0,0,0,19,17.64a.31.31,0,0,0,0-.1ZM15.5,2.38a.28.28,0,0,0,0,.09L16.91,12H13.48L12.2,1.25h2.18A1.13,1.13,0,0,1,15.5,2.38Zm-12,.09a.28.28,0,0,0,0-.09A1.13,1.13,0,0,1,4.62,1.25h6.32L12.22,12H2.09ZM1.25,17.68l.65-4.43H12.37l.65,5.5H2.38a1.12,1.12,0,0,1-1.13-1.07Zm15.37,1.07H14.28l-.66-5.5H17.1l.65,4.43a1.12,1.12,0,0,1-1.13,1.07Z" transform="translate(0.004)" fill="#fff"/></svg>