<svg xmlns="http://www.w3.org/2000/svg" width="19.517" height="20" viewBox="0 0 19.517 20"><path d="M18.89,0H14a.62.62,0,0,0-.62.62V7.9h-.85L6.9,3.11A.63.63,0,0,0,6.24,3a.59.59,0,0,0-.36.55L5.81,7.2,1,3.11a.62.62,0,0,0-1,.47V17.65A2.52,2.52,0,0,0,2.56,20H17.37a2.18,2.18,0,0,0,2.14-2.35V.62A.62.62,0,0,0,18.89,0Zm-.62,17.65c0,.52-.23,1.12-.9,1.12H2.56a1.32,1.32,0,0,1-1.33-1.12V4.92L6,9a.62.62,0,0,0,.65.09A.63.63,0,0,0,7,8.53L7.09,4.9,11.84,9a.69.69,0,0,0,.41.15H14a.62.62,0,0,0,.62-.62V1.23h3.7Zm-10-5.55H3.83a.62.62,0,0,0-.62.62v3.45a.62.62,0,0,0,.62.62H8.27a.62.62,0,0,0,.62-.62V12.72a.62.62,0,0,0-.62-.62Zm-.62,3.46H4.44V13.33H7.65Z" fill="#fff"/></svg>