<svg xmlns="http://www.w3.org/2000/svg" width="14.88" height="20" viewBox="0 0 14.88 20"><path d="M12.64,0H2.24A2.24,2.24,0,0,0,0,2.24V17.76A2.24,2.24,0,0,0,2.24,20h10.4a2.24,2.24,0,0,0,2.24-2.24V2.24A2.24,2.24,0,0,0,12.64,0ZM8.54,18.78H6.34v-2c0-.21.45-.61,1.1-.61s1.1.41,1.1.61Zm5.12-1a1,1,0,0,1-1,1H9.76V16.56a.65.65,0,0,0,0-.31,2.77,2.77,0,0,0-2.33-1.33,2.63,2.63,0,0,0-2.28,1.33c-.06.1,0,.2,0,.31v2.22H2.24a1,1,0,0,1-1-1V2.24a1,1,0,0,1,1-1h10.4a1,1,0,0,1,1,1ZM10.37,9H4.51a.62.62,0,0,0-.61.61V12.8a.61.61,0,0,0,.61.61h5.86A.61.61,0,0,0,11,12.8V9.63A.62.62,0,0,0,10.37,9Zm-.61,3.2H5.12v-2H9.76Zm.61-8.79H4.51A.62.62,0,0,0,3.9,4V7.2a.61.61,0,0,0,.61.6h5.86A.61.61,0,0,0,11,7.2V4a.62.62,0,0,0-.63-.59ZM9.76,6.59H5.12v-2H9.76Z" fill="#fff"/></svg>