<svg xmlns="http://www.w3.org/2000/svg" width="21.97" height="20.002" viewBox="0 0 21.97 20.002"><path d="M21.56,7.16h-2.3V2.22a2,2,0,0,0-2-2.22H4.9A2.1,2.1,0,0,0,2.72,2.22V3H.57A.58.58,0,0,0,0,3.58V7a.57.57,0,0,0,.57.61H2.72v9.88A2.76,2.76,0,0,0,5.39,20H17.24c1.24,0,2-1.08,2-2.47V11.85h2.3c.34,0,.42-.27.42-.62V7.78C22,7.44,21.9,7.16,21.56,7.16ZM1.23,6.42V4.2h4.7V6.42Zm9.14,12.35h-3v-4.2h3Zm4.2,0h-3v-4.2h3ZM18,17.53c0,.59-.17,1.24-.78,1.24H15.8V14.32c0-.86-.37-1-.72-1H7.18a.92.92,0,0,0-1,1v4.45H5.39c-.61,0-1.44-.63-1.44-1.24V7.65H6.74c.34,0,.42-.27.42-.61V3.58c0-.34-.08-.62-.42-.62H4V2.22a.89.89,0,0,1,1-1H17.24c.62,0,.78.37.78,1V7.16H15.38a.58.58,0,0,0-.57.62v3.45a.58.58,0,0,0,.57.62H18Zm2.72-6.91H16.05V8.4h4.69Z" transform="translate(0.001 0.002)" fill="#fff"/></svg>