<svg xmlns="http://www.w3.org/2000/svg" width="18.607" height="20.015" viewBox="0 0 18.607 20.015"><path d="M9.26,8.8a2.7,2.7,0,0,1-.89-.21l-.56-.2c-.07,0-.13.06-.19.17a.56.56,0,0,0-.1.29c0,.13.18.26.53.39a3.27,3.27,0,0,0,.79.18.08.08,0,0,1,.07.08,1.64,1.64,0,0,1,0,.2v.17c0,.15,0,.22.06.24a.42.42,0,0,0,.32.09c.22,0,.31-.11.31-.36V9.48a.07.07,0,0,1,.07-.07A1.25,1.25,0,0,0,10.49,9a1.35,1.35,0,0,0,.07-1.64,2.81,2.81,0,0,0-1.27-.74c-.35-.16-.86-.33-.95-.76s.34-.75.78-.75a2.61,2.61,0,0,1,.91.22l.56.2c.08,0,.15-.09.2-.16a.59.59,0,0,0,.11-.29c0-.13-.17-.27-.49-.4a3.59,3.59,0,0,0-.76-.21.08.08,0,0,1-.07-.08s0-.1,0-.18V4a.45.45,0,0,0-.06-.27.38.38,0,0,0-.3-.09c-.23,0-.33.11-.33.36v.18a1.36,1.36,0,0,1,0,.18.08.08,0,0,1-.07.08,1.5,1.5,0,0,0-.91.43c-.77.79-.2,1.78.64,2.14.47.2,1.1.31,1.37.79A.676.676,0,0,1,9.26,8.8Zm9.31,8.63a.07.07,0,0,0,0-.05L16.35,9.75A3.31,3.31,0,0,0,15,7.85a7,7,0,0,0,.24-1.8A6.04,6.04,0,0,0,3.16,6a7.6,7.6,0,0,0,.26,1.88A3.11,3.11,0,0,0,2.18,9.76l-.12.4L2,10.33c-.22.77-.44,1.54-.67,2.3C.93,14.07.51,15.5.1,16.94a2.42,2.42,0,0,0,.36,2.11A2.28,2.28,0,0,0,2.27,20h14a2.59,2.59,0,0,0,1.9-.94A2,2,0,0,0,18.57,17.43ZM9.2,1.24A4.82,4.82,0,0,1,14,6.05a6,6,0,0,1-.22,1.56,8.64,8.64,0,0,1-.44,1.23A25.21,25.21,0,0,1,9.2,14.75,25.42,25.42,0,0,1,5.05,8.84a10,10,0,0,1-.43-1.23,6,6,0,0,1-.23-1.56A4.82,4.82,0,0,1,9.2,1.24Zm8,17a1.35,1.35,0,0,1-.95.49h-14a1.06,1.06,0,0,1-.83-.46,1.13,1.13,0,0,1-.17-1c.42-1.44.83-2.89,1.25-4.32.23-.77.45-1.54.67-2.31l.05-.18a1.213,1.213,0,0,1,.11-.37,2.61,2.61,0,0,1,.5-1,26.18,26.18,0,0,0,4.46,6.47,1.26,1.26,0,0,0,.87.47h0a1.31,1.31,0,0,0,.88-.47,25.56,25.56,0,0,0,4.49-6.53,2.36,2.36,0,0,1,.59,1.05l2.19,7.6a.69.69,0,0,1-.1.6Z" transform="translate(0 0.015)" fill="#fff"/></svg>