<svg xmlns="http://www.w3.org/2000/svg" width="19.966" height="19.995" viewBox="0 0 19.966 19.995"><path d="M10,5a2.44,2.44,0,1,0,2.44,2.44A2.44,2.44,0,0,0,10,5Zm0,3.63a.5.5,0,1,1,0,.03Zm9.91,1.81L16.2,3.94a.6.6,0,0,0-.2-.21L10.57.26,10.35.11a.62.62,0,0,0-.69,0L4,3.73a.67.67,0,0,0-.2.21L.08,10.47a.625.625,0,0,0,1.09.61L1.77,10l1,1v6.61A2.3,2.3,0,0,0,5.05,20H15a2.45,2.45,0,0,0,2.46-2.37V11l.81-.83.51.89a.6.6,0,0,0,.54.32.68.68,0,0,0,.31-.08.62.62,0,0,0,.27-.83ZM7.52,18.75V14.42l4.61,4.33Zm5-1.35L8.37,13.51h4.14Zm3.92-7.07a.61.61,0,0,0-.17.43v6.87A1.2,1.2,0,0,1,15,18.75H13.76V12.88a.63.63,0,0,0-.63-.62H6.89a.62.62,0,0,0-.62.62v5.87H5.05a1,1,0,0,1-1-1.12V10.76a.62.62,0,0,0-.18-.44L2.4,8.91,4.8,4.69,10,1.37l5.2,3.32,2.48,4.37Z" transform="translate(0 -0.005)" fill="#fff"/></svg>