<svg xmlns="http://www.w3.org/2000/svg" width="21.481" height="20" viewBox="0 0 21.481 20"><path d="M19.2,0H2.41A2.41,2.41,0,0,0,0,2.35v15.3A2.41,2.41,0,0,0,2.41,20H19.2a2.29,2.29,0,0,0,2.28-2.35V2.35A2.29,2.29,0,0,0,19.2,0ZM1.2,6.67h8.89v4.19H1.23Zm10.13,0h8.89v4.19H11.36Zm8.89-4.32V5.43H11.36V1.23H19.2a1.06,1.06,0,0,1,1.05,1.12ZM2.41,1.23h7.71v4.2H1.23V2.35A1.16,1.16,0,0,1,2.41,1.23ZM14.32,18.77h-3v-3h3Zm-4.2,0h-3v-3h3Zm9.08,0H15.56V15.68c0-1-.57-1.11-.91-1.11H7a1.08,1.08,0,0,0-1.07,1.11v3.09H2.41a1.16,1.16,0,0,1-1.18-1.12V12.1h19v5.55a1.06,1.06,0,0,1-1.03,1.12Z" fill="#fff"/></svg>