<svg xmlns="http://www.w3.org/2000/svg" width="21.64" height="20" viewBox="0 0 21.64 20"><path d="M21.41,7.51,11.29.12a.65.65,0,0,0-.75,0L.26,7.51A.63.63,0,0,0,.63,8.65.62.62,0,0,0,1,8.54H1v9.08A2.59,2.59,0,0,0,3.65,20H5a.64.64,0,0,0,.64-.63V10.5A1.34,1.34,0,0,1,7,9.35h8.11c.69,0,.94.62.94,1.15v8.87a.63.63,0,0,0,.63.63H18.4a2.24,2.24,0,0,0,2.21-2.41V8.46l.11.07a.63.63,0,0,0,.74-1ZM19.29,17.59c0,.53-.24,1.14-.94,1.14H17.26V10.5a2.23,2.23,0,0,0-2.2-2.41H7A2.58,2.58,0,0,0,4.34,10.5v8.23H3.65a1.33,1.33,0,0,1-1.34-1.14V7.6l8.6-6.18,8.38,6.11Zm-9.63-.12H8.14a.5.5,0,0,0-.51.5v1.52a.51.51,0,0,0,.51.51H9.66a.51.51,0,0,0,.51-.51V18a.5.5,0,0,0-.51-.53Zm0-3.55H8.14a.5.5,0,0,0-.51.5v1.52a.51.51,0,0,0,.51.51H9.66a.51.51,0,0,0,.51-.51V14.42a.5.5,0,0,0-.51-.5Zm3.55,3.55H11.69a.5.5,0,0,0-.51.5v1.52a.51.51,0,0,0,.51.51h1.52a.51.51,0,0,0,.51-.51V18a.5.5,0,0,0-.51-.53Z" transform="translate(0 -0.001)" fill="#fff"/></svg>