<svg xmlns="http://www.w3.org/2000/svg" width="15.29" height="20.015" viewBox="0 0 15.29 20.015"><path d="M9.37,7H5.87a.62.62,0,0,0-.62.62v3.5a.63.63,0,0,0,.62.63h3.5a.63.63,0,0,0,.62-.63V7.63A.62.62,0,0,0,9.37,7Zm-.63,3.5H6.49V8.26H8.74ZM13,3.76H10.58a.5.5,0,0,0,0-.12A2.34,2.34,0,0,0,8.27,1.26h0V.62A.635.635,0,1,0,7,.62v.64H6.77A2.41,2.41,0,0,0,4.35,3.64s0,.08,0,.12H2.29A2.3,2.3,0,0,0,0,6.06V17.71A2.3,2.3,0,0,0,2.29,20H13a2.3,2.3,0,0,0,2.29-2.29V6.06A2.3,2.3,0,0,0,13,3.76ZM5.6,3.64A1.17,1.17,0,0,1,6.77,2.51h1.5A1.1,1.1,0,0,1,9.35,3.64a.49.49,0,0,0,0,.12H5.59A.49.49,0,0,0,5.6,3.64ZM8.74,18.75H6.25V15.17a1.74,1.74,0,0,1,1.24-.62,1.77,1.77,0,0,1,1.25.62Zm5.25-1a1,1,0,0,1-1,1H10V15a.66.66,0,0,0-.09-.31,2.81,2.81,0,0,0-4.83,0A.64.64,0,0,0,5,15v3.77H2.29a1,1,0,0,1-1-1V6.06a1,1,0,0,1,1-1H13a1,1,0,0,1,1,1Z" transform="translate(0 0.015)" fill="#fff"/></svg>