<svg xmlns="http://www.w3.org/2000/svg" width="19.007" height="20" viewBox="0 0 19.007 20"><path d="M19,17.53,16.75,2.33A2.38,2.38,0,0,0,14.38,0H4.62A2.38,2.38,0,0,0,2.25,2.33L0,17.53a.28.28,0,0,0,0,.09A2.39,2.39,0,0,0,2.38,20H16.62A2.39,2.39,0,0,0,19,17.62a.28.28,0,0,0,0-.09ZM3.49,2.47a.28.28,0,0,0,0-.09A1.12,1.12,0,0,1,4.62,1.25h9.76A1.12,1.12,0,0,1,15.5,2.38a.28.28,0,0,0,0,.09L16.91,12H2.09ZM2.38,18.75a1.13,1.13,0,0,1-1.13-1.08l.65-4.42H12.36l.66,5.5Zm14.24,0H14.28l-.66-5.5H17.1l.65,4.42a1.13,1.13,0,0,1-1.13,1.08ZM12.05,4.67a.59.59,0,0,0-.18.06l-.28.15a1.5,1.5,0,0,1-.36.15,1,1,0,0,1-.37.07.65.65,0,0,1-.29-.1,6.33,6.33,0,0,0-.7-.28,2.2,2.2,0,0,0-.64-.09,3,3,0,0,0-1.36.38l-.22.12L7.6,4.82a.5.5,0,0,0,.18-.39.52.52,0,0,0-1,0A.52.52,0,0,0,7,4.87l.7,5.1a.3.3,0,0,0,.3.26H8a.3.3,0,0,0,.26-.34L8,7.84a3,3,0,0,1,1.31-.38,1.43,1.43,0,0,1,.46.07,2.81,2.81,0,0,1,.37.15,2.29,2.29,0,0,0,.35.16,1.46,1.46,0,0,0,.4.07,2.68,2.68,0,0,0,1.18-.37l.13-.09a.17.17,0,0,0,0-.13V4.87a.21.21,0,0,0-.2-.2Z" transform="translate(0.004)" fill="#fff"/></svg>