<svg xmlns="http://www.w3.org/2000/svg" width="24.848" height="20" viewBox="0 0 24.848 20"><path d="M22.63,1.49h-.74V.57A.58.58,0,0,0,21.32,0a.57.57,0,0,0-.57.57v.92H11.66A2.12,2.12,0,0,0,9.55,3.66V8.8L7.31,7.19a.59.59,0,0,0-.68,0L.24,11.77a.57.57,0,0,0,.33,1c.1,0,.29,0,.29-.08v5.63A1.64,1.64,0,0,0,2.5,20H15.12a.6.6,0,0,0,.6-.57V17.6a1,1,0,0,1,1-1h1.14a1.08,1.08,0,0,1,1.09,1v1.83a.53.53,0,0,0,.51.57h3.2a2.22,2.22,0,0,0,2.23-2.17V3.66A2.22,2.22,0,0,0,22.63,1.49ZM8.86,18.85H5.2v-3a2.3,2.3,0,0,1,3.63.08Zm3,0H10V15.72a.6.6,0,0,0-.13-.28A3.46,3.46,0,0,0,7,13.81a3.38,3.38,0,0,0-2.86,1.63.52.52,0,0,0-.05.28v3.13H2.54a.53.53,0,0,1-.54-.5V11.91L7,8.35l4.87,3.55Zm11.89-1a1.08,1.08,0,0,1-1.09,1h-2.6V17.6a2.22,2.22,0,0,0-2.23-2.17H16.69a2.13,2.13,0,0,0-2.12,2.17v1.26H13V12.72a.56.56,0,0,0,.74-.15.57.57,0,0,0-.11-.8L10.69,9.63v-6a1,1,0,0,1,1-1h11a1.08,1.08,0,0,1,1.09,1ZM15.83,4.69H13.09a.56.56,0,0,0-.57.57V8a.56.56,0,0,0,.57.57h2.74A.56.56,0,0,0,16.4,8V5.26a.56.56,0,0,0-.57-.57Zm-.57,2.74h-1.6V5.83h1.6Zm5.83-2.74H18.35a.57.57,0,0,0-.58.57V8a.57.57,0,0,0,.58.57h2.74A.57.57,0,0,0,21.66,8V5.26a.57.57,0,0,0-.57-.57Zm-.57,2.74h-1.6V5.83h1.6Zm.57,2.28H18.35a.58.58,0,0,0-.58.58V13a.58.58,0,0,0,.58.57h2.74a.58.58,0,0,0,.57-.57V10.29a.58.58,0,0,0-.57-.58Zm-.57,2.75h-1.6v-1.6h1.6Z" transform="translate(-0.042)" fill="#fff"/></svg>