<svg xmlns="http://www.w3.org/2000/svg" width="22.263" height="20.023" viewBox="0 0 22.263 20.023"><path d="M22.28,4.42a2.56,2.56,0,0,0-.2-1l-1-3.07a.58.58,0,0,0-.6-.37H1.77a.58.58,0,0,0-.6.37l-1,3.08a2.57,2.57,0,0,0-.15,1A2.27,2.27,0,0,0,1.49,6.55V17.9A2.13,2.13,0,0,0,3.56,20H18.82A2.21,2.21,0,0,0,21,17.9V6.5a2.44,2.44,0,0,0,1.28-2.08Zm-5,14.33H14.49V13c0-.34.28-.52.62-.52h1.44c.33,0,.69.18.69.52v5.4c.01.16,0,.2,0,.35Zm2.5-.85a1,1,0,0,1-.92.85h-.34V13a1.85,1.85,0,0,0-1.94-1.77H15.11A1.8,1.8,0,0,0,13.24,13v5.73H3.56a.88.88,0,0,1-.82-.85V7a3.12,3.12,0,0,0,.55,0A4.29,4.29,0,0,0,6,6,4,4,0,0,0,8.67,7a4,4,0,0,0,2.5-1,3.83,3.83,0,0,0,2.42,1,4,4,0,0,0,2.64-1A4.36,4.36,0,0,0,19,7a3.53,3.53,0,0,0,.72,0ZM19,5.78a2.92,2.92,0,0,1-2.23-1,.66.66,0,0,0-.5-.28.67.67,0,0,0-.52.25A3,3,0,0,1,13.59,5.8a2.58,2.58,0,0,1-1.85-1,.63.63,0,0,0-.82-.32.58.58,0,0,0-.25.21l-.05.07h0a2.85,2.85,0,0,1-1.94,1A3,3,0,0,1,6.49,4.71a.593.593,0,0,0-.98.04,3,3,0,0,1-2.24,1c-1.07,0-2-.66-2-1.38a1.22,1.22,0,0,1,.13-.51l.89-2.64H20l.9,2.67a1.26,1.26,0,0,1,.13.53C21,5.23,20,5.78,19,5.78ZM10.54,8.5H5.47A1.35,1.35,0,0,0,4.24,9.83v3.95A1.25,1.25,0,0,0,5.47,15h5.07a1.23,1.23,0,0,0,1.2-1.22V9.83A1.34,1.34,0,0,0,10.54,8.5Zm0,5.25h-5v-4h5Z" transform="translate(-0.017 0.023)" fill="#fff"/></svg>