<svg xmlns="http://www.w3.org/2000/svg" width="266.001" height="232.878" viewBox="0 0 266.001 232.878"><g transform="translate(2847.692 1020.373)"><path d="M-2279.192-42.53c-.051,0-.1,0-.153,0h-.047q-.078.008-.155.02c-.051.006-.1.013-.151.021s-.1.021-.151.033-.09.018-.134.029H-2280l-.045.02q-.1.03-.2.068c-.048.018-.094.037-.141.057s-.094.041-.141.063-.09.047-.135.071-.089.049-.132.075-.086.055-.127.084-.084.059-.125.089-.079.063-.118.1-.077.067-.114.1-.073.071-.108.108-.071.074-.1.112-.067.078-.1.118-.062.081-.092.122-.058.083-.086.127-.054.086-.08.13-.049.09-.071.137-.045.09-.066.136-.04.095-.059.143-.034.095-.051.142-.031.1-.045.147-.026.1-.037.147-.021.1-.028.151-.016.1-.022.151-.015.1-.021.153,0,.1,0,.151v.059c0,.051,0,.1,0,.151,0,.017,0,.033,0,.049.006.051.013.1.021.151s.012.1.021.153.02.1.032.151.018.091.029.137v.02c.007.015.013.03.021.045.02.068.042.134.067.2.018.048.037.1.057.142s.04.093.061.139.047.09.071.134.05.089.075.133.055.086.084.128.057.084.088.124.063.08.1.118.067.077.1.114.071.074.108.108.073.07.112.1.078.066.118.1.081.063.122.092.083.058.126.086.086.054.13.08.09.049.135.071.091.046.138.067.094.039.141.057.1.037.145.054.1.029.147.043.1.027.149.039.1.02.148.028.1.017.151.023.1.015.151.021h.153l.059,0h.153l.047,0c.051-.005.1-.012.155-.02s.1-.013.151-.021.1-.021.149-.033.091-.018.136-.029h.021l.045-.02c.068-.02.135-.043.2-.067.048-.018.094-.037.141-.057s.094-.041.14-.063.091-.046.135-.071.089-.049.132-.076.087-.055.129-.083.084-.059.125-.089.079-.063.118-.1.077-.065.114-.1.073-.071.108-.108.07-.073.1-.11.067-.078.1-.118.062-.081.092-.122.058-.084.086-.126.054-.087.08-.131.049-.09.071-.136.045-.091.065-.137.039-.094.057-.141.036-.1.052-.144.03-.1.043-.145.027-.1.039-.149.02-.1.029-.151.016-.1.022-.151.016-.1.021-.153,0-.1,0-.151v-.059c0-.051,0-.1,0-.153,0-.015,0-.031,0-.047-.006-.052-.012-.1-.02-.155s-.013-.1-.021-.151-.02-.1-.032-.151-.018-.091-.029-.137v-.02c-.006-.015-.013-.03-.021-.045q-.03-.1-.067-.2c-.018-.047-.037-.1-.058-.142s-.04-.093-.061-.139-.047-.09-.071-.134-.05-.089-.075-.133-.055-.085-.084-.126-.059-.083-.09-.124-.063-.08-.1-.118-.067-.079-.1-.116-.071-.073-.108-.108-.073-.07-.112-.1-.077-.065-.118-.1-.081-.062-.123-.092-.085-.058-.128-.086-.086-.054-.131-.079-.089-.049-.134-.071-.093-.046-.139-.068-.093-.039-.14-.057-.095-.037-.143-.053-.1-.03-.147-.043-.1-.027-.149-.039-.1-.021-.148-.029-.1-.017-.153-.023-.1-.015-.151-.02-.1,0-.153,0l-.057,0Zm0,0" transform="translate(-468.738 -810.605)" fill="#fff"/><path d="M-2279.192-42.53c-.051,0-.1,0-.153,0h-.047q-.078.008-.155.02c-.051.006-.1.013-.151.021s-.1.021-.151.033-.09.018-.134.029H-2280l-.045.02q-.1.03-.2.068c-.048.018-.094.037-.141.057s-.094.041-.141.063-.09.047-.135.071-.089.049-.132.075-.086.055-.127.084-.084.059-.125.089-.079.063-.118.1-.077.067-.114.1-.073.071-.108.108-.071.074-.1.112-.067.078-.1.118-.062.081-.092.122-.058.083-.086.127-.054.086-.08.13-.049.09-.071.137-.045.09-.066.136-.04.095-.059.143-.034.095-.051.142-.031.1-.045.147-.026.1-.037.147-.021.1-.028.151-.016.1-.022.151-.015.1-.021.153,0,.1,0,.151v.059c0,.051,0,.1,0,.151,0,.017,0,.033,0,.049.006.051.013.1.021.151s.012.1.021.155.02.1.032.151.018.09.029.135v.02c.007.015.013.03.021.045.02.068.042.134.067.2.018.048.037.1.057.142s.04.093.061.139.047.09.071.134.05.089.075.133.055.086.084.128.057.084.088.124.063.08.1.118.067.077.1.114.071.074.108.108.073.07.112.1.078.066.118.1.081.063.122.092.083.058.126.086.086.054.13.08.09.049.135.071.091.046.138.067.094.039.141.057.1.037.145.054.1.029.147.043.1.025.149.037.1.02.148.028.1.017.151.023.1.015.151.02.1,0,.153,0h.059c.051,0,.1,0,.153,0h.047c.051-.005.1-.012.155-.021s.1-.012.151-.02.1-.021.149-.033.091-.018.136-.029h.021l.045-.02c.068-.02.135-.043.2-.068.048-.018.094-.037.141-.057s.094-.041.14-.063.091-.047.135-.071.089-.049.132-.075.087-.055.129-.083.084-.059.125-.09.079-.063.118-.1.077-.066.114-.1.073-.071.108-.108.07-.073.1-.11.067-.078.1-.118.062-.081.092-.122.058-.083.086-.127.054-.086.08-.13.049-.09.071-.136.045-.091.065-.137.039-.094.057-.141.036-.1.052-.144.03-.1.043-.145.027-.1.039-.149.02-.1.029-.151.016-.1.022-.151.016-.1.021-.153,0-.1,0-.151v-.059c0-.052,0-.1,0-.155,0-.016,0-.031,0-.047-.006-.052-.012-.1-.02-.155s-.013-.1-.021-.151-.02-.1-.032-.151-.018-.09-.029-.135v-.02c-.006-.015-.013-.03-.021-.045q-.03-.1-.067-.2c-.018-.048-.037-.1-.058-.142s-.04-.093-.061-.139-.047-.09-.071-.134-.05-.089-.075-.133-.055-.085-.084-.126-.059-.083-.09-.124-.063-.08-.1-.118-.067-.079-.1-.116-.071-.074-.108-.108-.073-.07-.112-.1-.077-.066-.118-.1-.081-.063-.123-.092-.085-.058-.128-.086-.086-.054-.131-.08-.089-.049-.134-.071-.093-.046-.139-.067-.093-.039-.14-.057-.095-.037-.143-.054-.1-.029-.147-.043-.1-.027-.149-.039-.1-.02-.148-.028-.1-.017-.153-.023-.1-.015-.151-.02-.1,0-.153,0h-.059Zm0,0" transform="translate(-468.738 -810.605)" fill="#fff"/><path d="M-2279.192-42.53c-.051,0-.1,0-.153,0h-.047q-.078.008-.155.02c-.051.006-.1.013-.151.021s-.1.021-.151.033-.09.018-.134.029H-2280l-.045.02q-.1.03-.2.068c-.048.018-.094.037-.141.057s-.094.041-.141.063-.09.047-.135.071-.089.049-.132.075-.086.055-.127.084-.084.059-.125.089-.079.063-.118.1-.077.067-.114.1-.073.071-.108.108-.071.074-.1.112-.067.078-.1.118-.062.081-.092.122-.058.083-.086.127-.054.086-.08.13-.049.09-.071.137-.045.09-.066.136-.04.095-.059.143-.034.095-.051.142-.031.1-.045.147-.026.1-.037.147-.021.1-.028.151-.016.1-.022.151-.015.1-.021.153,0,.1,0,.151v.059c0,.051,0,.1,0,.151,0,.017,0,.033,0,.049.006.051.013.1.021.151s.012.1.021.155.02.1.032.151.018.09.029.135v.02c.007.015.013.03.021.045.02.068.042.134.067.2.018.048.037.1.057.142s.04.093.061.139.047.09.071.134.05.089.075.133.055.086.084.128.057.084.088.124.063.08.1.118.067.077.1.114.071.074.108.108.073.07.112.1.078.066.118.1.081.063.122.092.083.058.126.086.086.054.13.08.09.049.135.071.091.046.138.067.094.039.141.057.1.037.145.054.1.029.147.043.1.025.149.037.1.02.148.028.1.017.151.023.1.015.151.02.1,0,.153,0h.059c.051,0,.1,0,.153,0h.047c.051-.005.1-.012.155-.021s.1-.012.151-.02.1-.021.149-.033.091-.018.136-.029h.021l.045-.02c.068-.02.135-.043.2-.068.048-.018.094-.037.141-.057s.094-.041.14-.063.091-.047.135-.071.089-.049.132-.075.087-.055.129-.083.084-.059.125-.09.079-.063.118-.1.077-.066.114-.1.073-.071.108-.108.07-.073.1-.11.067-.078.1-.118.062-.081.092-.122.058-.083.086-.127.054-.086.08-.13.049-.09.071-.136.045-.091.065-.137.039-.094.057-.141.036-.1.052-.144.03-.1.043-.145.027-.1.039-.149.02-.1.029-.151.016-.1.022-.151.016-.1.021-.153,0-.1,0-.151v-.059c0-.052,0-.1,0-.155,0-.016,0-.031,0-.047-.006-.052-.012-.1-.02-.155s-.013-.1-.021-.151-.02-.1-.032-.151-.018-.09-.029-.135v-.02c-.006-.015-.013-.03-.021-.045q-.03-.1-.067-.2c-.018-.048-.037-.1-.058-.142s-.04-.093-.061-.139-.047-.09-.071-.134-.05-.089-.075-.133-.055-.085-.084-.126-.059-.083-.09-.124-.063-.08-.1-.118-.067-.079-.1-.116-.071-.074-.108-.108-.073-.07-.112-.1-.077-.066-.118-.1-.081-.063-.123-.092-.085-.058-.128-.086-.086-.054-.131-.08-.089-.049-.134-.071-.093-.046-.139-.067-.093-.039-.14-.057-.095-.037-.143-.054-.1-.029-.147-.043-.1-.027-.149-.039-.1-.02-.148-.028-.1-.017-.153-.023-.1-.015-.151-.02-.1,0-.153,0h-.059Zm0,0" transform="translate(-468.738 -810.605)" fill="#fff"/><path d="M-2279.192-42.53c-.051,0-.1,0-.153,0h-.047q-.078.008-.155.02c-.051.006-.1.013-.151.021s-.1.021-.151.033-.09.018-.134.029H-2280l-.045.02q-.1.03-.2.068c-.048.018-.094.037-.141.057s-.094.041-.141.063-.09.047-.135.071-.089.049-.132.075-.086.055-.127.084-.084.059-.125.089-.079.063-.118.1-.077.067-.114.1-.073.071-.108.108-.071.074-.1.112-.067.078-.1.118-.062.081-.092.122-.058.083-.086.127-.054.086-.08.13-.049.09-.071.137-.045.09-.066.136-.04.095-.059.143-.034.095-.051.142-.031.1-.045.147-.026.1-.037.147-.021.1-.028.151-.016.1-.022.151-.015.1-.021.153,0,.1,0,.151v.059c0,.051,0,.1,0,.151,0,.017,0,.033,0,.049.006.051.013.1.021.151s.012.1.021.155.02.1.032.151.018.09.029.135v.02c.007.015.013.03.021.045.02.068.042.134.067.2.018.048.037.1.057.142s.04.093.061.139.047.09.071.134.05.089.075.133.055.086.084.128.057.084.088.124.063.08.1.118.067.077.1.114.071.074.108.108.073.07.112.1.078.066.118.1.081.063.122.092.083.058.126.086.086.054.13.08.09.049.135.071.091.046.138.067.094.039.141.057.1.037.145.054.1.029.147.043.1.025.149.037.1.02.148.028.1.017.151.023.1.015.151.02.1,0,.153,0h.059c.051,0,.1,0,.153,0h.047c.051-.005.1-.012.155-.021s.1-.012.151-.02.1-.021.149-.033.091-.018.136-.029h.021l.045-.02c.068-.02.135-.043.2-.068.048-.018.094-.037.141-.057s.094-.041.14-.063.091-.047.135-.071.089-.049.132-.075.087-.055.129-.083.084-.059.125-.09.079-.063.118-.1.077-.066.114-.1.073-.071.108-.108.07-.073.1-.11.067-.078.1-.118.062-.081.092-.122.058-.083.086-.127.054-.086.08-.13.049-.09.071-.136.045-.091.065-.137.039-.094.057-.141.036-.1.052-.144.03-.1.043-.145.027-.1.039-.149.02-.1.029-.151.016-.1.022-.151.016-.1.021-.153,0-.1,0-.151v-.059c0-.052,0-.1,0-.155,0-.016,0-.031,0-.047-.006-.052-.012-.1-.02-.155s-.013-.1-.021-.151-.02-.1-.032-.151-.018-.09-.029-.135v-.02c-.006-.015-.013-.03-.021-.045q-.03-.1-.067-.2c-.018-.048-.037-.1-.058-.142s-.04-.093-.061-.139-.047-.09-.071-.134-.05-.089-.075-.133-.055-.085-.084-.126-.059-.083-.09-.124-.063-.08-.1-.118-.067-.079-.1-.116-.071-.074-.108-.108-.073-.07-.112-.1-.077-.066-.118-.1-.081-.063-.123-.092-.085-.058-.128-.086-.086-.054-.131-.08-.089-.049-.134-.071-.093-.046-.139-.067-.093-.039-.14-.057-.095-.037-.143-.054-.1-.029-.147-.043-.1-.027-.149-.039-.1-.02-.148-.028-.1-.017-.153-.023-.1-.015-.151-.02-.1,0-.153,0h-.059Zm0,0" transform="translate(-468.738 -810.605)" fill="#fff"/><path d="M-2279.192-42.53c-.051,0-.1,0-.153,0h-.047q-.078.008-.155.02c-.051.006-.1.013-.151.021s-.1.021-.151.033-.09.018-.134.029H-2280l-.045.02q-.1.03-.2.068c-.048.018-.094.037-.141.057s-.094.041-.141.063-.09.047-.135.071-.089.049-.132.075-.086.055-.127.084-.084.059-.125.089-.079.063-.118.1-.077.067-.114.1-.073.071-.108.108-.071.074-.1.112-.067.078-.1.118-.062.081-.092.122-.058.083-.086.127-.054.086-.08.13-.049.09-.071.137-.045.09-.066.136-.04.095-.059.143-.034.095-.051.142-.031.1-.045.147-.026.1-.037.147-.021.1-.028.151-.016.1-.022.151-.015.1-.021.153,0,.1,0,.151v.059c0,.051,0,.1,0,.151,0,.017,0,.033,0,.049.006.051.013.1.021.151s.012.1.021.155.02.1.032.151.018.09.029.135v.02c.007.015.013.03.021.045.02.068.042.134.067.2.018.048.037.1.057.142s.04.093.061.139.047.09.071.134.05.089.075.133.055.086.084.128.057.084.088.124.063.08.1.118.067.077.1.114.071.074.108.108.073.07.112.1.078.066.118.1.081.063.122.092.083.058.126.086.086.054.13.08.09.049.135.071.091.046.138.067.094.039.141.057.1.037.145.054.1.029.147.043.1.025.149.037.1.02.148.028.1.017.151.023.1.015.151.02.1,0,.153,0h.059c.051,0,.1,0,.153,0h.047c.051-.005.1-.012.155-.021s.1-.012.151-.02.1-.021.149-.033.091-.018.136-.029h.021l.045-.02c.068-.02.135-.043.2-.068.048-.018.094-.037.141-.057s.094-.041.14-.063.091-.047.135-.071.089-.049.132-.075.087-.055.129-.083.084-.059.125-.09.079-.063.118-.1.077-.066.114-.1.073-.071.108-.108.07-.073.1-.11.067-.078.1-.118.062-.081.092-.122.058-.083.086-.127.054-.086.08-.13.049-.09.071-.136.045-.091.065-.137.039-.094.057-.141.036-.1.052-.144.03-.1.043-.145.027-.1.039-.149.02-.1.029-.151.016-.1.022-.151.016-.1.021-.153,0-.1,0-.151v-.059c0-.052,0-.1,0-.155,0-.016,0-.031,0-.047-.006-.052-.012-.1-.02-.155s-.013-.1-.021-.151-.02-.1-.032-.151-.018-.09-.029-.135v-.02c-.006-.015-.013-.03-.021-.045q-.03-.1-.067-.2c-.018-.048-.037-.1-.058-.142s-.04-.093-.061-.139-.047-.09-.071-.134-.05-.089-.075-.133-.055-.085-.084-.126-.059-.083-.09-.124-.063-.08-.1-.118-.067-.079-.1-.116-.071-.074-.108-.108-.073-.07-.112-.1-.077-.066-.118-.1-.081-.063-.123-.092-.085-.058-.128-.086-.086-.054-.131-.08-.089-.049-.134-.071-.093-.046-.139-.067-.093-.039-.14-.057-.095-.037-.143-.054-.1-.029-.147-.043-.1-.027-.149-.039-.1-.02-.148-.028-.1-.017-.153-.023-.1-.015-.151-.02-.1,0-.153,0h-.059Zm0,0" transform="translate(-468.738 -810.605)" fill="#fff"/><path d="M-2279.192-42.53c-.051,0-.1,0-.153,0h-.047q-.078.008-.155.02c-.051.006-.1.013-.151.021s-.1.021-.151.033-.09.018-.134.029H-2280l-.045.02q-.1.03-.2.068c-.048.018-.094.037-.141.057s-.094.041-.141.063-.09.047-.135.071-.089.049-.132.075-.086.055-.127.084-.084.059-.125.089-.079.063-.118.1-.077.067-.114.1-.073.071-.108.108-.071.074-.1.112-.067.078-.1.118-.062.081-.092.122-.058.083-.086.127-.054.086-.08.13-.049.09-.071.137-.045.09-.066.136-.04.095-.059.143-.034.095-.051.142-.031.1-.045.147-.026.1-.037.147-.021.1-.028.151-.016.1-.022.151-.015.1-.021.153,0,.1,0,.151v.059c0,.051,0,.1,0,.151,0,.017,0,.033,0,.049.006.051.013.1.021.151s.012.1.021.155.02.1.032.151.018.09.029.135v.02c.007.015.013.03.021.045.02.068.042.134.067.2.018.048.037.1.057.142s.04.093.061.139.047.09.071.134.05.089.075.133.055.086.084.128.057.084.088.124.063.08.1.118.067.077.1.114.071.074.108.108.073.07.112.1.078.066.118.1.081.063.122.092.083.058.126.086.086.054.13.08.09.049.135.071.091.046.138.067.094.039.141.057.1.037.145.054.1.029.147.043.1.025.149.037.1.02.148.028.1.017.151.023.1.015.151.02.1,0,.153,0h.059c.051,0,.1,0,.153,0h.047c.051-.005.1-.012.155-.021s.1-.012.151-.02.1-.021.149-.033.091-.018.136-.029h.021l.045-.02c.068-.02.135-.043.2-.068.048-.018.094-.037.141-.057s.094-.041.14-.063.091-.047.135-.071.089-.049.132-.075.087-.055.129-.083.084-.059.125-.09.079-.063.118-.1.077-.066.114-.1.073-.071.108-.108.07-.073.1-.11.067-.078.1-.118.062-.081.092-.122.058-.083.086-.127.054-.086.08-.13.049-.09.071-.136.045-.091.065-.137.039-.094.057-.141.036-.1.052-.144.03-.1.043-.145.027-.1.039-.149.02-.1.029-.151.016-.1.022-.151.016-.1.021-.153,0-.1,0-.151v-.059c0-.052,0-.1,0-.155,0-.016,0-.031,0-.047-.006-.052-.012-.1-.02-.155s-.013-.1-.021-.151-.02-.1-.032-.151-.018-.09-.029-.135v-.02c-.006-.015-.013-.03-.021-.045q-.03-.1-.067-.2c-.018-.048-.037-.1-.058-.142s-.04-.093-.061-.139-.047-.09-.071-.134-.05-.089-.075-.133-.055-.085-.084-.126-.059-.083-.09-.124-.063-.08-.1-.118-.067-.079-.1-.116-.071-.074-.108-.108-.073-.07-.112-.1-.077-.066-.118-.1-.081-.063-.123-.092-.085-.058-.128-.086-.086-.054-.131-.08-.089-.049-.134-.071-.093-.046-.139-.067-.093-.039-.14-.057-.095-.037-.143-.054-.1-.029-.147-.043-.1-.027-.149-.039-.1-.02-.148-.028-.1-.017-.153-.023-.1-.015-.151-.02-.1,0-.153,0h-.059Zm0,0" transform="translate(-468.738 -810.605)" fill="#fff"/><path d="M-2279.192-42.53c-.051,0-.1,0-.153,0h-.047q-.078.008-.155.02c-.051.006-.1.013-.151.021s-.1.021-.151.033-.09.018-.134.029H-2280l-.045.02q-.1.03-.2.068c-.048.018-.094.037-.141.057s-.094.041-.141.063-.09.047-.135.071-.089.049-.132.075-.086.055-.127.084-.084.059-.125.089-.079.063-.118.1-.077.067-.114.1-.073.071-.108.108-.071.074-.1.112-.067.078-.1.118-.062.081-.092.122-.058.083-.086.127-.054.086-.08.13-.049.09-.071.137-.045.09-.066.136-.04.095-.059.143-.034.095-.051.142-.031.1-.045.147-.026.1-.037.147-.021.1-.028.151-.016.1-.022.151-.015.1-.021.153,0,.1,0,.151v.059c0,.051,0,.1,0,.151,0,.017,0,.033,0,.049.006.051.013.1.021.151s.012.1.021.155.02.1.032.151.018.09.029.135v.02c.007.015.013.03.021.045.02.068.042.134.067.2.018.048.037.1.057.142s.04.093.061.139.047.09.071.134.05.089.075.133.055.086.084.128.057.084.088.124.063.08.1.118.067.077.1.114.071.074.108.108.073.07.112.1.078.066.118.1.081.063.122.092.083.058.126.086.086.054.13.08.09.049.135.071.091.046.138.067.094.039.141.057.1.037.145.054.1.029.147.043.1.025.149.037.1.02.148.028.1.017.151.023.1.015.151.02.1,0,.153,0h.059c.051,0,.1,0,.153,0h.047c.051-.005.1-.012.155-.021s.1-.012.151-.02.1-.021.149-.033.091-.018.136-.029h.021l.045-.02c.068-.02.135-.043.2-.068.048-.018.094-.037.141-.057s.094-.041.14-.063.091-.047.135-.071.089-.049.132-.075.087-.055.129-.083.084-.059.125-.09.079-.063.118-.1.077-.066.114-.1.073-.071.108-.108.07-.073.1-.11.067-.078.1-.118.062-.081.092-.122.058-.083.086-.127.054-.086.08-.13.049-.09.071-.136.045-.091.065-.137.039-.094.057-.141.036-.1.052-.144.03-.1.043-.145.027-.1.039-.149.02-.1.029-.151.016-.1.022-.151.016-.1.021-.153,0-.1,0-.151v-.059c0-.052,0-.1,0-.155,0-.016,0-.031,0-.047-.006-.052-.012-.1-.02-.155s-.013-.1-.021-.151-.02-.1-.032-.151-.018-.09-.029-.135v-.02c-.006-.015-.013-.03-.021-.045q-.03-.1-.067-.2c-.018-.048-.037-.1-.058-.142s-.04-.093-.061-.139-.047-.09-.071-.134-.05-.089-.075-.133-.055-.085-.084-.126-.059-.083-.09-.124-.063-.08-.1-.118-.067-.079-.1-.116-.071-.074-.108-.108-.073-.07-.112-.1-.077-.066-.118-.1-.081-.063-.123-.092-.085-.058-.128-.086-.086-.054-.131-.08-.089-.049-.134-.071-.093-.046-.139-.067-.093-.039-.14-.057-.095-.037-.143-.054-.1-.029-.147-.043-.1-.027-.149-.039-.1-.02-.148-.028-.1-.017-.153-.023-.1-.015-.151-.02-.1,0-.153,0h-.059Zm0,0" transform="translate(-468.738 -810.605)" fill="#fff"/><path d="M-2279.192-42.53c-.051,0-.1,0-.153,0h-.047q-.078.008-.155.02c-.051.006-.1.013-.151.021s-.1.021-.151.033-.09.018-.134.029H-2280l-.045.02q-.1.03-.2.068c-.048.018-.094.037-.141.057s-.094.041-.141.063-.09.047-.135.071-.089.049-.132.075-.086.055-.127.084-.084.059-.125.089-.079.063-.118.1-.077.067-.114.1-.073.071-.108.108-.071.074-.1.112-.067.078-.1.118-.062.081-.092.122-.058.083-.086.127-.054.086-.08.13-.049.09-.071.137-.045.09-.066.136-.04.095-.059.143-.034.095-.051.142-.031.1-.045.147-.026.1-.037.147-.021.1-.028.151-.016.1-.022.151-.015.1-.021.153,0,.1,0,.151v.059c0,.051,0,.1,0,.151,0,.017,0,.033,0,.049.006.051.013.1.021.151s.012.1.021.155.02.1.032.151.018.09.029.135v.02c.007.015.013.03.021.045.02.068.042.134.067.2.018.048.037.1.057.142s.04.093.061.139.047.09.071.134.05.089.075.133.055.086.084.128.057.084.088.124.063.08.1.118.067.077.1.114.071.074.108.108.073.07.112.1.078.066.118.1.081.063.122.092.083.058.126.086.086.054.13.08.09.049.135.071.091.046.138.067.094.039.141.057.1.037.145.054.1.029.147.043.1.025.149.037.1.02.148.028.1.017.151.023.1.015.151.02.1,0,.153,0h.059c.051,0,.1,0,.153,0h.047c.051-.005.1-.012.155-.021s.1-.012.151-.02.1-.021.149-.033.091-.018.136-.029h.021l.045-.02c.068-.02.135-.043.2-.068.048-.018.094-.037.141-.057s.094-.041.14-.063.091-.047.135-.071.089-.049.132-.075.087-.055.129-.083.084-.059.125-.09.079-.063.118-.1.077-.066.114-.1.073-.071.108-.108.07-.073.1-.11.067-.078.1-.118.062-.081.092-.122.058-.083.086-.127.054-.086.08-.13.049-.09.071-.136.045-.091.065-.137.039-.094.057-.141.036-.1.052-.144.03-.1.043-.145.027-.1.039-.149.02-.1.029-.151.016-.1.022-.151.016-.1.021-.153,0-.1,0-.151v-.059c0-.052,0-.1,0-.155,0-.016,0-.031,0-.047-.006-.052-.012-.1-.02-.155s-.013-.1-.021-.151-.02-.1-.032-.151-.018-.09-.029-.135v-.02c-.006-.015-.013-.03-.021-.045q-.03-.1-.067-.2c-.018-.048-.037-.1-.058-.142s-.04-.093-.061-.139-.047-.09-.071-.134-.05-.089-.075-.133-.055-.085-.084-.126-.059-.083-.09-.124-.063-.08-.1-.118-.067-.079-.1-.116-.071-.074-.108-.108-.073-.07-.112-.1-.077-.066-.118-.1-.081-.063-.123-.092-.085-.058-.128-.086-.086-.054-.131-.08-.089-.049-.134-.071-.093-.046-.139-.067-.093-.039-.14-.057-.095-.037-.143-.054-.1-.029-.147-.043-.1-.027-.149-.039-.1-.02-.148-.028-.1-.017-.153-.023-.1-.015-.151-.02-.1,0-.153,0h-.059Zm0,0" transform="translate(-468.738 -810.605)" fill="#fff"/><path d="M-2279.192-42.53c-.051,0-.1,0-.153,0h-.047q-.078.008-.155.02c-.051.006-.1.013-.151.021s-.1.021-.151.033-.09.018-.134.029H-2280l-.045.02q-.1.03-.2.068c-.048.018-.094.037-.141.057s-.094.041-.141.063-.09.047-.135.071-.089.049-.132.075-.086.055-.127.084-.084.059-.125.089-.079.063-.118.1-.077.067-.114.1-.073.071-.108.108-.071.074-.1.112-.067.078-.1.118-.062.081-.092.122-.058.083-.086.127-.054.086-.08.13-.049.09-.071.137-.045.09-.066.136-.04.095-.059.143-.034.095-.051.142-.031.1-.045.147-.026.1-.037.147-.021.1-.028.151-.016.1-.022.151-.015.1-.021.153,0,.1,0,.151v.059c0,.051,0,.1,0,.151,0,.017,0,.033,0,.049.006.051.013.1.021.151s.012.1.021.155.02.1.032.151.018.09.029.135v.02c.007.015.013.03.021.045.02.068.042.134.067.2.018.048.037.1.057.142s.04.093.061.139.047.09.071.134.05.089.075.133.055.086.084.128.057.084.088.124.063.08.1.118.067.077.1.114.071.074.108.108.073.07.112.1.078.066.118.1.081.063.122.092.083.058.126.086.086.054.13.08.09.049.135.071.091.046.138.067.094.039.141.057.1.037.145.054.1.029.147.043.1.025.149.037.1.02.148.028.1.017.151.023.1.015.151.02.1,0,.153,0h.059c.051,0,.1,0,.153,0h.047c.051-.005.1-.012.155-.021s.1-.012.151-.02.1-.021.149-.033.091-.018.136-.029h.021l.045-.02c.068-.02.135-.043.2-.068.048-.018.094-.037.141-.057s.094-.041.14-.063.091-.047.135-.071.089-.049.132-.075.087-.055.129-.083.084-.059.125-.09.079-.063.118-.1.077-.066.114-.1.073-.071.108-.108.07-.073.1-.11.067-.078.1-.118.062-.081.092-.122.058-.083.086-.127.054-.086.08-.13.049-.09.071-.136.045-.091.065-.137.039-.094.057-.141.036-.1.052-.144.03-.1.043-.145.027-.1.039-.149.02-.1.029-.151.016-.1.022-.151.016-.1.021-.153,0-.1,0-.151v-.059c0-.052,0-.1,0-.155,0-.016,0-.031,0-.047-.006-.052-.012-.1-.02-.155s-.013-.1-.021-.151-.02-.1-.032-.151-.018-.09-.029-.135v-.02c-.006-.015-.013-.03-.021-.045q-.03-.1-.067-.2c-.018-.048-.037-.1-.058-.142s-.04-.093-.061-.139-.047-.09-.071-.134-.05-.089-.075-.133-.055-.085-.084-.126-.059-.083-.09-.124-.063-.08-.1-.118-.067-.079-.1-.116-.071-.074-.108-.108-.073-.07-.112-.1-.077-.066-.118-.1-.081-.063-.123-.092-.085-.058-.128-.086-.086-.054-.131-.08-.089-.049-.134-.071-.093-.046-.139-.067-.093-.039-.14-.057-.095-.037-.143-.054-.1-.029-.147-.043-.1-.027-.149-.039-.1-.02-.148-.028-.1-.017-.153-.023-.1-.015-.151-.02-.1,0-.153,0h-.059Zm0,0" transform="translate(-468.738 -810.605)" fill="#fff"/><path d="M-2279.192-42.53c-.051,0-.1,0-.153,0h-.047q-.078.008-.155.02c-.051.006-.1.013-.151.021s-.1.021-.151.033-.09.018-.134.029H-2280l-.045.02q-.1.03-.2.068c-.048.018-.094.037-.141.057s-.094.041-.141.063-.09.047-.135.071-.089.049-.132.075-.086.055-.127.084-.084.059-.125.089-.079.063-.118.1-.077.067-.114.1-.073.071-.108.108-.071.074-.1.112-.067.078-.1.118-.062.081-.092.122-.058.083-.086.127-.054.086-.08.13-.049.09-.071.137-.045.09-.066.136-.04.095-.059.143-.034.095-.051.142-.031.1-.045.147-.026.1-.037.147-.021.1-.028.151-.016.1-.022.151-.015.1-.021.153,0,.1,0,.151v.059c0,.051,0,.1,0,.151,0,.017,0,.033,0,.049.006.051.013.1.021.151s.012.1.021.155.02.1.032.151.018.09.029.135v.02c.007.015.013.03.021.045.02.068.042.134.067.2.018.048.037.1.057.142s.04.093.061.139.047.09.071.134.05.089.075.133.055.086.084.128.057.084.088.124.063.08.1.118.067.077.1.114.071.074.108.108.073.07.112.1.078.066.118.1.081.063.122.092.083.058.126.086.086.054.13.08.09.049.135.071.091.046.138.067.094.039.141.057.1.037.145.054.1.029.147.043.1.025.149.037.1.02.148.028.1.017.151.023.1.015.151.02.1,0,.153,0h.059c.051,0,.1,0,.153,0h.047c.051-.005.1-.012.155-.021s.1-.012.151-.02.1-.021.149-.033.091-.018.136-.029h.021l.045-.02c.068-.02.135-.043.2-.068.048-.018.094-.037.141-.057s.094-.041.14-.063.091-.047.135-.071.089-.049.132-.075.087-.055.129-.083.084-.059.125-.09.079-.063.118-.1.077-.066.114-.1.073-.071.108-.108.07-.073.1-.11.067-.078.1-.118.062-.081.092-.122.058-.083.086-.127.054-.086.08-.13.049-.09.071-.136.045-.091.065-.137.039-.094.057-.141.036-.1.052-.144.03-.1.043-.145.027-.1.039-.149.02-.1.029-.151.016-.1.022-.151.016-.1.021-.153,0-.1,0-.151v-.059c0-.052,0-.1,0-.155,0-.016,0-.031,0-.047-.006-.052-.012-.1-.02-.155s-.013-.1-.021-.151-.02-.1-.032-.151-.018-.09-.029-.135v-.02c-.006-.015-.013-.03-.021-.045q-.03-.1-.067-.2c-.018-.048-.037-.1-.058-.142s-.04-.093-.061-.139-.047-.09-.071-.134-.05-.089-.075-.133-.055-.085-.084-.126-.059-.083-.09-.124-.063-.08-.1-.118-.067-.079-.1-.116-.071-.074-.108-.108-.073-.07-.112-.1-.077-.066-.118-.1-.081-.063-.123-.092-.085-.058-.128-.086-.086-.054-.131-.08-.089-.049-.134-.071-.093-.046-.139-.067-.093-.039-.14-.057-.095-.037-.143-.054-.1-.029-.147-.043-.1-.027-.149-.039-.1-.02-.148-.028-.1-.017-.153-.023-.1-.015-.151-.02-.1,0-.153,0h-.059Zm0,0" transform="translate(-468.738 -810.605)" fill="#fff"/><path d="M-2458.654,48.413c-1.824,13.852-9.035,32.935-14.733,32.184s-7.726-21.049-5.9-34.9,8.286-15.816,12.505-15.26,9.954,4.125,8.13,17.977Zm0,0" transform="translate(-304.858 -871.024)" fill="#ccc"/><path d="M-2480.512,13.516a11.791,11.791,0,0,0-9.482,2.957c-3.058,2.777-5.315,7.455-6.282,14.8a90.143,90.143,0,0,0,.135,23.156,37.831,37.831,0,0,0,2.4,9.456c1.134,2.619,2.787,5.142,5.869,5.548s5.333-1.6,7.105-3.839a37.818,37.818,0,0,0,4.764-8.513,90.149,90.149,0,0,0,6.124-22.332c.967-7.348,0-12.451-2.236-15.925a11.793,11.793,0,0,0-8.394-5.311Zm-.758,5.759A5.6,5.6,0,0,1-2477,21.969c1.231,1.913,2.218,5.521,1.363,12.025a85.806,85.806,0,0,1-5.7,20.8,33.653,33.653,0,0,1-3.976,7.191,6,6,0,0,1-1.788,1.632,6.009,6.009,0,0,1-1.3-2.039,33.613,33.613,0,0,1-1.98-7.975,85.84,85.84,0,0,1-.126-21.572c.856-6.5,2.744-9.732,4.428-11.262a5.6,5.6,0,0,1,4.819-1.5Zm0,0" transform="translate(-290.75 -856.984)" fill="#1a1a1a"/><path d="M-2154.274,45.7c1.823,13.852-.2,34.151-5.9,34.9s-12.911-18.333-14.734-32.185,3.911-17.422,8.131-17.977,10.682,1.409,12.506,15.261Zm0,0" transform="translate(-557.43 -871.025)" fill="#ccc"/><path d="M-2181.24,13.516a11.793,11.793,0,0,0-8.394,5.311c-2.236,3.473-3.2,8.577-2.236,15.925a90.093,90.093,0,0,0,6.124,22.332,37.756,37.756,0,0,0,4.764,8.513c1.772,2.236,4.022,4.246,7.1,3.839s4.736-2.929,5.869-5.548a37.809,37.809,0,0,0,2.4-9.456,90.2,90.2,0,0,0,.135-23.156c-.968-7.348-3.224-12.027-6.282-14.8a11.791,11.791,0,0,0-9.482-2.957Zm.758,5.759a5.6,5.6,0,0,1,4.819,1.5c1.684,1.529,3.572,4.758,4.427,11.262a85.782,85.782,0,0,1-.125,21.572,33.628,33.628,0,0,1-1.979,7.975,6.01,6.01,0,0,1-1.3,2.039,6,6,0,0,1-1.787-1.632,33.63,33.63,0,0,1-3.976-7.19,85.811,85.811,0,0,1-5.7-20.8c-.856-6.5.131-10.111,1.363-12.025a5.6,5.6,0,0,1,4.268-2.694Zm0,0" transform="translate(-543.349 -856.984)" fill="#1a1a1a"/><path d="M-2800.5-357.871c-8.505,11.085-24.292,24.005-28.852,20.506s3.834-22.092,12.339-33.176,15.084-9.554,18.461-6.963,6.557,8.549-1.948,19.633Zm0,0" transform="translate(-14.139 -531.378)" fill="#fff"/><path d="M-2810.922-393.84a11.791,11.791,0,0,0-9.69-2.181c-4.037.876-8.33,3.8-12.843,9.68a90.149,90.149,0,0,0-11.461,20.121,37.817,37.817,0,0,0-2.651,9.389c-.327,2.835-.157,5.846,2.309,7.739s5.42,1.277,8.073.227a37.787,37.787,0,0,0,8.382-4.991,90.149,90.149,0,0,0,16.469-16.278c4.512-5.88,6.225-10.785,6.026-14.91a11.791,11.791,0,0,0-4.615-8.8Zm-3.536,4.608a5.6,5.6,0,0,1,2.349,4.467c.109,2.272-.839,5.89-4.833,11.094a85.8,85.8,0,0,1-15.342,15.164,33.634,33.634,0,0,1-7.04,4.24,6.01,6.01,0,0,1-2.364.52,6.011,6.011,0,0,1-.109-2.418,33.629,33.629,0,0,1,2.273-7.9,85.831,85.831,0,0,1,10.677-18.744c3.994-5.2,7.242-7.057,9.466-7.539a5.6,5.6,0,0,1,4.923,1.112Zm0,0" transform="translate(0 -517.346)" fill="#1a1a1a"/><path d="M-1884.138-370.54c8.505,11.084,16.9,29.677,12.34,33.176s-20.347-9.421-28.852-20.505-5.324-17.044-1.948-19.634,9.955-4.121,18.46,6.963Zm0,0" transform="translate(-780.562 -531.378)" fill="#fff"/><path d="M-1918.445-393.839a11.8,11.8,0,0,0-4.615,8.8c-.2,4.126,1.515,9.03,6.026,14.91a90.158,90.158,0,0,0,16.469,16.278,37.807,37.807,0,0,0,8.382,4.991c2.654,1.051,5.606,1.666,8.073-.227s2.637-4.9,2.309-7.739a37.828,37.828,0,0,0-2.651-9.389,90.129,90.129,0,0,0-11.461-20.121c-4.512-5.88-8.805-8.8-12.842-9.68a11.8,11.8,0,0,0-9.691,2.181Zm3.536,4.608a5.6,5.6,0,0,1,4.923-1.112c2.224.482,5.472,2.336,9.466,7.539a85.831,85.831,0,0,1,10.677,18.745,33.633,33.633,0,0,1,2.273,7.9,6.006,6.006,0,0,1-.109,2.417,6.1,6.1,0,0,1-2.364-.52,33.592,33.592,0,0,1-7.039-4.239,85.788,85.788,0,0,1-15.342-15.165c-3.993-5.2-4.943-8.821-4.833-11.094a5.6,5.6,0,0,1,2.349-4.467Zm0,0" transform="translate(-766.484 -517.346)" fill="#1a1a1a"/><path d="M-2659.4-752.814a81.573,81.573,0,0,0-81.5,81.5,81.573,81.573,0,0,0,81.5,81.5,81.573,81.573,0,0,0,81.5-81.5,81.573,81.573,0,0,0-81.5-81.5Zm0,9.295a72.138,72.138,0,0,1,72.207,72.207A72.137,72.137,0,0,1-2659.4-599.1a72.137,72.137,0,0,1-72.208-72.207,72.137,72.137,0,0,1,72.208-72.207Zm0,0" transform="translate(-88.529 -221.799)" fill="#1a1a1a"/><path d="M-2560.013-648.784a76.856,76.856,0,0,1-22.51,54.345,76.854,76.854,0,0,1-54.344,22.51,76.856,76.856,0,0,1-54.345-22.51,76.856,76.856,0,0,1-22.51-54.345,76.854,76.854,0,0,1,22.51-54.344,76.856,76.856,0,0,1,54.345-22.51,76.854,76.854,0,0,1,54.344,22.51,76.854,76.854,0,0,1,22.51,54.344Zm0,0" transform="translate(-111.057 -244.327)" fill="#ccc"/><path d="M-2561.282-644.294a71.094,71.094,0,0,1-20.823,50.272,71.093,71.093,0,0,1-50.272,20.824,71.1,71.1,0,0,1-50.272-20.824,71.1,71.1,0,0,1-20.823-50.272,71.1,71.1,0,0,1,20.823-50.272,71.1,71.1,0,0,1,50.272-20.823,71.1,71.1,0,0,1,50.272,20.823,71.094,71.094,0,0,1,20.823,50.272Zm0,0" transform="translate(-119.554 -252.824)" fill="#fff"/><path d="M-2713.723-276.264a76.857,76.857,0,0,0,22.51,54.344,76.855,76.855,0,0,0,54.344,22.51,76.854,76.854,0,0,0,54.344-22.51,76.855,76.855,0,0,0,22.511-54.344Zm0,0" transform="translate(-111.057 -616.846)" fill="#757575"/><path d="M-2702.641-276.264a71.1,71.1,0,0,0,22.136,47.652,71.1,71.1,0,0,0,48.817,19.436,71.091,71.091,0,0,0,48.779-19.456,71.093,71.093,0,0,0,22.115-47.632Zm0,0" transform="translate(-120.244 -616.846)" fill="#ccc"/><path d="M-2642.5-732.435a78.035,78.035,0,0,0-78.017,78.017A78.034,78.034,0,0,0-2642.5-576.4a78.035,78.035,0,0,0,78.017-78.017,78.035,78.035,0,0,0-78.017-78.017Zm0,2.324a75.676,75.676,0,0,1,75.693,75.693,75.676,75.676,0,0,1-75.693,75.693,75.676,75.676,0,0,1-75.693-75.693,75.676,75.676,0,0,1,75.693-75.693Zm0,0" transform="translate(-105.426 -238.693)" fill="#1a1a1a"/><path d="M-2448.816-239.906a5.6,5.6,0,0,1-5.61-5.61v-6.33a32.507,32.507,0,0,1,32.508-32.507,32.507,32.507,0,0,1,32.508,32.507v6.33a5.6,5.6,0,0,1-5.61,5.61Zm0,0" transform="translate(-326.007 -610.141)" fill="#fff"/><path d="M-2227.278-236.053l-.012-.014s5.519-10.6,0-20.388c6.887-10.878.826-23.25.826-23.25a32.518,32.518,0,0,1,25.339,31.713v6.33a5.6,5.6,0,0,1-5.61,5.61Zm0,0" transform="translate(-514.297 -613.994)" fill="#ccc"/><path d="M-2133.95-194.653v-.014s6.326-7.275,0-15c7.283-6.768.5-20.1.5-20.1a32.406,32.406,0,0,1,9.711,23.172v6.33a5.6,5.6,0,0,1-5.61,5.61Zm0,0" transform="translate(-591.673 -655.394)" fill="#1a1a1a"/><path d="M-2444.212-194.653v-.014s-6.326-7.275,0-15c-7.284-6.768-.5-20.1-.5-20.1a32.4,32.4,0,0,0-9.711,23.171v6.331a5.6,5.6,0,0,0,5.609,5.61Zm0,0" transform="translate(-326.011 -655.394)" fill="#1a1a1a"/><path d="M-2427.55-291.146a33.686,33.686,0,0,0-33.669,33.669v6.331a6.783,6.783,0,0,0,6.772,6.771h53.8a6.783,6.783,0,0,0,6.771-6.771v-6.331a33.687,33.687,0,0,0-33.67-33.669Zm0,2.324a31.328,31.328,0,0,1,31.346,31.345v6.331a4.412,4.412,0,0,1-4.447,4.447h-53.8a4.412,4.412,0,0,1-4.447-4.447v-6.331a31.327,31.327,0,0,1,31.345-31.345Zm0,0" transform="translate(-320.376 -604.51)" fill="#1a1a1a"/><path d="M-2466.772-462.955a11.944,11.944,0,0,1,11.971,11.97v6a11.944,11.944,0,0,1-11.971,11.97,11.944,11.944,0,0,1-11.971-11.97v-6a11.944,11.944,0,0,1,11.971-11.97Zm0,0" transform="translate(-305.849 -462.085)" fill="#1a1a1a"/><path d="M-2405.469-431.5a3.864,3.864,0,0,1-1.131,2.732,3.862,3.862,0,0,1-2.733,1.132,3.863,3.863,0,0,1-3.863-3.864,3.863,3.863,0,0,1,3.863-3.863,3.863,3.863,0,0,1,2.733,1.132,3.862,3.862,0,0,1,1.131,2.732Zm0,0" transform="translate(-360.186 -484.956)" fill="#fff"/><path d="M-2177.971-462.955a11.944,11.944,0,0,0-11.97,11.97v9.89H-2166v-9.89a11.944,11.944,0,0,0-11.97-11.97Zm0,0" transform="translate(-545.258 -462.085)" fill="#1a1a1a"/><path d="M-2116.667-431.5a3.864,3.864,0,0,1-3.864,3.864,3.864,3.864,0,0,1-3.864-3.864,3.864,3.864,0,0,1,3.864-3.864,3.864,3.864,0,0,1,3.864,3.864Zm0,0" transform="translate(-599.594 -484.953)" fill="#fff"/><path d="M-2352.857-1020.373a14.625,14.625,0,0,0-14.554,14.554V-960.5h9.3v-45.322a5.148,5.148,0,0,1,5.258-5.259h6.144a5.149,5.149,0,0,1,5.259,5.259V-960.5h9.3v-45.322a14.626,14.626,0,0,0-14.555-14.554Zm0,0" transform="translate(-398.141 0)" fill="#1a1a1a"/><path d="M-2463.843-1006.732A41.228,41.228,0,0,0-2505-965.574v10.491a10.623,10.623,0,0,0,10.542,10.541h61.232a10.623,10.623,0,0,0,10.542-10.541v-10.491a41.229,41.229,0,0,0-41.158-41.158Zm0,9.3a31.792,31.792,0,0,1,31.863,31.862v10.491a1.154,1.154,0,0,1-1.246,1.246h-61.232a1.154,1.154,0,0,1-1.247-1.246v-10.491a31.792,31.792,0,0,1,31.863-31.862Zm0,0" transform="translate(-284.083 -11.308)" fill="#1a1a1a"/><path d="M-2531.314-777.842a12.431,12.431,0,0,0-12.354,12.354v.732a26.7,26.7,0,0,0,26.657,26.658h42.226a26.7,26.7,0,0,0,26.658-26.658v-.732a12.431,12.431,0,0,0-12.354-12.354Zm0,9.3h70.834a2.955,2.955,0,0,1,3.059,3.058v.732a17.225,17.225,0,0,1-17.364,17.363h-42.226a17.224,17.224,0,0,1-17.363-17.363v-.732a2.955,2.955,0,0,1,3.059-3.058Zm0,0" transform="translate(-252.028 -201.052)" fill="#1a1a1a"/><path d="M-2508.791-750.666a7.69,7.69,0,0,0-7.706,7.706v.732a21.963,21.963,0,0,0,22.011,22.011h42.225a21.962,21.962,0,0,0,22.01-22.011v-.732a7.69,7.69,0,0,0-7.706-7.706Zm0,0" transform="translate(-274.552 -223.58)" fill="#ffb31c"/><path d="M-2514.418-757.459a8.873,8.873,0,0,0-8.867,8.868v.732a23.147,23.147,0,0,0,23.172,23.173h42.225a23.147,23.147,0,0,0,23.172-23.173v-.732a8.874,8.874,0,0,0-8.868-8.868Zm0,2.324h70.834a6.5,6.5,0,0,1,6.544,6.544v.732a20.777,20.777,0,0,1-20.849,20.848h-42.225a20.777,20.777,0,0,1-20.849-20.848v-.732a6.5,6.5,0,0,1,6.544-6.544Zm0,0" transform="translate(-268.925 -217.949)" fill="#1a1a1a"/><path d="M-2463.373-921.9h43.97a14.49,14.49,0,0,0,14.521-14.521l.015-6.627a36.51,36.51,0,0,0-36.51-36.51,36.534,36.534,0,0,0-36.51,36.51l-.011,6.627a14.494,14.494,0,0,0,14.525,14.521Zm0,0" transform="translate(-306.549 -33.835)" fill="#ffb31c"/><path d="M-2461.359-944.725a36.556,36.556,0,0,0-16.529,30.553l-.012,6.627a14.482,14.482,0,0,0,6.765,12.285l.01-21.542a43.92,43.92,0,0,1,9.765-27.923Zm0,0" transform="translate(-306.549 -62.71)" fill="#fff"/><path d="M-2199.649-969.56a9.876,9.876,0,0,1,1.913,5.864v50.085h8.994a14.489,14.489,0,0,0,14.521-14.521l.016-6.627a36.525,36.525,0,0,0-25.444-34.8Zm0,0" transform="translate(-537.211 -42.123)" fill="#ff8c03"/><path d="M-2447.008-986.353a37.713,37.713,0,0,0-37.672,37.67l-.011,6.628A15.677,15.677,0,0,0-2469-926.372h43.97a15.674,15.674,0,0,0,15.683-15.68v0l.016-6.626a37.69,37.69,0,0,0-37.672-37.673Zm0,2.324a35.331,35.331,0,0,1,35.348,35.348l-.015,6.625v0a13.3,13.3,0,0,1-13.36,13.359H-2469a13.308,13.308,0,0,1-13.363-13.357v0l.011-6.626a35.353,35.353,0,0,1,35.348-35.35Zm0,0" transform="translate(-300.918 -28.202)" fill="#1a1a1a"/><path d="M-2330.331-993.2a9.886,9.886,0,0,0-9.908,9.907v45.322h25.958v-45.322a9.886,9.886,0,0,0-9.907-9.907Zm0,0" transform="translate(-420.665 -22.525)" fill="#ffb31c"/><rect width="2.324" height="48.116" transform="translate(-2756.783 -1007.55)" fill="#fff"/><path d="M-2335.96-999.994a11.069,11.069,0,0,0-11.068,11.069v50.085h2.324v-50.085a8.7,8.7,0,0,1,8.744-8.744h6.144a8.7,8.7,0,0,1,8.745,8.744v50.085h2.324v-50.085a11.07,11.07,0,0,0-11.069-11.069Zm0,0" transform="translate(-415.037 -16.894)" fill="#1a1a1a"/><path d="M-1752.9-657.225-1754.91-656a30.182,30.182,0,0,0-12.186,14.19l0,.005,0,.006a30.164,30.164,0,0,0,1.489,26.039l-27.979,67.546a18.9,18.9,0,0,0,10.2,24.619,18.905,18.905,0,0,0,24.621-10.2l27.975-67.537a30.164,30.164,0,0,0,19.468-17.371l0-.006,0-.005a30.186,30.186,0,0,0,1.412-18.653l-.558-2.289-17.96-7.44-5.45,13.159-6.5-2.692,5.45-13.158Zm.957,10.457,4.864,2.015-2.5,6.028a7.8,7.8,0,0,0,4.177,10.083l9.414,3.9a7.805,7.805,0,0,0,10.083-4.176l2.5-6.029,4.86,2.013a20.878,20.878,0,0,1-1.377,10.678,20.874,20.874,0,0,1-15.207,12.477l-2.435.485-29.8,71.946a9.427,9.427,0,0,1-12.476,5.168A9.426,9.426,0,0,1-1785-544.655l29.8-71.956-1.378-2.065a20.872,20.872,0,0,1-1.934-19.568,20.879,20.879,0,0,1,6.572-8.524Zm0,0" transform="translate(-872.64 -301.04)" fill="#1a1a1a"/><path d="M-1718.11-486.081a14.165,14.165,0,0,1,7.683,18.548l-30.21,72.934a14.164,14.164,0,0,1-18.548,7.683,14.165,14.165,0,0,1-7.683-18.548l30.21-72.933a14.165,14.165,0,0,1,18.548-7.683Zm0,0" transform="translate(-895.07 -442.009)" fill="#ccc"/><path d="M-1700.731,8.542a3.733,3.733,0,0,1-4.877,2.02,3.733,3.733,0,0,1-2.02-4.878,3.733,3.733,0,0,1,2.02-2.02,3.734,3.734,0,0,1,2.857,0,3.732,3.732,0,0,1,2.02,2.02,3.734,3.734,0,0,1,0,2.857Zm0,0" transform="translate(-944.846 -848.664)" fill="#1a1a1a"/><path d="M-1605.82-626.842a25.533,25.533,0,0,0-10.31,12.006,25.535,25.535,0,0,0,13.819,33.363,25.531,25.531,0,0,0,19.544,0,25.534,25.534,0,0,0,13.82-13.82,25.535,25.535,0,0,0,1.2-15.78l-11.489-4.759-4.276,10.323a3.063,3.063,0,0,1-4.01,1.661l-9.415-3.9a3.063,3.063,0,0,1-1.661-4.01l4.276-10.323Zm0,0" transform="translate(-1019.316 -326.227)" fill="#ccc"/><path d="M-1585.635-562.467l-4.276,10.323a3.063,3.063,0,0,1-4.01,1.661l-9.416-3.9a3.062,3.062,0,0,1-1.661-4.01l.576-1.39-19.791,11.426a25.53,25.53,0,0,0,4.051,10.814l-5.632,13.6,52.243-30.163a25.5,25.5,0,0,0-.6-3.6Zm0,0" transform="translate(-1012.922 -379.592)" fill="#fff"/><path d="M-1735.775-634.435l-.5.306a26.7,26.7,0,0,0-10.779,12.552v0a26.681,26.681,0,0,0,2.145,24.456l-28.636,69.132a15.349,15.349,0,0,0,8.311,20.065,15.35,15.35,0,0,0,20.066-8.311l28.632-69.124a26.678,26.678,0,0,0,18.813-15.787v0a26.694,26.694,0,0,0,1.25-16.5l-.14-.573-13.107-5.429-4.72,11.4a1.878,1.878,0,0,1-2.492,1.032l-9.415-3.9a1.879,1.879,0,0,1-1.033-2.493l4.721-11.4Zm.226,2.609,9.849,4.079-3.831,9.249a4.249,4.249,0,0,0,2.29,5.529l9.415,3.9a4.248,4.248,0,0,0,5.528-2.29l3.832-9.249,9.845,4.078a24.362,24.362,0,0,1-1.253,14.5v0a24.367,24.367,0,0,1-17.746,14.561l-.609.122-29.088,70.226a12.98,12.98,0,0,1-17.03,7.053A12.978,12.978,0,0,1-1771.4-527.1l29.092-70.235-.345-.516a24.37,24.37,0,0,1-2.256-22.837v0a24.361,24.361,0,0,1,9.362-11.139Zm0,0" transform="translate(-889.461 -319.932)" fill="#1a1a1a"/><path d="M-1648.863-385.184a6.14,6.14,0,0,0-8.258,3.421l-18.391,44.4a6.141,6.141,0,0,0,3.42,8.257,6.141,6.141,0,0,0,8.258-3.421l18.391-44.4a6.14,6.14,0,0,0-3.42-8.258Zm0,0" transform="translate(-971.271 -526.119)" fill="#939393"/><path d="M-1653.953-391.789a7.386,7.386,0,0,0-9.776,4.049l-18.391,44.4a7.386,7.386,0,0,0,4.05,9.776,7.386,7.386,0,0,0,9.776-4.049l18.391-44.4a7.386,7.386,0,0,0-4.049-9.776Zm-.889,2.147a4.9,4.9,0,0,1,2.791,6.739l-18.391,44.4a4.9,4.9,0,0,1-6.739,2.791,4.9,4.9,0,0,1-2.791-6.739l18.391-44.4a4.9,4.9,0,0,1,6.739-2.792Zm0,0" transform="translate(-965.736 -520.587)" fill="#1a1a1a"/></g></svg>