<svg xmlns="http://www.w3.org/2000/svg" width="21.321" height="20" viewBox="0 0 21.321 20"><path d="M21.13,7.44,11.14.16a.66.66,0,0,0-.76,0L7.18,2.43V.66A.61.61,0,0,0,6.62,0H4.34a.69.69,0,0,0-.66.66V4.75a1.91,1.91,0,0,1,0,.24L.26,7.44a.62.62,0,0,0-.14.87.63.63,0,0,0,.51.26A.68.68,0,0,0,1,8.46l.41-.27v9.48A2.29,2.29,0,0,0,3.7,20h14a2.26,2.26,0,0,0,2.24-2.33V8.18l.42.27a.64.64,0,0,0,.78-1ZM4.93,1.25h1V3.32h0l-1,.73Zm7.54,17.5h-4v-6a2.57,2.57,0,0,1,2-1,2.6,2.6,0,0,1,2,1Zm6.21-1.08a1,1,0,0,1-1,1.08h-4V12.58a.57.57,0,0,0-.07-.31,3.74,3.74,0,0,0-3.14-1.77,3.84,3.84,0,0,0-3.18,1.77.72.72,0,0,0-.11.31v6.16H3.7a1,1,0,0,1-1-1.08V7.29l8.07-5.86L18.7,7.27Z" transform="translate(-0.001)" fill="#fff"/></svg>