<svg xmlns="http://www.w3.org/2000/svg" width="21.437" height="20" viewBox="0 0 21.437 20"><path d="M21.16,7.44,11.17.16a.53.53,0,0,0-.67,0L7.39,2.43V.66A.77.77,0,0,0,6.65,0H4.37a.76.76,0,0,0-.73.66V5L.24,7.44a.62.62,0,0,0-.11.87.64.64,0,0,0,.52.26A.59.59,0,0,0,1,8.46l.38-.27v9.48A2.35,2.35,0,0,0,3.73,20h14a2.42,2.42,0,0,0,2.42-2.33V8.18l.33.27a.59.59,0,0,0,.85-.13.64.64,0,0,0-.17-.88ZM4.89,1.25H6.14V3.33l-1.25.73Zm14,16.42a1.16,1.16,0,0,1-1.17,1.08h-14a1.09,1.09,0,0,1-1.09-1.08V7.29l8.2-5.86,8.05,5.84ZM10.18,6.79v.59a.12.12,0,0,1-.11.12,2.6,2.6,0,0,0-1.51.7c-1.26,1.31-.32,2.93,1.07,3.53.76.33,1.8.51,2.25,1.29s-.18,1.58-1.12,1.58a4.67,4.67,0,0,1-1.47-.34c-.75-.28-.9-.32-.92-.33a.612.612,0,0,0-.32.27,1,1,0,0,0-.15.49c0,.21.3.43.87.63a5,5,0,0,0,1.3.3.13.13,0,0,1,.11.13v.62c0,.24.05.35.1.39a.75.75,0,0,0,.53.14c.36,0,.52-.18.52-.59v-.59a.13.13,0,0,1,.11-.12,2,2,0,0,0,1.38-.67,2.21,2.21,0,0,0,.11-2.69A4.77,4.77,0,0,0,10.83,11c-.59-.25-1.41-.53-1.56-1.24s.55-1.23,1.27-1.23a4.31,4.31,0,0,1,1.5.35,9.28,9.28,0,0,0,.92.34c.13,0,.25-.14.33-.27a.9.9,0,0,0,.18-.47c0-.22-.28-.45-.81-.66a5.73,5.73,0,0,0-1.24-.34.13.13,0,0,1-.11-.13c0-.07,0-.17,0-.31V6.77a.77.77,0,0,0-.1-.44.65.65,0,0,0-.5-.15C10.35,6.19,10.18,6.37,10.18,6.79Z" transform="translate(0)" fill="#fff"/></svg>