<svg xmlns="http://www.w3.org/2000/svg" width="22.983" height="20" viewBox="0 0 22.983 20"><path d="M15.3,10.86h3a.61.61,0,0,0,.62-.61v-3a.61.61,0,0,0-.62-.61h-3a.61.61,0,0,0-.62.61v3a.61.61,0,0,0,.62.61Zm.62-3h1.73V9.63H15.92Zm-5.81,3h3a.61.61,0,0,0,.61-.61v-3a.61.61,0,0,0-.61-.61h-3a.61.61,0,0,0-.61.61v3a.61.61,0,0,0,.61.61Zm.62-3h1.73V9.63H10.73Zm-5.8,3h3a.61.61,0,0,0,.62-.61v-3a.61.61,0,0,0-.62-.61h-3a.61.61,0,0,0-.62.61v3a.61.61,0,0,0,.62.61Zm.62-3H7.27V9.63H5.55Zm17.27-4L20.39.27A.61.61,0,0,0,19.88,0H3.09a.63.63,0,0,0-.52.27L.1,4a.64.64,0,0,0,0,.63.63.63,0,0,0,.55.33h1V17.7A2.4,2.4,0,0,0,4,20H19a2.3,2.3,0,0,0,2.3-2.3V4.94h1a.62.62,0,0,0,.7-.62.64.64,0,0,0-.18-.4ZM13.2,18.77H10V17.19c0-.25.7-.83,1.61-.83a2.11,2.11,0,0,1,1.6.83Zm6.91-1.07a1.06,1.06,0,0,1-1.06,1.07H14.44V17a.67.67,0,0,0-.1-.3,3.34,3.34,0,0,0-2.8-1.58A3.22,3.22,0,0,0,8.79,16.7a.61.61,0,0,0,0,.3v1.77H4A1.17,1.17,0,0,1,2.83,17.7V13.58H20.11Zm0-5.35H2.83V4.94H20.11ZM1.77,3.7,3.42,1.23H19.55L21.19,3.7Z" transform="translate(-0.017 0)" fill="#fff"/></svg>