<svg xmlns="http://www.w3.org/2000/svg" width="19.007" height="20" viewBox="0 0 19.007 20"><path d="M19,17.53,16.75,2.33A2.38,2.38,0,0,0,14.38,0H4.62A2.38,2.38,0,0,0,2.25,2.33L0,17.53a.28.28,0,0,0,0,.09A2.39,2.39,0,0,0,2.38,20H16.62A2.39,2.39,0,0,0,19,17.62a.28.28,0,0,0,0-.09ZM4.06,18.75v-4l.63-.56.62.56v4Zm4.75,0v-4l.63-.56.62.56v4Zm4.75,0v-4l.63-.56.62.56v4Zm3.06,0h-.56V14.47a.6.6,0,0,0-.21-.46L14.6,12.89a.63.63,0,0,0-.83,0L12.52,14a.64.64,0,0,0-.21.46v4.28h-1V14.47A.6.6,0,0,0,11.1,14L9.85,12.89a.63.63,0,0,0-.83,0L7.77,14a.64.64,0,0,0-.21.46v4.28h-1V14.47A.6.6,0,0,0,6.35,14L5.1,12.89a.63.63,0,0,0-.83,0L3,14a.64.64,0,0,0-.21.46v4.28H2.38a1.13,1.13,0,0,1-1.13-1.08L3.49,2.47a.28.28,0,0,0,0-.09A1.12,1.12,0,0,1,4.62,1.25h9.76A1.12,1.12,0,0,1,15.5,2.38a.28.28,0,0,0,0,.09l2.24,15.2a1.13,1.13,0,0,1-1.12,1.08Z" transform="translate(0.004)" fill="#fff"/></svg>