<svg xmlns="http://www.w3.org/2000/svg" width="16.568" height="20" viewBox="0 0 16.568 20"><path d="M7,3H3.58A.62.62,0,0,0,3,3.58V7a.61.61,0,0,0,.62.61H7A.61.61,0,0,0,7.65,7V3.58A.61.61,0,0,0,7,3ZM6.42,6.42H4.2V4.2H6.42ZM7,8.64H3.58A.62.62,0,0,0,3,9.26v3.46a.61.61,0,0,0,.62.61H7a.61.61,0,0,0,.61-.61V9.26A.61.61,0,0,0,7,8.64ZM6.42,12.1H4.2V9.88H6.42ZM13,3H9.51a.62.62,0,0,0-.62.62V7a.61.61,0,0,0,.62.61H13A.61.61,0,0,0,13.58,7V3.58A.62.62,0,0,0,13,3Zm-.61,3.46H10.12V4.2h2.23ZM13,8.64H9.51a.62.62,0,0,0-.62.62v3.46a.61.61,0,0,0,.62.61H13a.61.61,0,0,0,.62-.61V9.26A.62.62,0,0,0,13,8.64Zm-.61,3.46H10.12V9.88h2.23ZM14.22,0H2.12A2.17,2.17,0,0,0,0,2.35v15.3A2.17,2.17,0,0,0,2.12,20H6.05a.62.62,0,0,0,.62-.62v-2c0-.19,0-1.11.89-1.11H9.28c.78,0,.84.85.84,1.11v2a.62.62,0,0,0,.62.62H14a2.53,2.53,0,0,0,2.56-2.35V2.35A2.33,2.33,0,0,0,14.22,0Zm1.09,17.65A1.32,1.32,0,0,1,14,18.77H11.36V17.41a2.13,2.13,0,0,0-2.08-2.35H7.56a2.17,2.17,0,0,0-2.13,2.35v1.36H2.12c-.84,0-.89-.93-.89-1.12V2.35c0-.19.05-1.12.89-1.12h12.1a1.09,1.09,0,0,1,1.09,1.12Z" transform="translate(0.008 0)" fill="#fff"/></svg>