<svg xmlns="http://www.w3.org/2000/svg" width="21" height="21" viewBox="0 0 21 21"><path d="M-10.5-12.562A.564.564,0,0,0-9.937-12h1.875a.564.564,0,0,0,.563-.562V-16.5h3.938A.564.564,0,0,0-3-17.062v-1.875a.564.564,0,0,0-.562-.562H-9.375A1.122,1.122,0,0,0-10.5-18.375ZM3-18.937v1.875a.564.564,0,0,0,.563.563H7.5v3.938A.564.564,0,0,0,8.063-12H9.938a.564.564,0,0,0,.563-.562v-5.812A1.122,1.122,0,0,0,9.375-19.5H3.563A.564.564,0,0,0,3-18.937ZM9.938-6H8.063a.564.564,0,0,0-.562.563V-1.5H3.563A.564.564,0,0,0,3-.937V.938a.564.564,0,0,0,.563.563H9.375A1.122,1.122,0,0,0,10.5.375V-5.437A.564.564,0,0,0,9.938-6ZM-3,.938V-.937A.564.564,0,0,0-3.562-1.5H-7.5V-5.437A.564.564,0,0,0-8.062-6H-9.937a.564.564,0,0,0-.562.563V.375A1.122,1.122,0,0,0-9.375,1.5h5.813A.564.564,0,0,0-3,.938Z" transform="translate(10.5 19.5)" fill="#685199"/></svg>