<svg xmlns="http://www.w3.org/2000/svg" width="29.063" height="29.063" viewBox="0 0 29.063 29.063"><path d="M-14.531-11.25A14.529,14.529,0,0,0,0,3.281,14.529,14.529,0,0,0,14.531-11.25,14.529,14.529,0,0,0,0-25.781,14.529,14.529,0,0,0-14.531-11.25Zm26.25,0A11.716,11.716,0,0,1,0,.469,11.716,11.716,0,0,1-11.719-11.25,11.716,11.716,0,0,1,0-22.969,11.716,11.716,0,0,1,11.719-11.25ZM7.5-12.422a.705.705,0,0,0-.7-.7H0v-3.926a.7.7,0,0,0-1.2-.5l-5.8,5.8a.7.7,0,0,0,0,1l5.8,5.8a.7.7,0,0,0,1.2-.5V-9.375H6.8a.705.705,0,0,0,.7-.7Z" transform="translate(14.531 25.781)" fill="#685199"/></svg>