<svg xmlns="http://www.w3.org/2000/svg" xmlns:xlink="http://www.w3.org/1999/xlink" width="203.276" height="202.787" viewBox="0 0 203.276 202.787"><defs><linearGradient id="a" x1="1.099" y1="0.474" x2="0.578" y2="0.497" gradientUnits="objectBoundingBox"><stop offset="0" stop-color="#ee938e"/><stop offset="1" stop-color="#ffaca4"/></linearGradient><linearGradient id="b" x1="0" y1="0.5" x2="1" y2="0.5" xlink:href="#a"/><linearGradient id="c" x1="-0.592" y1="0.318" x2="2.741" y2="0.943" gradientUnits="objectBoundingBox"><stop offset="0" stop-color="#3b1562"/><stop offset="1" stop-color="#180c30"/></linearGradient><linearGradient id="d" x1="0.563" y1="0.129" x2="0.534" y2="0.298" xlink:href="#a"/><linearGradient id="e" x1="-5.05" y1="-0.198" x2="0.968" y2="0.572" xlink:href="#c"/><linearGradient id="f" x1="0.71" y1="-1.139" x2="0.614" y2="-0.431" xlink:href="#a"/><linearGradient id="g" x1="0.822" y1="-0.313" x2="-0.08" y2="2.082" gradientUnits="objectBoundingBox"><stop offset="0"/><stop offset="1" stop-color="#180c30"/></linearGradient><linearGradient id="h" x1="0.895" y1="-0.6" x2="0.487" y2="0.536" xlink:href="#a"/><linearGradient id="i" x1="0.705" y1="-0.002" x2="0.472" y2="0.569" xlink:href="#a"/><linearGradient id="k" x1="2.092" y1="0.442" x2="0.788" y2="0.489" xlink:href="#a"/></defs><g transform="translate(-442.793 -1576.832)"><g transform="translate(511.252 1632.462)"><path d="M266.041,233.56a26.187,26.187,0,1,1,26.187-26.187A26.216,26.216,0,0,1,266.041,233.56Zm0-49.637a23.45,23.45,0,1,0,23.449,23.449A23.477,23.477,0,0,0,266.041,183.924Z" transform="translate(-239.854 -181.187)" fill="#4d4d4d"/><path d="M240.508,235.119A23.016,23.016,0,1,0,263.523,212.1,23.015,23.015,0,0,0,240.508,235.119Zm18.786-13.1a4.229,4.229,0,1,1,4.229,4.229A4.229,4.229,0,0,1,259.294,222.015Z" transform="translate(-239.645 -171.311)" fill="#4d4d4d"/><path d="M254.345,297.275l7.018,6c2.169,1.857,5-.247,5-3.713V235.038H252.058v56.627A7.425,7.425,0,0,0,254.345,297.275Z" transform="translate(-235.955 -163.984)" fill="#4d4d4d"/><rect width="8.39" height="20.251" transform="translate(32.36 107.965) rotate(180)" fill="#4d4d4d"/><rect width="8.39" height="20.251" transform="translate(32.36 132.555) rotate(180)" fill="#4d4d4d"/></g><g transform="translate(554.536 1577.857)"><path d="M310.675,289.338a8.262,8.262,0,0,0,.146-2.668s-13.416.136-14.529.676a3.68,3.68,0,0,0-1.381,1.992Z" transform="translate(-265.55 -87.575)"/><path d="M336.4,289.338a8.264,8.264,0,0,0,.146-2.668s-13.416.136-14.529.676a3.671,3.671,0,0,0-1.38,1.992Z" transform="translate(-257.331 -87.575)"/><path d="M278.578,198.677c-2.919.307-5.554-1.467-5.885-3.966s1.767-4.774,4.685-5.081,5.554,1.469,5.884,3.966S281.5,198.369,278.578,198.677Z" transform="translate(-272.659 -118.587)" fill="url(#a)"/><path d="M281.1,189.839l-2.7-.156.406,8.749s2.525.34,2.507-.062S281.1,189.839,281.1,189.839Z" transform="translate(-270.826 -118.559)" fill="#fff"/><path d="M316.6,166.584s-8.512,2.772-9.2,3.972c-.852,1.591.078,4.2.078,4.2l3.467.339.482-.748,3.018-1.953,1.367-2.23Z" transform="translate(-261.675 -125.938)" fill="#fff"/><path d="M316.051,169.987c-2.156,4.407-4.175,8.8-6.362,13.192l-3.3,6.566-1.659,3.241-.829,1.583c-.274.516-.55,1.029-.8,1.474l-.162.289c-.044.081-.084.144-.03.078.034-.045.07-.09.107-.132.066-.083.152-.183.232-.269l.125-.131.133-.131c.084-.082.172-.161.26-.236s.181-.15.274-.22l.22-.16q.17-.117.348-.222l.164-.091.109-.058c.074-.038.148-.075.223-.109a4.94,4.94,0,0,1,.517-.2l.149-.046.111-.029.123-.028.059-.009a1.639,1.639,0,0,1-.393.081c-.215.03-.462.061-.722.087-1.048.108-2.229.183-3.406.248-2.367.124-4.8.2-7.229.264-4.866.121-9.788.178-14.666.2l-.33,10.713c4.977.3,9.912.569,14.9.772,2.5.1,5,.182,7.558.215,1.288.013,2.572.018,3.984-.032.355-.013.722-.03,1.122-.059s.818-.063,1.42-.16l.245-.042.285-.058c.092-.02.231-.054.348-.084l.22-.061.113-.034.146-.047a7.055,7.055,0,0,0,.732-.288l.274-.135.136-.071.187-.107c.136-.079.268-.164.4-.252.057-.038.129-.088.244-.175s.2-.157.3-.239.191-.168.282-.255l.153-.152.164-.174c.106-.115.218-.244.307-.356l.247-.317c.232-.318.362-.511.483-.691l.326-.495c.393-.61.736-1.161,1.075-1.714l.991-1.633,1.922-3.23,3.756-6.431c2.486-4.288,4.945-8.569,7.4-12.875Z" transform="translate(-270.53 -124.851)" fill="#fff"/><path d="M33.452,100.462,20.806,35.785a27.958,27.958,0,0,0-.723,12.9c3.676,19.594-9.282,32.155-15.192,51.95L0,100.461l6.55-80.6-.016-.012L7.417,8.816l.031,0L8.165,0l2.73.023a4.99,4.99,0,0,0,1,.688,13.973,13.973,0,0,0,2.231.921l-.034-.173L25.414.1,38.5.233s.86,7.261.959,12.869q.554-.1,1.087-.243c0,.044,0,.09,0,.133-.034.919-1.46,5.64-1.535,7.17l-.123.047c-1.11,6.76-3.3,18.9.655,28.146,8.187,15.855-.9,31.832-1.143,52.282Z" transform="translate(40.286 98.747)" stroke="rgba(0,0,0,0)" stroke-miterlimit="10" stroke-width="1"/><path d="M329.977,166.863H318a9.263,9.263,0,0,0-9.491,10.275l1.92,24.962-2.233,36.219a20.237,20.237,0,0,0,6.625,3.486c1.569-3.069,3.238-6.707,3.238-6.707l3.107,7.873c11.335.806,22.86-4.261,22.86-4.261l-5.932-44.153,2.5-17.215A10.913,10.913,0,0,0,329.977,166.863Z" transform="translate(-261.307 -125.849)" fill="#fff"/><path d="M327.894,167.278s9.343,3.5,10.55,4.634,1.1,12.033,1.1,12.033S334.8,208.373,335.2,212.29c-2.058,2.975-8.893-7.451-9.115-11.136a39.989,39.989,0,0,0-1.325-7.51l.534-9.513,3.09-6.289Z" transform="translate(-256.015 -125.716)" fill="#fff"/><path d="M312.736,168.68l.157,8.121s1.726,9.862,1.775,9.922,2.185,5.337,2.185,5.337l1.706-1.521s4.362-4.592,4.536-5.323,1.19-7.842,2.775-9.618,4.791-4.761,4.824-5.2-.674-1.279-.674-1.279-.755-1.41-1.645-1.41-4.916.574-5.389.574-1.525.07-2.238,0-1.528-.1-1.528-.1Z" transform="translate(-259.856 -125.579)" fill="#fff"/><path d="M318.33,170.868l-3.435,18.268,1.268,1.914,2.069-1.755,1.612-18.205Z" transform="translate(-259.166 -124.569)"/><path d="M315.36,158.857l.47,12.6a3.259,3.259,0,0,0,2.358,3c2.585.718,6.869.834,10.207-4.385-.959-3.031-.982-12.733-.982-12.733l-2.874-.524h-4.268Z" transform="translate(-259.018 -129.058)" fill="url(#b)"/><path d="M316.2,163.893c3.318-.963,6.892-1.575,9.115-4.474a6.744,6.744,0,0,0,1.181-2.326l.872.158s.012,4.866.359,8.782a6.818,6.818,0,0,1-6.4,4.336h-4.858a6.433,6.433,0,0,1-.718-.041l-.235-6.3A4.894,4.894,0,0,0,316.2,163.893Z" transform="translate(-258.97 -128.97)" opacity="0.5" style="mix-blend-mode:overlay;isolation:isolate"/><path d="M313.318,156.588c-.227-1.111-4.776-4.569-3.482-12.535,6,.556,5.583,2.655,5.651,2.839s1.222,2.965,1.222,2.965Z" transform="translate(-260.856 -133.136)" fill="url(#c)"/><path d="M318.257,169.978h4.257a6.76,6.76,0,0,0,6.8-7.068l-.611-18.424H317.4a6.35,6.35,0,0,0-6.393,6.641l.379,12.23A6.929,6.929,0,0,0,318.257,169.978Z" transform="translate(-260.409 -132.997)" fill="url(#d)"/><path d="M312.6,158.244c-.044-1.593,1.453.154,3.239.189s3.189-1.659,3.233-.066a2.911,2.911,0,0,1-3.157,2.824A3.253,3.253,0,0,1,312.6,158.244Z" transform="translate(-259.9 -128.816)" fill="#fff"/><path d="M324.131,158.236s-4.073-3.106-1.776-10.166c2.3,4.382,2.312,3.977,2.3,4.382s.933,5.68.933,5.68Z" transform="translate(-257.007 -131.852)" fill="url(#e)"/><path d="M330.954,159.756s4.54-8.211,3.993-10.565-3.251-5.569-7.081-5.11c-.863-1.608-14.1-14.786-18.7-4.263s3.354,11.383,4.565,11.556,7.931-2.871,10.416-.92,4.792,9.934,4.792,9.934Z" transform="translate(-261.452 -135.779)"/><path d="M323.94,153.8s3.131-1.7,4.473.507-.715,5.056-2.149,4.976-2.929-2.822-3.006-3.817A2.185,2.185,0,0,1,323.94,153.8Z" transform="translate(-256.496 -130.222)" fill="url(#f)"/><path d="M315.3,168.835s2.062,3.958,4.01,3.958,4.593-3.309,4.593-3.309l-4.613-1.586h-1.677Z" transform="translate(-259.038 -125.518)"/><path d="M319.868,168.533l-3.6,4.076-2.784-5.057,2.8-1.641Z" transform="translate(-259.618 -126.153)" fill="#fff"/><path d="M318.322,168.533l3.895,4.494,7.734-5.313-2.895-1.8Z" transform="translate(-258.072 -126.153)" fill="#fff"/><path d="M315.457,166.584l2.07,25.835s-5.605-7.937-5.617-8.2a31.769,31.769,0,0,1,1.474-3.1l-2.762-12.809Z" transform="translate(-260.531 -125.938)" fill="url(#g)"/><path d="M333.274,222.152a2.72,2.72,0,0,1,3.869-.309,2.82,2.82,0,0,1,.005,3.939,2.719,2.719,0,0,1-3.869.309A2.82,2.82,0,0,1,333.274,222.152Z" transform="translate(-253.55 -108.499)" fill="url(#h)"/><path d="M334.01,224.692c.132-3.057,2.375-5.291,5.013-4.993s4.668,3.02,4.536,6.076-2.375,5.291-5.013,4.992S333.88,227.748,334.01,224.692Z" transform="translate(-253.062 -108.978)" fill="url(#i)"/><g transform="translate(71.726 44.117)"><path d="M334.607,218.944l-.6,2.88,9.554,1.853s.777-2.644.336-2.73S334.607,218.944,334.607,218.944Z" transform="translate(-324.788 -153.328)" fill="#fff"/><path d="M336.37,235.872l10.009,1.941c1.577-13.832-.76-66.406-11.386-68.271-2.4-.422-12.164-2.628-5.922,14.153C330.373,187.19,339,224.594,336.37,235.872Z" transform="translate(-327.019 -169.214)" fill="#fff"/></g><g transform="translate(56.59 66.476)"><path d="M315.863,228.947l-.315-.03c.745-29.427.255-42.628.249-42.757l.314.011C316.117,186.3,316.609,199.51,315.863,228.947Z" transform="translate(-315.548 -186.16)"/></g><path d="M331.546,213.408l-8.116-1.714a.46.46,0,0,1-.362-.5l.154-1.071a.39.39,0,0,1,.479-.325l8.116,1.714a.46.46,0,0,1,.361.5l-.154,1.071A.391.391,0,0,1,331.546,213.408Z" transform="translate(-256.557 -112.137)"/><path d="M314.614,209.7a.437.437,0,0,0-.5-.31l-5.226,1.137-.125,2.045,5.894-1.284a.374.374,0,0,0,.276-.479Z" transform="translate(-261.126 -112.265)"/><path d="M329.494,166.7l-13.646,25.641s9.161-7.877,9.29-8.138a23.091,23.091,0,0,0-.084-3.077l8.162-12.206Z" transform="translate(-258.862 -125.901)" fill="url(#g)"/></g><circle cx="2.123" cy="2.123" r="2.123" transform="translate(557.281 1649.751)" fill="url(#k)"/><path d="M226.488,149.962a6.535,6.535,0,0,0-2.114-.926c-1.372-5.323-5.142-9.152-9.59-9.152-3.483,0-6.555,2.347-8.384,5.922h0c-.193.395-10.966,18.7-9.567,26.435s25.7,41.649,38.188,20.243S228.625,151.849,226.488,149.962Z" transform="translate(257.614 1438.081)"/><path d="M213.631,169.9s9.491,34.331,12.648,35.931,26.318-2.834,27.713-3.531,4.036,1.069,6.006-4.469a3.033,3.033,0,0,0-1.794-4.162,5.931,5.931,0,0,0-7.562,2.47,3.825,3.825,0,0,1-.945,1.141c-1.123.743-18.123-1.317-18.794-1.668s-4.439-20.456-5.247-21.709S213.631,169.9,213.631,169.9Z" transform="translate(263.02 1447.668)" fill="#ff9e80"/><g transform="translate(481.087 1767.306)"><path d="M222.363,283.383l-.323,5.98-3.9-.552-.31-4.39Z" transform="translate(-216.726 -283.383)" fill="#ff9e80"/><path d="M223.846,291.129a9.82,9.82,0,0,1,2.116,2.3c.1.46-3.432.265-4.068,0a39.173,39.173,0,0,1-4.586-3.91,2.585,2.585,0,0,1,.84-2.072C218.686,287.142,223.846,291.129,223.846,291.129Z" transform="translate(-216.906 -282.09)" fill="#000001"/><path d="M218.072,287.441c1.05.23,5.522,3.685,5.522,3.685l.048.03a1.434,1.434,0,0,1-1.318.352C221.273,291.369,217.8,289.7,218.072,287.441Z" transform="translate(-216.653 -282.087)" fill="#ff9e80"/><path d="M221.963,288.164a3.875,3.875,0,0,0,1.013,2.593,1.392,1.392,0,0,1-1.021.2l-1.727-1.073-.682-.9-1.478-1.442.647-.292.249-.029h.137l1.578.185.775-.265Z" transform="translate(-216.65 -282.184)" fill="#ff9e80"/><path d="M217.361,288.757s-.032,3.753-.368,4.078l.834.016a32.386,32.386,0,0,1,.342-3.783C218.18,288.741,217.361,288.757,217.361,288.757Z" transform="translate(-216.993 -281.666)" fill="#000001"/></g><path d="M214.748,263.514c-6.906,13.179,3.982,42.6,4.919,46.816h5.051l.416-95.074S206.155,195.9,210.893,229.73C212.107,238.4,209.592,257.29,214.748,263.514Z" transform="translate(261.903 1460.398)"/><path d="M190.976,289.358a5.366,5.366,0,0,1-.207,1.264h3.1l2.346-6.207-3.962-1.019-1.28,5.961Z" transform="translate(255.717 1483.927)" fill="#ff9e80"/><path d="M204.367,263.054c-15.774,5.24-12.866,43.952-13.266,48.651l5.15.045,29.524-91.672s-5.539-34.846-19.945-1.236C200.24,231.88,201.192,249.892,204.367,263.054Z" transform="translate(255.823 1458.633)"/><path d="M194.556,287.73c-.158,0-3.308.193-3.308.193l-1.334,2.545a5.249,5.249,0,0,1,.458,1.825,4.337,4.337,0,0,0,1.751.318c2.221,0,3.121-.776,3.015-1.11S194.714,287.73,194.556,287.73Z" transform="translate(255.444 1485.311)" fill="#ff9e80"/><path d="M189.2,293.219h6.453s.128-3.409-.55-4.338a2.392,2.392,0,0,1-2.5,2.234c-2.4,0-1.817-1.987-1.83-2.218C190.749,288.561,189.2,291.676,189.2,293.219Z" transform="translate(255.216 1485.676)"/><path d="M203.128,231.2c1.356-.259,21.14,5.472,25.455-.606.247-7.756-1.389-31.695-1.143-34.281s5.076-6.27,4.952-9.114-4.729-20.642-6.085-22.064-17.877-.388-20.589,0-4.563,7.24-4.563,7.24,6.781,25.187,7.645,26.751S203.128,231.2,203.128,231.2Z" transform="translate(259.035 1445.915)" fill="#fff"/><path d="M224.554,164.782c-3.673-.87-17.318,0-19.762.352a2.065,2.065,0,0,0-.742.269c2.111,1.936,7.27,6.038,13.288,6.241C221.98,171.8,223.822,167.967,224.554,164.782Z" transform="translate(259.96 1445.915)" fill="#ff9e80"/><g transform="translate(463.813 1610.631)"><path d="M217.666,171.868c-.1,0-.19,0-.288-.005-6.174-.208-11.482-4.487-13.477-6.318l.4-.431c1.948,1.785,7.122,5.961,13.1,6.163,4.4.137,6.2-3.526,6.919-6.636l.571.132C224.14,168.029,222.278,171.868,217.666,171.868Z" transform="translate(-203.901 -164.641)" fill="#fff"/></g><path d="M208.309,165.728s-20.942,28.2-20.326,31.821,17.631,20.685,18.987,21.461,1.542,4.053,6.975,2.478c2.139-.62,2.5-2.235,2.161-3.966a6.128,6.128,0,0,0-6.344-4.972,3.511,3.511,0,0,1-1.436-.133c-1.234-.517-9.493-15.385-9.616-16.159s13.068-16.549,13.561-17.971S208.309,165.728,208.309,165.728Z" transform="translate(254.823 1446.337)" fill="#ff9e80"/><path d="M204.238,185.012c2.6-3.285,4.786-6.174,5.03-6.725,3.134-7.059-3.962-12.559-3.962-12.559s-3.693,4.974-7.933,11.012C198.8,178.6,201.975,182.36,204.238,185.012Z" transform="translate(257.826 1446.337)" fill="#fff"/><path d="M243.038,188.9c.071-.2,1.056-1.919,2.007-2.268s2.287.648,2.287.648-3.221,5.32-3.655,4.568A11.02,11.02,0,0,1,243.038,188.9Z" transform="translate(272.415 1452.99)" fill="#ff9e80"/><path d="M210.068,153.252s-1.284,14.217-2.326,15.732c1.764,3.869,5.92,4.423,8.809,4.423s3.384-2.994,2.983-4.676-4.412-2.355-2.487-17.161C210.87,150.476,210.068,153.252,210.068,153.252Z" transform="translate(261.139 1441.732)" fill="#ff9e80"/><path d="M218.365,167.539c-1.2-1.557-3.23-4.581-1.75-15.969-6.176-1.094-6.979,1.682-6.979,1.682s-.174,2.309-.545,5.546a15.41,15.41,0,0,0,6.7,8.218A3.258,3.258,0,0,0,218.365,167.539Z" transform="translate(261.57 1441.732)" opacity="0.3" style="mix-blend-mode:overlay;isolation:isolate"/><path d="M208.3,152.83c-1,6.919,5.438,14.414,9.336,14.414,3.8,0,5.336-5.013,6.333-11.932s-1.7-13.085-6.03-13.77S209.291,145.911,208.3,152.83Z" transform="translate(261.283 1438.591)" fill="#ff9e80"/><path d="M227.794,149.945c-1.367,1.951-2.545-.994-3.271-3.357a10.347,10.347,0,0,0-.517-1.793,2.659,2.659,0,0,0-.226-.668l-.061.032a8.9,8.9,0,0,0-5.278-4.338c-7.134-2.64-11.21,2.011-11.462,3.6s-.624,11.454.048,11.807A32.04,32.04,0,0,1,210,157.64c.755-.792,1.029-8.105,2.457-9.338.847-.731,4.79-.121,7.964,1.67a10.7,10.7,0,0,0,1.641,4.606C224.456,158.032,229.823,151.506,227.794,149.945Z" transform="translate(260.789 1437.807)"/><path d="M207.233,154.145c.592,1.8,1.959,2.932,3.053,2.535s1.5-2.174.905-3.972-1.959-2.931-3.053-2.535S206.641,152.348,207.233,154.145Z" transform="translate(260.889 1441.342)" fill="#ff9e80"/><g transform="translate(478.576 1599.658)"><path d="M215.544,156.325a.476.476,0,0,0-.389.719,2.951,2.951,0,0,0,2.5,1.7,2.443,2.443,0,0,0,2.354-1.765.474.474,0,0,0-.42-.656Z" transform="translate(-215.09 -156.325)" fill="#fff"/></g></g></svg>