<svg xmlns="http://www.w3.org/2000/svg" width="18" height="17.086" viewBox="0 0 18 17.086"><path d="M18,20.559a1.619,1.619,0,0,0-.509-1.176,1.7,1.7,0,0,0-1.178-.476H3.34V15.982a2.031,2.031,0,0,1,.52-1.38,1.624,1.624,0,0,1,1.2-.548,1.633,1.633,0,0,1,1.653,1.2H6.469a.527.527,0,0,0,0,1.055H8.156a.527.527,0,0,0,0-1.055H7.794a2.688,2.688,0,0,0-.774-1.485A2.794,2.794,0,0,0,5.063,13a2.667,2.667,0,0,0-1.98.89,3.082,3.082,0,0,0-.8,2.092v2.924h-.6a1.7,1.7,0,0,0-1.178.476,1.612,1.612,0,0,0,0,2.352,1.71,1.71,0,0,0,.651.392v3.11a3.7,3.7,0,0,0,2.25,3.4v.924a.527.527,0,1,0,1.055,0v-.651a3.718,3.718,0,0,0,.387.02h8.3a3.718,3.718,0,0,0,.387-.02v.651a.527.527,0,1,0,1.055,0v-.924a3.7,3.7,0,0,0,2.25-3.4v-3.11a1.71,1.71,0,0,0,.651-.392A1.619,1.619,0,0,0,18,20.559Zm-2.215,4.678a2.64,2.64,0,0,1-2.637,2.637h-8.3a2.64,2.64,0,0,1-2.637-2.637V22.211h13.57Zm.527-4.08H1.688a.6.6,0,1,1,0-1.2H16.313a.6.6,0,1,1,0,1.2Z" transform="translate(0 -13)"/></svg>