<svg xmlns="http://www.w3.org/2000/svg" width="16" height="13.822" viewBox="0 0 16 13.822"><path d="M14.181,40.932V36.484a1.642,1.642,0,0,0-1.641-1.641H3.46A1.642,1.642,0,0,0,1.82,36.484v4.449A2.379,2.379,0,0,0,0,43.241v3.318a.477.477,0,0,0,.477.477H1.819v1.153a.477.477,0,1,0,.953,0V47.036H13.227v1.153a.477.477,0,1,0,.953,0V47.036h1.343A.477.477,0,0,0,16,46.559V43.241A2.378,2.378,0,0,0,14.181,40.932ZM2.773,36.484A.688.688,0,0,1,3.46,35.8h9.08a.688.688,0,0,1,.687.687v4.383H11.652v-.752a2.262,2.262,0,0,0-2.26-2.26H6.608a2.262,2.262,0,0,0-2.26,2.26v.752H2.773ZM10.7,40.114v.752H5.3v-.752a1.308,1.308,0,0,1,1.306-1.306H9.392A1.308,1.308,0,0,1,10.7,40.114ZM.953,46.083V43.241a1.423,1.423,0,0,1,1.421-1.421h11.25a1.423,1.423,0,0,1,1.421,1.421v2.842Z" transform="translate(0 -34.843)"/></svg>