<svg xmlns="http://www.w3.org/2000/svg" xmlns:xlink="http://www.w3.org/1999/xlink" width="66" height="66" viewBox="0 0 66 66"><defs><filter id="a" x="0" y="0" width="66" height="66" filterUnits="userSpaceOnUse"><feOffset dy="1" input="SourceAlpha"/><feGaussianBlur stdDeviation="1" result="b"/><feFlood flood-opacity="0.251"/><feComposite operator="in" in2="b"/><feComposite in="SourceGraphic"/></filter><clipPath id="c"><rect width="39.133" height="39.232" fill="none"/></clipPath></defs><g transform="translate(-1480 -444)"><g transform="matrix(1, 0, 0, 1, 1480, 444)" filter="url(#a)"><circle cx="30" cy="30" r="30" transform="translate(3 2)" fill="#fff"/></g><g transform="translate(1493.667 456.667)"><g clip-path="url(#c)"><path d="M18.867,0h1.377c.593.06,1.188.1,1.778.184a18.907,18.907,0,0,1,8.064,2.947,19.307,19.307,0,0,1,8.886,14.358c.058.479.108.958.162,1.438v1.379c-.03.2-.065.4-.089.6-.088.746-.13,1.5-.266,2.236a19.1,19.1,0,0,1-4.587,9.434,19.166,19.166,0,0,1-12.475,6.491c-.491.056-.982.11-1.472.165H18.867c-.174-.029-.348-.059-.523-.086a36.448,36.448,0,0,1-3.754-.611A19.1,19.1,0,0,1,2.4,28.976,19.059,19.059,0,0,1,.329,16.1,18.875,18.875,0,0,1,4.992,6.572,19.184,19.184,0,0,1,17.394.165c.491-.056.982-.11,1.474-.165m.7,7.265c-.793.1-1.595.152-2.378.3A12.2,12.2,0,0,0,8.554,24.756a1.067,1.067,0,0,1,.068.616c-.376,1.9-.775,3.789-1.16,5.685-.141.693.122.942.8.781,1.841-.437,3.681-.882,5.525-1.3a1.152,1.152,0,0,1,.68.07,12.212,12.212,0,1,0,5.1-23.34" transform="translate(0)" fill="#54a200"/><path d="M99.6,116.44c.229-1.114.432-2.163.666-3.2a1.322,1.322,0,0,0-.123-1.015,8.651,8.651,0,0,1-1.127-3.307,9.218,9.218,0,0,1,4.267-9.338A9.473,9.473,0,1,1,110,116.887a9.3,9.3,0,0,1-6.028-.967,1.77,1.77,0,0,0-1.407-.156c-.869.238-1.752.427-2.63.634-.094.022-.192.025-.343.043m11.964-2.9a11.622,11.622,0,0,0,1.16-.192,3.545,3.545,0,0,0,1.926-1.6.971.971,0,0,0-.587-1.661,11.85,11.85,0,0,1-1.427-.409,1.6,1.6,0,0,0-2.114.531.764.764,0,0,1-1.123.2,12.191,12.191,0,0,1-3.78-3.342.807.807,0,0,1,.026-1.12,2.894,2.894,0,0,0,.447-.615,1.4,1.4,0,0,0,.111-.862,25.069,25.069,0,0,0-1.012-2.307.86.86,0,0,0-1.382-.285,7.027,7.027,0,0,0-.86.865,2.883,2.883,0,0,0-.714,2.039,5.676,5.676,0,0,0,.825,2.75,14.338,14.338,0,0,0,4.9,4.84,7.289,7.289,0,0,0,3.6,1.166" transform="translate(-88.824 -88.029)" fill="#54a200"/></g></g></g></svg>