<svg xmlns="http://www.w3.org/2000/svg" width="45" height="45" viewBox="0 0 45 45">
  <g id="Caminho_244" data-name="Caminho 244" fill="none">
    <path d="M5,0H40a5,5,0,0,1,5,5V40a5,5,0,0,1-5,5H5a5,5,0,0,1-5-5V5A5,5,0,0,1,5,0Z" stroke="none"/>
    <path d="M 5 2 C 3.345790863037109 2 2 3.345790863037109 2 5 L 2 40 C 2 41.65420913696289 3.345790863037109 43 5 43 L 40 43 C 41.65420913696289 43 43 41.65420913696289 43 40 L 43 5 C 43 3.345790863037109 41.65420913696289 2 40 2 L 5 2 M 5 0 L 40 0 C 42.76142120361328 0 45 2.238571166992188 45 5 L 45 40 C 45 42.76142120361328 42.76142120361328 45 40 45 L 5 45 C 2.238571166992188 45 0 42.76142120361328 0 40 L 0 5 C 0 2.238571166992188 2.238571166992188 0 5 0 Z" stroke="none" fill="#003865"/>
  </g>
</svg>
