<svg xmlns="http://www.w3.org/2000/svg" width="129.077" height="14.998" viewBox="0 0 129.077 14.998"><path d="M13,15H2a2,2,0,0,1-2-2V2A2,2,0,0,1,2,0H13a2,2,0,0,1,2,2V13A2,2,0,0,1,13,15ZM9.036,2.833a4.352,4.352,0,0,0-1.509.292,6.3,6.3,0,0,0-1.6.843A5.1,5.1,0,0,0,4.694,5.135l-.087.118a1.656,1.656,0,0,0-.141.205c-.022.032-.05.083-.086.147s-.073.132-.123.217A4.59,4.59,0,0,0,3.632,8.05a4.094,4.094,0,0,0,.032.51c.009.142.036.3.065.472l.008.048A5.619,5.619,0,0,0,4.3,10.6a5.012,5.012,0,0,0,1.436,1.634,3.694,3.694,0,0,0,1.832.7.672.672,0,0,1,.136.011,1.076,1.076,0,0,0,.187.011,3.184,3.184,0,0,0,.563-.042,6.158,6.158,0,0,0,.833-.437,9.129,9.129,0,0,0,1.03-.791l.417-.354-.114-.187a3.8,3.8,0,0,1-1.041.135,3.879,3.879,0,0,1-1.354-.249A4.078,4.078,0,0,1,6.652,9.976,4.62,4.62,0,0,1,5.7,8.216,6.161,6.161,0,0,1,5.5,7.3a5.743,5.743,0,0,1-.041-.7,3.4,3.4,0,0,1,.01-.354,2.673,2.673,0,0,1,.6-1.541,1.623,1.623,0,0,1,1.239-.552,2.427,2.427,0,0,1,.968.229,2.374,2.374,0,0,1,.531.312,1.186,1.186,0,0,1,.312.365l.365-.271c.179-.148.355-.293.531-.447.237-.2.391-.35.479-.437a.437.437,0,0,0,.157-.323.393.393,0,0,0-.125-.281,1.492,1.492,0,0,0-.573-.364A2.9,2.9,0,0,0,9.036,2.833Z" fill="#fff"/><path d="M-50.8.088a4.251,4.251,0,0,1-2.084-.512A3.763,3.763,0,0,1-54.34-1.832a3.9,3.9,0,0,1-.528-2.019,3.9,3.9,0,0,1,.528-2.018,3.753,3.753,0,0,1,1.463-1.408,4.282,4.282,0,0,1,2.09-.511,4.362,4.362,0,0,1,1.65.3,3.377,3.377,0,0,1,1.276.9l-.715.693a2.869,2.869,0,0,0-2.167-.913,3.139,3.139,0,0,0-1.551.385,2.792,2.792,0,0,0-1.083,1.062,2.97,2.97,0,0,0-.391,1.512,2.97,2.97,0,0,0,.391,1.513,2.792,2.792,0,0,0,1.083,1.062,3.139,3.139,0,0,0,1.551.385,2.875,2.875,0,0,0,2.167-.924l.715.693a3.422,3.422,0,0,1-1.281.9A4.335,4.335,0,0,1-50.8.088Zm6.4-5.973a2.637,2.637,0,0,1,1.854.594A2.293,2.293,0,0,1-41.9-3.52V0h-1V-.77a1.669,1.669,0,0,1-.753.621,2.876,2.876,0,0,1-1.16.215,2.429,2.429,0,0,1-1.568-.473A1.517,1.517,0,0,1-46.97-1.65a1.531,1.531,0,0,1,.561-1.238,2.765,2.765,0,0,1,1.782-.467h1.672v-.209a1.346,1.346,0,0,0-.4-1.045,1.67,1.67,0,0,0-1.166-.363,3.087,3.087,0,0,0-1.012.17,2.607,2.607,0,0,0-.836.457l-.44-.792a3.193,3.193,0,0,1,1.078-.556A4.511,4.511,0,0,1-44.4-5.885Zm-.242,5.137a1.962,1.962,0,0,0,1.045-.27,1.542,1.542,0,0,0,.638-.765V-2.6h-1.628q-1.342,0-1.342.9A.816.816,0,0,0-45.584-1,1.559,1.559,0,0,0-44.638-.748Zm6.369.814a4.886,4.886,0,0,1-1.375-.193,3.019,3.019,0,0,1-1.034-.489l.44-.836a3.158,3.158,0,0,0,.935.44,3.847,3.847,0,0,0,1.111.165q1.386,0,1.386-.792a.513.513,0,0,0-.187-.418,1.184,1.184,0,0,0-.468-.225q-.281-.072-.8-.16a7.815,7.815,0,0,1-1.15-.253,1.772,1.772,0,0,1-.764-.484,1.347,1.347,0,0,1-.319-.957,1.5,1.5,0,0,1,.66-1.271,2.956,2.956,0,0,1,1.771-.478,4.879,4.879,0,0,1,1.166.143,3.136,3.136,0,0,1,.957.385l-.451.836a3.032,3.032,0,0,0-1.683-.462,1.945,1.945,0,0,0-1.023.22.664.664,0,0,0-.352.583.556.556,0,0,0,.2.451,1.252,1.252,0,0,0,.489.242q.291.077.819.176a8.894,8.894,0,0,1,1.139.259,1.7,1.7,0,0,1,.743.467,1.3,1.3,0,0,1,.308.924A1.457,1.457,0,0,1-36.427-.4,3.2,3.2,0,0,1-38.269.066Zm5.962-5.951a2.637,2.637,0,0,1,1.854.594A2.294,2.294,0,0,1-29.81-3.52V0h-1V-.77a1.669,1.669,0,0,1-.753.621,2.876,2.876,0,0,1-1.16.215,2.429,2.429,0,0,1-1.568-.473,1.517,1.517,0,0,1-.589-1.243,1.531,1.531,0,0,1,.561-1.238,2.765,2.765,0,0,1,1.782-.467h1.672v-.209a1.346,1.346,0,0,0-.4-1.045,1.67,1.67,0,0,0-1.166-.363,3.087,3.087,0,0,0-1.012.17,2.607,2.607,0,0,0-.836.457l-.44-.792a3.193,3.193,0,0,1,1.078-.556A4.511,4.511,0,0,1-32.307-5.885Zm-.242,5.137a1.962,1.962,0,0,0,1.045-.27,1.542,1.542,0,0,0,.638-.765V-2.6h-1.628q-1.342,0-1.342.9A.816.816,0,0,0-33.5-1,1.559,1.559,0,0,0-32.549-.748Zm7.095.836a5.27,5.27,0,0,1-1.677-.27A3.445,3.445,0,0,1-28.4-.88L-28-1.738a3.37,3.37,0,0,0,1.128.643,4.143,4.143,0,0,0,1.413.248,2.546,2.546,0,0,0,1.43-.325,1,1,0,0,0,.473-.863.851.851,0,0,0-.258-.644,1.729,1.729,0,0,0-.638-.38q-.38-.132-1.073-.3a11.052,11.052,0,0,1-1.4-.418,2.319,2.319,0,0,1-.913-.643,1.718,1.718,0,0,1-.379-1.172A1.982,1.982,0,0,1-27.891-6.7a2.229,2.229,0,0,1,.985-.792,3.993,3.993,0,0,1,1.639-.3,5.187,5.187,0,0,1,1.342.176,3.57,3.57,0,0,1,1.133.506l-.363.88a3.982,3.982,0,0,0-1.034-.467,3.859,3.859,0,0,0-1.078-.16,2.375,2.375,0,0,0-1.4.341,1.044,1.044,0,0,0-.468.88.842.842,0,0,0,.264.643,1.831,1.831,0,0,0,.655.385,10.226,10.226,0,0,0,1.062.291,10.752,10.752,0,0,1,1.4.418,2.352,2.352,0,0,1,.907.638,1.68,1.68,0,0,1,.38,1.155A1.966,1.966,0,0,1-22.8-1a2.21,2.21,0,0,1-1,.792A4.141,4.141,0,0,1-25.454.088Zm6.93-.022a3.161,3.161,0,0,1-1.562-.385A2.792,2.792,0,0,1-21.17-1.381a3.013,3.013,0,0,1-.391-1.535A3.013,3.013,0,0,1-21.17-4.45a2.753,2.753,0,0,1,1.083-1.056,3.2,3.2,0,0,1,1.562-.379,3.167,3.167,0,0,1,1.556.379A2.763,2.763,0,0,1-15.89-4.45,3.013,3.013,0,0,1-15.5-2.915a3.013,3.013,0,0,1-.391,1.535A2.8,2.8,0,0,1-16.968-.319,3.13,3.13,0,0,1-18.524.066Zm0-.924a1.968,1.968,0,0,0,1.007-.258,1.825,1.825,0,0,0,.7-.726,2.218,2.218,0,0,0,.253-1.073,2.218,2.218,0,0,0-.253-1.072,1.787,1.787,0,0,0-.7-.72,2,2,0,0,0-1.007-.253,2,2,0,0,0-1.007.253,1.824,1.824,0,0,0-.7.72,2.18,2.18,0,0,0-.259,1.072,2.18,2.18,0,0,0,.259,1.073,1.863,1.863,0,0,0,.7.726A1.968,1.968,0,0,0-18.524-.858Zm6.622-6.5q-.946,0-.946,1.023v.506h1.694v.869h-1.672V0h-1.056V-4.961h-.99V-5.83h.99v-.517a1.858,1.858,0,0,1,.506-1.375,1.918,1.918,0,0,1,1.419-.506,2.393,2.393,0,0,1,.66.088,1.606,1.606,0,0,1,.528.253l-.319.8A1.315,1.315,0,0,0-11.9-7.359ZM-6.875-.341a1.576,1.576,0,0,1-.572.3,2.389,2.389,0,0,1-.7.1A1.87,1.87,0,0,1-9.515-.407,1.806,1.806,0,0,1-10-1.76v-3.2h-.99V-5.83H-10V-7.106h1.056V-5.83h1.672v.869H-8.943V-1.8a1.024,1.024,0,0,0,.236.726.881.881,0,0,0,.677.253A1.273,1.273,0,0,0-7.205-1.1Zm4.7-7.392A3.909,3.909,0,0,1-.2-7.227,3.675,3.675,0,0,1,1.188-5.836a3.887,3.887,0,0,1,.506,1.964A3.882,3.882,0,0,1,1.177-1.9,3.8,3.8,0,0,1-.231-.484,3.852,3.852,0,0,1-2.2.033,3.823,3.823,0,0,1-4.164-.484a3.785,3.785,0,0,1-1.4-1.408A3.863,3.863,0,0,1-6.072-3.85a3.863,3.863,0,0,1,.512-1.958,3.773,3.773,0,0,1,1.4-1.408A3.873,3.873,0,0,1-2.178-7.733ZM-2.2-.462A3.332,3.332,0,0,0-.484-.913,3.294,3.294,0,0,0,.731-2.145a3.424,3.424,0,0,0,.445-1.727A3.431,3.431,0,0,0,.742-5.588,3.167,3.167,0,0,0-.457-6.8a3.388,3.388,0,0,0-1.722-.44A3.362,3.362,0,0,0-3.9-6.787,3.253,3.253,0,0,0-5.115-5.561a3.406,3.406,0,0,0-.44,1.71,3.406,3.406,0,0,0,.44,1.711A3.265,3.265,0,0,0-3.905-.913,3.312,3.312,0,0,0-2.2-.462ZM-.209-4.554a1.458,1.458,0,0,1-.242.847,1.336,1.336,0,0,1-.682.506l1,1.551H-.891L-1.8-3.058H-3V-1.65h-.748v-4.4h1.76a1.947,1.947,0,0,1,1.3.407A1.357,1.357,0,0,1-.209-4.554Zm-1.837.88a1.29,1.29,0,0,0,.819-.231.781.781,0,0,0,.292-.649A.766.766,0,0,0-1.227-5.2a1.312,1.312,0,0,0-.819-.226h-.968v1.749ZM8.58.088A5.27,5.27,0,0,1,6.9-.182a3.445,3.445,0,0,1-1.271-.7l.407-.858a3.37,3.37,0,0,0,1.128.643A4.143,4.143,0,0,0,8.58-.847a2.546,2.546,0,0,0,1.43-.325,1,1,0,0,0,.473-.863.851.851,0,0,0-.258-.644,1.729,1.729,0,0,0-.638-.38q-.38-.132-1.073-.3a11.052,11.052,0,0,1-1.4-.418A2.319,2.319,0,0,1,6.2-4.417a1.718,1.718,0,0,1-.379-1.172A1.982,1.982,0,0,1,6.143-6.7a2.229,2.229,0,0,1,.984-.792,3.993,3.993,0,0,1,1.639-.3,5.187,5.187,0,0,1,1.342.176,3.57,3.57,0,0,1,1.133.506l-.363.88a3.982,3.982,0,0,0-1.034-.467,3.859,3.859,0,0,0-1.078-.16,2.375,2.375,0,0,0-1.4.341,1.044,1.044,0,0,0-.468.88.842.842,0,0,0,.264.643,1.831,1.831,0,0,0,.655.385,10.226,10.226,0,0,0,1.061.291,10.752,10.752,0,0,1,1.4.418,2.352,2.352,0,0,1,.908.638,1.68,1.68,0,0,1,.38,1.155A1.966,1.966,0,0,1,11.231-1a2.21,2.21,0,0,1-1,.792A4.141,4.141,0,0,1,8.58.088ZM13.013-5.83h1.056V0H13.013Zm.528-1.122a.7.7,0,0,1-.512-.2.649.649,0,0,1-.2-.484.667.667,0,0,1,.2-.49.694.694,0,0,1,.512-.2.715.715,0,0,1,.512.193.632.632,0,0,1,.2.478.68.68,0,0,1-.2.5A.694.694,0,0,1,13.541-6.952ZM17.754.066a4.886,4.886,0,0,1-1.375-.193,3.019,3.019,0,0,1-1.034-.489l.44-.836a3.158,3.158,0,0,0,.935.44,3.847,3.847,0,0,0,1.111.165q1.386,0,1.386-.792a.513.513,0,0,0-.187-.418,1.184,1.184,0,0,0-.468-.225q-.281-.072-.8-.16A7.815,7.815,0,0,1,16.615-2.7a1.772,1.772,0,0,1-.764-.484,1.347,1.347,0,0,1-.319-.957,1.5,1.5,0,0,1,.66-1.271,2.956,2.956,0,0,1,1.771-.478,4.879,4.879,0,0,1,1.166.143,3.136,3.136,0,0,1,.957.385l-.451.836a3.032,3.032,0,0,0-1.683-.462,1.945,1.945,0,0,0-1.023.22.664.664,0,0,0-.352.583.556.556,0,0,0,.2.451,1.252,1.252,0,0,0,.49.242q.292.077.819.176a8.894,8.894,0,0,1,1.139.259,1.7,1.7,0,0,1,.743.467,1.3,1.3,0,0,1,.308.924A1.457,1.457,0,0,1,19.6-.4,3.2,3.2,0,0,1,17.754.066Zm7.117-.407a1.576,1.576,0,0,1-.572.3,2.389,2.389,0,0,1-.7.1,1.87,1.87,0,0,1-1.364-.473,1.806,1.806,0,0,1-.484-1.353v-3.2h-.99V-5.83h.99V-7.106H22.8V-5.83h1.672v.869H22.8V-1.8a1.024,1.024,0,0,0,.236.726.881.881,0,0,0,.677.253,1.273,1.273,0,0,0,.825-.275Zm6.347-2.541a3.027,3.027,0,0,1-.022.319h-4.73a1.831,1.831,0,0,0,.677,1.238,2.208,2.208,0,0,0,1.436.467,2.163,2.163,0,0,0,1.683-.7l.583.682a2.554,2.554,0,0,1-.984.7,3.427,3.427,0,0,1-1.315.242,3.443,3.443,0,0,1-1.639-.38A2.707,2.707,0,0,1,25.8-1.375a3.043,3.043,0,0,1-.391-1.54,3.091,3.091,0,0,1,.379-1.529,2.719,2.719,0,0,1,1.045-1.062,2.977,2.977,0,0,1,1.5-.379,2.917,2.917,0,0,1,1.49.379,2.665,2.665,0,0,1,1.023,1.062A3.234,3.234,0,0,1,31.218-2.882ZM28.336-4.994a1.825,1.825,0,0,0-1.271.462,1.863,1.863,0,0,0-.6,1.21h3.74a1.875,1.875,0,0,0-.6-1.2A1.813,1.813,0,0,0,28.336-4.994Zm11.638-.891a2.367,2.367,0,0,1,1.743.638,2.553,2.553,0,0,1,.644,1.892V0H41.305V-3.234a1.839,1.839,0,0,0-.39-1.276A1.433,1.433,0,0,0,39.8-4.939a1.672,1.672,0,0,0-1.276.5A2.011,2.011,0,0,0,38.049-3V0H36.993V-3.234A1.839,1.839,0,0,0,36.6-4.51a1.433,1.433,0,0,0-1.117-.429,1.672,1.672,0,0,0-1.276.5A2.011,2.011,0,0,0,33.737-3V0H32.681V-5.83h1.012v.869a2.046,2.046,0,0,1,.836-.687,2.8,2.8,0,0,1,1.177-.236,2.581,2.581,0,0,1,1.21.275,1.911,1.911,0,0,1,.814.8,2.234,2.234,0,0,1,.919-.792A2.993,2.993,0,0,1,39.974-5.885Zm6.457,0a2.637,2.637,0,0,1,1.854.594,2.293,2.293,0,0,1,.644,1.771V0h-1V-.77a1.669,1.669,0,0,1-.753.621,2.876,2.876,0,0,1-1.16.215,2.429,2.429,0,0,1-1.568-.473,1.517,1.517,0,0,1-.589-1.243,1.531,1.531,0,0,1,.561-1.238A2.765,2.765,0,0,1,46.2-3.355h1.672v-.209a1.346,1.346,0,0,0-.4-1.045,1.67,1.67,0,0,0-1.166-.363A3.087,3.087,0,0,0,45.3-4.8a2.607,2.607,0,0,0-.836.457l-.44-.792A3.193,3.193,0,0,1,45.1-5.693,4.511,4.511,0,0,1,46.431-5.885ZM46.189-.748a1.962,1.962,0,0,0,1.045-.27,1.542,1.542,0,0,0,.638-.765V-2.6H46.244q-1.342,0-1.342.9A.816.816,0,0,0,45.243-1,1.559,1.559,0,0,0,46.189-.748Zm6.369.814a4.886,4.886,0,0,1-1.375-.193,3.019,3.019,0,0,1-1.034-.489l.44-.836a3.158,3.158,0,0,0,.935.44,3.847,3.847,0,0,0,1.111.165q1.386,0,1.386-.792a.513.513,0,0,0-.187-.418,1.184,1.184,0,0,0-.468-.225q-.281-.072-.8-.16A7.815,7.815,0,0,1,51.42-2.7a1.772,1.772,0,0,1-.764-.484,1.347,1.347,0,0,1-.319-.957A1.5,1.5,0,0,1,51-5.407a2.956,2.956,0,0,1,1.771-.478,4.879,4.879,0,0,1,1.166.143,3.136,3.136,0,0,1,.957.385l-.451.836a3.032,3.032,0,0,0-1.683-.462,1.945,1.945,0,0,0-1.023.22.664.664,0,0,0-.352.583.556.556,0,0,0,.2.451,1.252,1.252,0,0,0,.489.242q.291.077.819.176a8.894,8.894,0,0,1,1.139.259,1.7,1.7,0,0,1,.743.467,1.3,1.3,0,0,1,.308.924A1.457,1.457,0,0,1,54.4-.4,3.2,3.2,0,0,1,52.558.066Z" transform="translate(74 12)" fill="#fff"/></svg>