<svg xmlns="http://www.w3.org/2000/svg" width="20" height="20" viewBox="0 0 20 20"><path id="fab_fa-whatsapp" data-name="fab fa-whatsapp" d="M3.879-21.469a9.836,9.836,0,0,0-7.009-2.906,9.923,9.923,0,0,0-9.911,9.911,9.921,9.921,0,0,0,1.321,4.955l-1.406,5.134,5.254-1.379A9.88,9.88,0,0,0-3.134-4.549h0a10.006,10.006,0,0,0,10-9.911A9.95,9.95,0,0,0,3.879-21.469ZM-3.129-6.219a8.223,8.223,0,0,1-4.2-1.147l-.3-.179-3.116.817.83-3.04-.2-.312a8.21,8.21,0,0,1-1.259-4.384A8.249,8.249,0,0,1-3.125-22.7,8.164,8.164,0,0,1,2.7-20.286,8.27,8.27,0,0,1,5.2-14.46,8.329,8.329,0,0,1-3.129-6.219Zm4.518-6.17c-.246-.125-1.464-.723-1.692-.8s-.393-.125-.558.125-.638.8-.786.973-.29.188-.536.063a6.741,6.741,0,0,1-3.371-2.946c-.254-.437.254-.406.728-1.353a.459.459,0,0,0-.022-.433c-.063-.125-.558-1.344-.763-1.839s-.406-.415-.558-.424-.308-.009-.473-.009a.917.917,0,0,0-.661.308,2.783,2.783,0,0,0-.866,2.067A4.852,4.852,0,0,0-7.161-14.1a11.066,11.066,0,0,0,4.232,3.741,4.846,4.846,0,0,0,2.973.621,2.537,2.537,0,0,0,1.67-1.179,2.071,2.071,0,0,0,.143-1.179C1.8-12.205,1.634-12.268,1.388-12.388Z" transform="translate(13.125 24.375)" fill="#003865"/></svg>
