<svg xmlns="http://www.w3.org/2000/svg" width="15.75" height="15.75" viewBox="0 0 15.75 15.75"><path d="M5.516-12.336A7.746,7.746,0,0,0,0-14.625a7.814,7.814,0,0,0-7.8,7.8,7.813,7.813,0,0,0,1.041,3.9L-7.875,1.125-3.737.039A7.781,7.781,0,0,0-.007.988H0a7.88,7.88,0,0,0,7.879-7.8A7.835,7.835,0,0,0,5.516-12.336ZM0-.327a6.476,6.476,0,0,1-3.3-.9l-.236-.141L-6-.728l.654-2.394L-5.5-3.368A6.466,6.466,0,0,1-6.49-6.82,6.5,6.5,0,0,1,0-13.307a6.43,6.43,0,0,1,4.584,1.9A6.513,6.513,0,0,1,6.557-6.817,6.559,6.559,0,0,1,0-.327ZM3.554-5.186c-.193-.1-1.153-.57-1.332-.633s-.309-.1-.439.1-.5.633-.619.766S.935-4.806.742-4.9a5.308,5.308,0,0,1-2.654-2.32c-.2-.345.2-.32.573-1.065a.361.361,0,0,0-.018-.341c-.049-.1-.439-1.058-.6-1.448s-.32-.327-.439-.334-.243-.007-.373-.007a.722.722,0,0,0-.52.243A2.191,2.191,0,0,0-3.973-8.55a3.821,3.821,0,0,0,.795,2.018A8.715,8.715,0,0,0,.155-3.586,3.816,3.816,0,0,0,2.5-3.1a2,2,0,0,0,1.315-.928,1.631,1.631,0,0,0,.112-.928C3.878-5.041,3.748-5.091,3.554-5.186Z" transform="translate(7.875 14.625)" fill="#003865"/></svg>