<svg xmlns="http://www.w3.org/2000/svg" width="20.25" height="15.75" viewBox="0 0 20.25 15.75"><path d="M4.5-9c0-3.108-3.273-5.625-7.312-5.625S-10.125-12.108-10.125-9A4.769,4.769,0,0,0-8.789-5.766,7.913,7.913,0,0,1-10.048-3.85a.279.279,0,0,0-.053.306.275.275,0,0,0,.257.169,6.19,6.19,0,0,0,3.118-.879,8.945,8.945,0,0,0,3.913.879C1.227-3.375,4.5-5.892,4.5-9ZM8.789-1.266A4.763,4.763,0,0,0,10.125-4.5c0-2.352-1.881-4.366-4.546-5.207A5.228,5.228,0,0,1,5.625-9c0,3.723-3.786,6.75-8.437,6.75a10.535,10.535,0,0,1-1.114-.067A7.6,7.6,0,0,0,2.813,1.125,8.9,8.9,0,0,0,6.725.246a6.19,6.19,0,0,0,3.118.879A.277.277,0,0,0,10.1.956.282.282,0,0,0,10.048.65,7.83,7.83,0,0,1,8.789-1.266Z" transform="translate(10.125 14.625)" fill="#003865"/></svg>