<svg xmlns="http://www.w3.org/2000/svg" width="18" height="15.75" viewBox="0 0 18 15.75"><path d="M-3.75-13.781a.844.844,0,0,0-.844-.844H-8.156A.844.844,0,0,0-9-13.781v2.813a.844.844,0,0,0,.844.844h3.562a.844.844,0,0,0,.844-.844ZM2.625-5.344V-8.156A.844.844,0,0,0,1.781-9H-1.781a.844.844,0,0,0-.844.844v2.813a.844.844,0,0,0,.844.844H1.781A.844.844,0,0,0,2.625-5.344ZM3.75-13.781v2.813a.844.844,0,0,0,.844.844H8.156A.844.844,0,0,0,9-10.969v-2.812a.844.844,0,0,0-.844-.844H4.594A.844.844,0,0,0,3.75-13.781ZM2.625-10.969v-2.812a.844.844,0,0,0-.844-.844H-1.781a.844.844,0,0,0-.844.844v2.813a.844.844,0,0,0,.844.844H1.781A.844.844,0,0,0,2.625-10.969ZM-4.594-9H-8.156A.844.844,0,0,0-9-8.156v2.813a.844.844,0,0,0,.844.844h3.562a.844.844,0,0,0,.844-.844V-8.156A.844.844,0,0,0-4.594-9ZM-9-2.531V.281a.844.844,0,0,0,.844.844h3.562A.844.844,0,0,0-3.75.281V-2.531a.844.844,0,0,0-.844-.844H-8.156A.844.844,0,0,0-9-2.531ZM4.594-4.5H8.156A.844.844,0,0,0,9-5.344V-8.156A.844.844,0,0,0,8.156-9H4.594a.844.844,0,0,0-.844.844v2.813A.844.844,0,0,0,4.594-4.5Zm0,5.625H8.156A.844.844,0,0,0,9,.281V-2.531a.844.844,0,0,0-.844-.844H4.594a.844.844,0,0,0-.844.844V.281A.844.844,0,0,0,4.594,1.125ZM-2.625-2.531V.281a.844.844,0,0,0,.844.844H1.781A.844.844,0,0,0,2.625.281V-2.531a.844.844,0,0,0-.844-.844H-1.781A.844.844,0,0,0-2.625-2.531Z" transform="translate(9 14.625)" fill="#fff"/></svg>