<svg xmlns="http://www.w3.org/2000/svg" width="18" height="15.75" viewBox="0 0 18 15.75"><path d="M8.438-2.25H-3.375v-.562a.564.564,0,0,0-.562-.562H-5.062a.564.564,0,0,0-.562.563v.563H-8.437A.564.564,0,0,0-9-1.687V-.562A.564.564,0,0,0-8.437,0h2.813V.563a.564.564,0,0,0,.563.563h1.125A.564.564,0,0,0-3.375.563V0H8.438A.564.564,0,0,0,9-.562V-1.687A.564.564,0,0,0,8.438-2.25Zm0-5.625H5.625v-.562A.564.564,0,0,0,5.063-9H3.938a.564.564,0,0,0-.562.563v.563H-8.437A.564.564,0,0,0-9-7.312v1.125a.564.564,0,0,0,.563.563H3.375v.563a.564.564,0,0,0,.563.563H5.063a.564.564,0,0,0,.563-.562v-.562H8.438A.564.564,0,0,0,9-6.187V-7.312A.564.564,0,0,0,8.438-7.875Zm0-5.625H1.125v-.562a.564.564,0,0,0-.562-.562H-.562a.564.564,0,0,0-.562.563v.563H-8.437A.564.564,0,0,0-9-12.937v1.125a.564.564,0,0,0,.563.563h7.313v.563a.564.564,0,0,0,.563.563H.563a.564.564,0,0,0,.563-.562v-.562H8.438A.564.564,0,0,0,9-11.812v-1.125A.564.564,0,0,0,8.438-13.5Z" transform="translate(9 14.625)" fill="#003865"/></svg>