<svg xmlns="http://www.w3.org/2000/svg" width="23" height="11.507" viewBox="0 0 23 11.507"><path d="M23,135.192a3.092,3.092,0,0,0-2.875-3.356h-.811a1.311,1.311,0,0,1-.818-.288l-3.776-3.022a2.408,2.408,0,0,0-1.5-.525H6.3A2.391,2.391,0,0,0,4.3,129.067l-.816,1.225a1.312,1.312,0,0,1-1.092.584,2.4,2.4,0,0,0-2.4,2.4v1.918a2.4,2.4,0,0,0,1.958,2.356,2.4,2.4,0,0,0,4.7.041h9.68a2.4,2.4,0,0,0,4.7-.037A2.334,2.334,0,0,0,23,135.192ZM4.313,138.548A1.438,1.438,0,1,1,5.75,137.11,1.44,1.44,0,0,1,4.313,138.548Zm14.375,0a1.44,1.44,0,0,1-1.437-1.438h0a1.437,1.437,0,1,1,1.437,1.439Zm2.334-1.975a2.4,2.4,0,0,0-4.682.058H6.66a2.4,2.4,0,0,0-4.681-.062,1.441,1.441,0,0,1-1.021-1.376v-1.918A1.44,1.44,0,0,1,2.4,131.836a2.265,2.265,0,0,0,1.889-1.012L5.1,129.6a1.436,1.436,0,0,1,1.2-.641h6.927a1.445,1.445,0,0,1,.9.315L17.9,132.3a2.272,2.272,0,0,0,1.417.5h.81c1.406,0,1.917,1.434,1.917,2.4A1.368,1.368,0,0,1,21.022,136.573Z" transform="translate(0 -128)"/></svg>