<svg xmlns="http://www.w3.org/2000/svg" xmlns:xlink="http://www.w3.org/1999/xlink" width="40.341" height="40.335" viewBox="0 0 40.341 40.335"><defs><clipPath id="a"><path d="M0,0H40.341V40.335H0Z" fill="#fff"/></clipPath></defs><g clip-path="url(#a)"><path d="M40.341,18.749v2.836c-.025.113-.059.224-.075.338-.116.8-.169,1.62-.351,2.408A20,20,0,0,1,28.609,38.489c-.9.435-1.863.741-2.847,1.126V24.6h4.324l.647-5H25.8c-.031-.074-.058-.109-.058-.144.009-1.273-.017-2.547.044-3.818a1.618,1.618,0,0,1,1.419-1.606,9.823,9.823,0,0,1,1.6-.13c.678-.021,1.358-.005,2.057-.005V9.444a1.039,1.039,0,0,0-.224-.061c-1.35-.057-2.7-.15-4.05-.151a6.166,6.166,0,0,0-2.769.654,5.828,5.828,0,0,0-3.246,5.282c-.079,1.321-.023,2.651-.029,3.976,0,.14-.012.28-.019.459H16.242v5.022h4.274v15.7a17.6,17.6,0,0,1-4.561-.424A19.777,19.777,0,0,1,4.3,32.6,19.707,19.707,0,0,1,.2,17.353,19.34,19.34,0,0,1,4.808,7.106a19.807,19.807,0,0,1,11.86-6.8C17.335.188,18.008.1,18.678,0h2.915c.466.059.934.111,1.4.179A19.755,19.755,0,0,1,32.03,3.85a19.89,19.89,0,0,1,8,12.769c.131.705.21,1.419.313,2.13" transform="translate(0)" fill="#fff"/></g></svg>