<svg xmlns="http://www.w3.org/2000/svg" xmlns:xlink="http://www.w3.org/1999/xlink" width="40.34" height="40.294" viewBox="0 0 40.34 40.294"><defs><clipPath id="a"><path d="M0,0H40.34V40.294H0Z" fill="#fff"/></clipPath></defs><g clip-path="url(#a)"><path d="M21.574,40.294H18.739c-.114-.026-.227-.06-.342-.075-.674-.091-1.356-.141-2.023-.272A19.871,19.871,0,0,1,5.344,33.8,19.706,19.706,0,0,1,.232,23.219C.151,22.692.077,22.164,0,21.636V18.645c.059-.438.113-.876.177-1.313a19.561,19.561,0,0,1,4.7-10.324A19.813,19.813,0,0,1,22.322.1a19.327,19.327,0,0,1,7.956,2.6,20.22,20.22,0,0,1,9.777,20.756A19.926,19.926,0,0,1,33.8,34.975,19.668,19.668,0,0,1,23.7,39.983c-.707.125-1.421.208-2.131.311M31.652,20.158l.164,0c-.106-2.067-.083-4.151-.351-6.2a5.7,5.7,0,0,0-4.172-4.925,10.785,10.785,0,0,0-3.458-.415c-3.12.017-6.243.014-9.36.128a5.8,5.8,0,0,0-3.93,1.757A6.668,6.668,0,0,0,8.671,15.36c-.046,3.094-.023,6.19-.009,9.285a9.505,9.505,0,0,0,.162,1.718,5.934,5.934,0,0,0,4.231,4.895,11.1,11.1,0,0,0,3.5.408c3.094-.015,6.19-.03,9.282-.127a5.781,5.781,0,0,0,3.4-1.3A6.541,6.541,0,0,0,31.641,25c.056-1.611.011-3.226.011-4.839" transform="translate(0 0.001)" fill="#fff"/><path d="M145,154.442c-1.8-.062-3.593-.088-5.385-.2a4.01,4.01,0,0,1-3.956-3.968c-.111-2.882-.113-5.768-.115-8.653a13.611,13.611,0,0,1,.24-2.851,3.863,3.863,0,0,1,3.825-3.236c2.909-.1,5.821-.109,8.732-.11a13.259,13.259,0,0,1,2.81.246,3.85,3.85,0,0,1,3.209,3.8c.1,2.9.11,5.795.112,8.692a13.556,13.556,0,0,1-.245,2.849,3.951,3.951,0,0,1-3.8,3.231c-.9.065-1.807.105-2.711.127s-1.811,0-2.716,0c0,.02,0,.041,0,.061m5.93-9.547a5.921,5.921,0,1,0-5.919,5.913,5.885,5.885,0,0,0,5.919-5.913m.274-4.807a1.379,1.379,0,1,0-1.394-1.352,1.39,1.39,0,0,0,1.394,1.352" transform="translate(-124.853 -124.747)" fill="#fff"/><path d="M214.37,210.326a3.857,3.857,0,1,1-3.841-3.853,3.836,3.836,0,0,1,3.841,3.853" transform="translate(-190.356 -190.188)" fill="#fff"/></g></svg>