<svg xmlns="http://www.w3.org/2000/svg" width="45" height="45" viewBox="0 0 45 45">
  <g id="Grupo_200" data-name="Grupo 200" transform="translate(-189 -26)">
    <g id="Caminho_244" data-name="Caminho 244" transform="translate(189 26)" fill="none">
      <path d="M5,0H40a5,5,0,0,1,5,5V40a5,5,0,0,1-5,5H5a5,5,0,0,1-5-5V5A5,5,0,0,1,5,0Z" stroke="none"/>
      <path d="M 5 2 C 3.345790863037109 2 2 3.345790863037109 2 5 L 2 40 C 2 41.65420913696289 3.345790863037109 43 5 43 L 40 43 C 41.65420913696289 43 43 41.65420913696289 43 40 L 43 5 C 43 3.345790863037109 41.65420913696289 2 40 2 L 5 2 M 5 0 L 40 0 C 42.76142120361328 0 45 2.238571166992188 45 5 L 45 40 C 45 42.76142120361328 42.76142120361328 45 40 45 L 5 45 C 2.238571166992188 45 0 42.76142120361328 0 40 L 0 5 C 0 2.238571166992188 2.238571166992188 0 5 0 Z" stroke="none" fill="#003865"/>
    </g>
    <path id="fab_fa-whatsapp" data-name="fab fa-whatsapp" d="M7.626-7.459C7.26-7.645,5.443-8.537,5.1-8.657s-.586-.186-.832.186S3.32-7.273,3.1-7.02s-.433.279-.8.093a10.047,10.047,0,0,1-5.024-4.392c-.379-.652.379-.606,1.085-2.016a.684.684,0,0,0-.033-.645c-.093-.186-.832-2-1.138-2.742-.3-.719-.606-.619-.832-.632s-.459-.013-.705-.013a1.367,1.367,0,0,0-.985.459,4.148,4.148,0,0,0-1.291,3.081,7.232,7.232,0,0,0,1.5,3.82A16.5,16.5,0,0,0,1.191-4.431c2.342,1.011,3.261,1.1,4.432.925A3.781,3.781,0,0,0,8.112-5.263,3.087,3.087,0,0,0,8.324-7.02C8.238-7.186,7.992-7.279,7.626-7.459Z" transform="translate(211 59)" fill="#003865"/>
  </g>
</svg>
