<svg xmlns="http://www.w3.org/2000/svg" width="35" height="33.534" viewBox="0 0 35 33.534"><g transform="translate(0 -5.417)"><path d="M31.952,5.417H3.048A3.052,3.052,0,0,0,0,8.465V28.156A3.052,3.052,0,0,0,3.048,31.2H6.065c.035.087.073.174.116.262l.038.07a62.456,62.456,0,0,0,4.354,6.355,2.457,2.457,0,0,0,1.792,1.061,1.554,1.554,0,0,0,.7-.167l9.036-4.53a2.569,2.569,0,0,0,1.5-2.737c-.01-.1-.022-.2-.035-.312h8.386A3.052,3.052,0,0,0,35,28.156V8.465a3.052,3.052,0,0,0-3.048-3.048ZM21.193,32.437l-8.809,4.414a3.373,3.373,0,0,1-.27-.28A60.7,60.7,0,0,1,7.98,30.523c-.6-1.322,2.016-3.765,4.775-5.149a1.109,1.109,0,0,0,.587-.762,1.267,1.267,0,0,0-.122-.848l-2.4-4.791A1.091,1.091,0,1,1,12.768,18l2.748,5.482c.008.017.017.038.025.06a1.4,1.4,0,0,0,1.235,1.019,1.135,1.135,0,0,0,.237-.025c.907-.193.867-1.151.84-1.666-.011-.251-.029-.5-.038-.6A1.091,1.091,0,0,1,20,22.305v.1l.02.1c.013.063,1.26,6.327,1.555,9.225a.58.58,0,0,1-.379.706Zm.84-10.241a3.122,3.122,0,0,0-5.709-1.644l-1.74-3.472A3.123,3.123,0,1,0,9,19.881l2.06,4.1c-1.973,1.133-4.48,3.08-5.074,5.188H3.046A1.018,1.018,0,0,1,2.03,28.154V8.465A1.018,1.018,0,0,1,3.046,7.448H26.219V29.171h-2.94c-.44-2.867-1.12-6.352-1.245-6.978Zm10.933,5.961a1.018,1.018,0,0,1-1.016,1.016h-3.7V7.448h3.7a1.018,1.018,0,0,1,1.016,1.016Z" fill="#fff"/><path d="M219.363,84.844a.726.726,0,0,0-.726.726v1.6a.726.726,0,1,0,1.451,0v-1.6a.726.726,0,0,0-.725-.726Z" transform="translate(-187.482 -68.215)" fill="#fff"/><path d="M67.467,40.086a10.479,10.479,0,0,0-4.151-.874h-.032l.265-.409a.484.484,0,1,0-.812-.527l-.83,1.278a.581.581,0,0,0,.171.8l1.369.889a.484.484,0,1,0,.527-.812l-.4-.259a9.733,9.733,0,0,1,3.517.8,10.06,10.06,0,0,1,2.681,1.637.484.484,0,0,0,.636-.729,11.05,11.05,0,0,0-2.941-1.794Z" transform="translate(-52.151 -29.485)" fill="#fff"/></g></svg>