<svg xmlns="http://www.w3.org/2000/svg" width="20.092" height="20.342" viewBox="0 0 20.092 20.342"><g transform="matrix(0.875, -0.485, 0.485, 0.875, -3.686, 6.285)"><g transform="translate(0.617 0)"><circle cx="2.341" cy="2.341" r="2.341" transform="translate(7.665)"/><circle cx="1.404" cy="1.404" r="1.404" transform="translate(8.602 17.203)"/><circle cx="2.107" cy="2.107" r="2.107" transform="translate(2.148 2.616)"/><circle cx="1.17" cy="1.17" r="1.17" transform="translate(14.587 15.054)"/><circle cx="1.872" cy="1.872" r="1.872" transform="translate(0 8.602)"/><circle cx="0.936" cy="0.936" r="0.936" transform="translate(17.203 9.538)"/><path d="M4.542,19.687a1.638,1.638,0,1,0,2.316,0A1.637,1.637,0,0,0,4.542,19.687Z" transform="translate(-1.446 -4.619)"/><circle cx="0.702" cy="0.702" r="0.702" transform="translate(15.055 4.021)"/></g></g></svg>