<svg xmlns="http://www.w3.org/2000/svg" xmlns:xlink="http://www.w3.org/1999/xlink" width="218.4" height="55.326" viewBox="0 0 218.4 55.326"><defs><clipPath id="a"><path d="M0,0H218.4V55.326H0Z" fill="none"/></clipPath></defs><g clip-path="url(#a)"><path d="M193.115,60.367a3.925,3.925,0,0,0-1.831-.581,1.394,1.394,0,0,0-.817.208.722.722,0,0,0-.291.626.824.824,0,0,0,.423.675,5.288,5.288,0,0,0,1.124.554,4.613,4.613,0,0,1,.977.478,2.135,2.135,0,0,1,.675.74,2.4,2.4,0,0,1,.268,1.2,2.182,2.182,0,0,1-.324,1.157,2.252,2.252,0,0,1-.949.844,3.289,3.289,0,0,1-1.492.313,4.953,4.953,0,0,1-1.437-.214,4.456,4.456,0,0,1-1.328-.653l.7-1.238a3.852,3.852,0,0,0,.954.5,2.829,2.829,0,0,0,.965.2,1.733,1.733,0,0,0,.878-.213.74.74,0,0,0,.373-.7q0-.626-1.174-1.086a10.5,10.5,0,0,1-1.151-.526,2.365,2.365,0,0,1-.8-.723,2,2,0,0,1-.333-1.185,2.182,2.182,0,0,1,.684-1.678,2.782,2.782,0,0,1,1.826-.692,4.8,4.8,0,0,1,1.5.2,5.153,5.153,0,0,1,1.173.576Zm-13,6.121h-1.59V58.415h1.59Zm-10-8.073v1.536H166.2v1.722h3.466v1.536H166.2v1.744h4.069v1.535h-5.659V58.415Zm-13.507,0-3.684,8.446-3.687-8.446h1.909l1.843,4.553,1.733-4.553ZM138.57,58h-.932l.856-1.48h1.7Zm-2.9,4.463a2.591,2.591,0,0,0,.334,1.295,2.509,2.509,0,0,0,.911.937,2.43,2.43,0,0,0,1.277.346,2.311,2.311,0,0,0,1.24-.346,2.437,2.437,0,0,0,.877-.931,2.806,2.806,0,0,0-.01-2.616,2.511,2.511,0,0,0-.894-.938,2.457,2.457,0,0,0-2.513,0,2.5,2.5,0,0,0-.893.938,2.66,2.66,0,0,0-.329,1.316m-1.645,0a4.015,4.015,0,0,1,.554-2.05,4.194,4.194,0,0,1,1.5-1.52,4.03,4.03,0,0,1,4.113,0,4.294,4.294,0,0,1,1.514,1.52,4.028,4.028,0,0,1,0,4.112,4.224,4.224,0,0,1-1.514,1.5,4.105,4.105,0,0,1-4.119,0,4.141,4.141,0,0,1-1.5-1.5,4,4,0,0,1-.554-2.062m-8.2-4.376v8.4h-1.59v-3.85l-2.632,3.741h-.023l-2.533-3.5v3.608h-1.535v-8.4h.011l4.091,5.8,4.19-5.8Zm-17.006,8.4h-1.59V58.415h1.59Z" transform="translate(-21.885 -11.535)" fill="#0598e8"/><rect width="5.894" height="29.914" transform="translate(53.976 8.422)" fill="#fff"/><path d="M108.726,37.4a7.945,7.945,0,0,1-2.459,1.524,21.975,21.975,0,0,1-3.9,1.3,16.918,16.918,0,0,1-3.882.509,18.028,18.028,0,0,1-8.354-1.85,13.45,13.45,0,0,1-5.548-5.122,14.276,14.276,0,0,1-1.952-7.459A17.684,17.684,0,0,1,84.7,17.424a13.46,13.46,0,0,1,5.569-5.446,16.555,16.555,0,0,1,7.724-1.81,20.717,20.717,0,0,1,5.122.61,18.853,18.853,0,0,1,4.228,1.585l-1.911,5.488a14.779,14.779,0,0,0-3.231-1.2,13.792,13.792,0,0,0-3.435-.548q-4.878,0-7.459,2.439t-2.581,7.236A9.02,9.02,0,0,0,89.987,30.6,8.276,8.276,0,0,0,93.5,33.746a11.625,11.625,0,0,0,5.142,1.1,8.466,8.466,0,0,0,4.105-.773V26.687h5.976Z" transform="translate(-16.864 -2.075)" fill="#fff" fill-rule="evenodd"/><path d="M150.791,10.281V41.413h-.162L129.7,22.515l.122,17.68h-5.975V9.1h.244l20.89,19.182-.121-18Z" transform="translate(-25.275 -1.858)" fill="#fff"/><path d="M171.209,25.5a9.585,9.585,0,0,0,1.239,4.8,9.318,9.318,0,0,0,3.374,3.476,9.02,9.02,0,0,0,4.735,1.281,8.561,8.561,0,0,0,4.592-1.281,9.065,9.065,0,0,0,3.251-3.454,10.4,10.4,0,0,0-.041-9.693,9.284,9.284,0,0,0-3.312-3.476,9.1,9.1,0,0,0-9.307,0,9.286,9.286,0,0,0-3.313,3.476,9.862,9.862,0,0,0-1.219,4.877m-6.1,0a14.889,14.889,0,0,1,2.052-7.6,15.517,15.517,0,0,1,5.568-5.629,14.914,14.914,0,0,1,15.242,0,15.829,15.829,0,0,1,5.609,5.629,14.922,14.922,0,0,1,0,15.241,15.6,15.6,0,0,1-5.609,5.548,15.205,15.205,0,0,1-15.262,0,15.334,15.334,0,0,1-5.548-5.548,14.817,14.817,0,0,1-2.052-7.641" transform="translate(-33.697 -2.077)" fill="#fff"/><path d="M227.253,10.583v5.69h-7.275V40.5h-5.893V16.273h-6.99v-5.69Z" transform="translate(-42.265 -2.16)" fill="#fff"/><path d="M242.1,25.5a9.585,9.585,0,0,0,1.239,4.8,9.318,9.318,0,0,0,3.374,3.476,9.02,9.02,0,0,0,4.735,1.281,8.561,8.561,0,0,0,4.592-1.281,9.065,9.065,0,0,0,3.251-3.454,10.4,10.4,0,0,0-.041-9.693,9.29,9.29,0,0,0-3.312-3.476,9.1,9.1,0,0,0-9.307,0,9.28,9.28,0,0,0-3.313,3.476A9.862,9.862,0,0,0,242.1,25.5m-6.1,0a14.889,14.889,0,0,1,2.052-7.6,15.517,15.517,0,0,1,5.568-5.629,14.914,14.914,0,0,1,15.242,0,15.829,15.829,0,0,1,5.609,5.629,14.922,14.922,0,0,1,0,15.241,15.6,15.6,0,0,1-5.609,5.548,15.205,15.205,0,0,1-15.262,0,15.334,15.334,0,0,1-5.548-5.548A14.817,14.817,0,0,1,236,25.5" transform="translate(-48.165 -2.077)" fill="#fff"/><path d="M16.434,9.292,30.343,22.823,53.807,0,30.344,14.6Z" transform="translate(-3.354 0)" fill="#0598e8" fill-rule="evenodd"/><path d="M0,.634,26.978,46.716l27-46.082L26.989,26.89Z" transform="translate(0 -0.13)" fill="#fff" fill-rule="evenodd"/></g></svg>