<svg xmlns="http://www.w3.org/2000/svg" width="15.156" height="21.556" viewBox="0 0 15.156 21.556"><g transform="translate(-76)"><g transform="translate(76)"><path d="M83.578,0a7.58,7.58,0,0,0-6.447,11.563l6.016,9.694a.632.632,0,0,0,.537.3h.005a.631.631,0,0,0,.537-.307l5.862-9.788A7.58,7.58,0,0,0,83.578,0ZM89,10.812l-5.33,8.9L78.2,10.9A6.319,6.319,0,1,1,89,10.812Z" transform="translate(-76)" fill="#fff"/></g><g transform="translate(79.789 3.789)"><path d="M169.789,90a3.789,3.789,0,1,0,3.789,3.789A3.793,3.793,0,0,0,169.789,90Zm0,6.324a2.534,2.534,0,1,1,2.53-2.534A2.536,2.536,0,0,1,169.789,96.324Z" transform="translate(-166 -90)" fill="#fff"/></g></g></svg>