<svg xmlns="http://www.w3.org/2000/svg" width="83.924" height="77.556" viewBox="0 0 83.924 77.556"><path d="M15873.186,12270.293c-.9,0-1.742-.028-2.5-.083l-3.105-7.875-.008.008-.008.017,0,.023-.008.024h-.012a.065.065,0,0,1-.017.04c-1.238,2.666-2.312,4.883-3.188,6.589a20.318,20.318,0,0,1-6.621-3.477l.87-14.184-.116,2.016,5.887-1.273a.409.409,0,0,0,.244-.18.433.433,0,0,0,.039-.308l-.318-1.105a.449.449,0,0,0-.416-.319.319.319,0,0,0-.087.009l-5.229,1.137,1.353-22.015-.551-7.124-1.2,2.071-1.928,3.229-.985,1.632c-.124.205-.344.557-.619.99l-.008.012-.068.107-.044.07-.052.081-.091.145-.2.315-.327.49-.048.068-.04.06-.008.02-.024.028a.005.005,0,0,0,0,0,.021.021,0,0,1,0,.007.023.023,0,0,1-.008.013l-.006.008-.006.008a.054.054,0,0,1-.012.016l-.009.021a.172.172,0,0,0-.02.036l-.044.048a3.323,3.323,0,0,1-.243.351l-.248.327a.093.093,0,0,0-.02.017l0,0-.008.012-.008.008-.006.006-.011.011c-.011.008-.016.015-.016.023l-.024.032-.031.031-.009.009c-.056.068-.111.132-.175.2l-.16.176-.151.147-.04.044-.016,0-.017.016a.01.01,0,0,0,0,0l-.008.012-.008.008a.139.139,0,0,1-.028.023l-.031.024-.009.008-.008.008a.565.565,0,0,1-.1.088l-.007,0-.009,0-.008.009-.009.008a2.432,2.432,0,0,1-.287.231,2,2,0,0,1-.207.147l-.028.02-.008.009-.024.016-.016.008-.008.008-.04.024-.056.04c-.075.044-.171.1-.256.159l-.191.1-.136.072-.268.136a6,6,0,0,1-.734.283l-.151.048-.111.032-.224.071h-.009a.042.042,0,0,0-.02,0,.124.124,0,0,1-.04,0l-.02,0-.017.008-.044.012-.052.008-.01,0a.018.018,0,0,0-.01,0,.041.041,0,0,0-.019.006l-.006,0-.008,0-.008,0c-.007.008-.008.008-.016.008h-.007a.031.031,0,0,1-.014,0,.007.007,0,0,1-.008,0l-.02.008h-.017l-.287.052-.247.056c-.691.1-1.12.132-1.417.148s-.515.041-.767.048h-.052a.118.118,0,0,0-.056.008h-.12l-.128.008c-.885.027-1.665.04-2.53.04-.341,0-.662,0-1.01-.008h-.446c-2.379-.033-4.646-.113-6.646-.185h-.032l-.521-.019-.144,0-.22-.008c-4.834-.2-9.707-.451-14.9-.771l.327-10.716c5.352-.022,10.149-.086,14.667-.2h.052l.066,0c2.2-.062,4.685-.134,7.118-.266l.415-.02.184-.009c.119-.016.241-.023.36-.03h.082l.208-.017.351-.023.1-.008c.23-.016.42-.026.578-.032l.056-.008c0-.008.009-.008.009-.008a.018.018,0,0,0,.008-.013s0,0,0,0a.021.021,0,0,1,0-.007l.83-1.584,1.656-3.241,3.293-6.565c1.2-2.406,2.352-4.834,3.575-7.4l.1-.187.2-.431.224-.471.115-.236.088-.184c.685-1.435,1.356-2.84,2.06-4.266a2.425,2.425,0,0,1,.212-.535c.256-.464,1.723-1.218,4.362-2.243l2.762,12.808-.009.012-.008.016a19.919,19.919,0,0,0-1.456,3.081c.012.155,1.979,3.027,5.539,8.086a.143.143,0,0,0,.024.032l0,.012a.328.328,0,0,1,.031.044l0,0,.009.012,0-.017.012.018,2.071-1.749.008-.092c3.427-2.957,7.119-6.173,7.2-6.334a17.557,17.557,0,0,0-.084-3.018l0-.056v-.008l8.166-12.209-2.431-1.44c.273.1.478.177.662.255,2.479.959,4.448,1.753,6.022,2.427.236.039.483.083.782.136l.064.008.056.008.04.009.023.008a.551.551,0,0,0,.12.016c2.463.436,4.646,3.636,6.485,9.511a113.289,113.289,0,0,1,3.779,20.146c1.705,15.016,1.912,31.737,1.126,38.618l-.176-.032c-.127.756-.411,1.749-.423,1.78l-7.935-1.537a60.17,60.17,0,0,1-6.94,2.351A50.973,50.973,0,0,1,15873.186,12270.293Zm16.923-33.264h0a16.07,16.07,0,0,0-.092,2.632l2.386,17.748A141.464,141.464,0,0,0,15890.108,12237.029Zm-12.225,13.7a.38.38,0,0,0-.384.331l-.151,1.073a.476.476,0,0,0,.359.507l8.117,1.705a.211.211,0,0,0,.088.012.384.384,0,0,0,.392-.327l.151-1.074a.465.465,0,0,0-.359-.5l-8.117-1.712h-.008A.314.314,0,0,0,15877.884,12250.733Zm-16.607-55.4v0c1.922-.74,3.738-1.355,4.431-1.585l.02-.008h.021Z" transform="translate(-15819.107 -12193.237)" fill="#635088" stroke="rgba(0,0,0,0)" stroke-miterlimit="10" stroke-width="1"/></svg>