<svg xmlns="http://www.w3.org/2000/svg" width="179.728" height="17" viewBox="0 0 179.728 17"><g transform="translate(144.028)"><path d="M305,.578A.406.406,0,0,1,305.378.2h1.936a3.268,3.268,0,0,1,3.494,3.258h0a3.3,3.3,0,0,1-3.494,3.306h-1.936A.406.406,0,0,1,305,6.386ZM307.314,6.1a2.569,2.569,0,0,0,2.739-2.6h0a2.569,2.569,0,0,0-2.739-2.6h-1.558V6.1Z" transform="translate(-305 -0.106)" fill="#fff"/><path d="M320.6,6.433V.578A.406.406,0,0,1,320.978.2h4.108a.323.323,0,0,1,.331.331.323.323,0,0,1-.331.331h-3.731V3.128h3.306a.331.331,0,1,1,0,.661h-3.306V6.1h3.778a.331.331,0,1,1,0,.661h-4.156A.335.335,0,0,1,320.6,6.433Z" transform="translate(-313.233 -0.106)" fill="#fff"/><path d="M333.342,5.956a.286.286,0,0,1-.142-.283.372.372,0,0,1,.378-.378.361.361,0,0,1,.236.094,3.01,3.01,0,0,0,2.078.8c.9,0,1.464-.472,1.464-1.133h0c0-.614-.331-.944-1.7-1.275-1.511-.331-2.219-.8-2.219-1.889h0A1.935,1.935,0,0,1,335.608.1a3.313,3.313,0,0,1,2.078.661.286.286,0,0,1,.142.283.372.372,0,0,1-.378.378.426.426,0,0,1-.236-.047,2.635,2.635,0,0,0-1.7-.567c-.85,0-1.417.472-1.417,1.086h0c0,.614.331.992,1.794,1.275,1.464.331,2.125.85,2.125,1.842h0c0,1.133-.944,1.842-2.267,1.842A3.554,3.554,0,0,1,333.342,5.956Z" transform="translate(-319.883 -0.053)" fill="#fff"/><path d="M346.8.478a.378.378,0,1,1,.756,0v5.95a.378.378,0,1,1-.756,0Z" transform="translate(-327.061 -0.053)" fill="#fff"/><path d="M351.9,3.447h0A3.317,3.317,0,0,1,355.206,0a3.705,3.705,0,0,1,2.267.708.337.337,0,0,1,.142.283.406.406,0,0,1-.378.378c-.094,0-.142-.047-.236-.094a2.7,2.7,0,0,0-1.842-.614,2.564,2.564,0,0,0-2.5,2.692h0a2.542,2.542,0,0,0,2.6,2.739,2.94,2.94,0,0,0,1.889-.661V3.872h-1.747a.331.331,0,1,1,0-.661h2.125a.406.406,0,0,1,.378.378V5.572a.656.656,0,0,1-.236.472,4.191,4.191,0,0,1-2.408.8A3.287,3.287,0,0,1,351.9,3.447Z" transform="translate(-329.753)" fill="#fff"/><path d="M368.1.525a.406.406,0,0,1,.378-.378h.094a.42.42,0,0,1,.378.236l4.014,5.1V.478A.372.372,0,0,1,373.342.1a.406.406,0,0,1,.378.378v5.95a.323.323,0,0,1-.331.331h-.047a.481.481,0,0,1-.378-.236l-4.108-5.242v5.1a.372.372,0,0,1-.378.378.406.406,0,0,1-.378-.378V.525Z" transform="translate(-338.303 -0.053)" fill="#fff"/></g><g transform="translate(143.697 10.153)"><path d="M304.442,27.456a.286.286,0,0,1-.142-.283.372.372,0,0,1,.378-.378.361.361,0,0,1,.236.094,3.01,3.01,0,0,0,2.078.8c.9,0,1.464-.472,1.464-1.133h0c0-.614-.331-.944-1.7-1.275-1.511-.331-2.219-.8-2.219-1.889h0a1.935,1.935,0,0,1,2.172-1.794,3.313,3.313,0,0,1,2.078.661.286.286,0,0,1,.142.283.372.372,0,0,1-.378.378.426.426,0,0,1-.236-.047,2.635,2.635,0,0,0-1.7-.567c-.85,0-1.417.472-1.417,1.086h0c0,.614.331.992,1.794,1.275,1.464.331,2.125.85,2.125,1.842h0c0,1.133-.944,1.842-2.267,1.842A3.729,3.729,0,0,1,304.442,27.456Z" transform="translate(-304.3 -21.553)" fill="#fff"/><path d="M318.819,22.461h-1.889a.331.331,0,1,1,0-.661h4.581a.331.331,0,1,1,0,.661h-1.889v5.572a.378.378,0,1,1-.756,0V22.461Z" transform="translate(-310.792 -21.658)" fill="#fff"/><path d="M330.3,25.572V22.078a.378.378,0,1,1,.755,0v3.447a1.944,1.944,0,0,0,2.031,2.219,1.9,1.9,0,0,0,1.983-2.172V22.078a.378.378,0,1,1,.756,0v3.447c0,1.936-1.086,2.928-2.739,2.928A2.63,2.63,0,0,1,330.3,25.572Z" transform="translate(-318.022 -21.606)" fill="#fff"/><path d="M345.6,22.178a.406.406,0,0,1,.378-.378h1.936a3.268,3.268,0,0,1,3.494,3.258h0a3.3,3.3,0,0,1-3.494,3.306h-1.936a.406.406,0,0,1-.378-.378Zm2.314,5.525a2.569,2.569,0,0,0,2.739-2.6h0a2.569,2.569,0,0,0-2.739-2.6h-1.558V27.7Z" transform="translate(-326.097 -21.658)" fill="#fff"/><path d="M361.3,22.078a.378.378,0,1,1,.756,0v5.9a.378.378,0,1,1-.756,0Z" transform="translate(-334.383 -21.606)" fill="#fff"/><path d="M366.4,24.947h0a3.356,3.356,0,0,1,3.353-3.447,3.316,3.316,0,0,1,3.353,3.4h0a3.345,3.345,0,0,1-3.353,3.4A3.305,3.305,0,0,1,366.4,24.947Zm5.95,0h0a2.6,2.6,0,1,0-5.194-.047h0a2.6,2.6,0,1,0,5.194.047Z" transform="translate(-337.075 -21.5)" fill="#fff"/></g><g transform="translate(0 2.125)"><g transform="translate(65.403)"><path d="M224.756,4.5a.423.423,0,0,0-.425.425V14.936L216.208,4.689h0l-.047-.047-.047-.047c-.047,0-.047,0-.094-.047h-.283c-.047,0-.047,0-.094.047a.046.046,0,0,0-.047.047h0l-.047.047c0,.047-.047.047-.047.094V16.306a.425.425,0,1,0,.85,0V6.247l8.075,10.247a.423.423,0,0,0,.8-.189V4.972A.506.506,0,0,0,224.756,4.5Z" transform="translate(-179.139 -4.5)" fill="#fff"/><path d="M185.142,4.642h0c.047-.047.094-.094.142-.094s.094-.047.142-.047h0a.51.51,0,0,1,.331.142l10.861,11.286a.441.441,0,0,1,0,.614.429.429,0,0,1-.331.142h-4.439a.425.425,0,0,1,0-.85h3.4l-9.4-9.775v10.2a.425.425,0,1,1-.85,0V4.972A.429.429,0,0,1,185.142,4.642Z" transform="translate(-163.042 -4.5)" fill="#fff"/><path d="M142.844,5h-3.872a.423.423,0,0,0-.425.425h0V8.211a.425.425,0,1,0,.85,0V5.8h3.353c2.125,0,3.589.992,3.589,2.881,0,1.794-1.511,2.975-3.683,2.975h-3.731a.423.423,0,0,0-.425.425h0v4.439a.425.425,0,0,0,.85,0V12.461h3.211c2.456,0,4.628-1.275,4.628-3.778C147.236,6.322,145.442,5,142.844,5Z" transform="translate(-138.5 -4.764)" fill="#fff"/><path d="M249.822,16.192H242.55V11.328H249.4a.378.378,0,0,0,0-.756H242.55V5.756h7.272a.378.378,0,0,0,0-.756h-7.744a.372.372,0,0,0-.378.378h0V10.9h0v5.619h0a.372.372,0,0,0,.378.378h7.744a.372.372,0,0,0,.378-.378C250.247,16.333,250.058,16.192,249.822,16.192Z" transform="translate(-192.967 -4.764)" fill="#fff"/><path d="M170.067,16.2H163.55V5.625a.425.425,0,1,0-.85,0v11h0a.423.423,0,0,0,.425.425h6.989a.423.423,0,0,0,.425-.425A.466.466,0,0,0,170.067,16.2Z" transform="translate(-151.272 -4.869)" fill="#fff"/></g><g transform="translate(0 0)"><path d="M27.336,4.642h0c-.047-.047-.094-.094-.142-.094S27.1,4.5,27.052,4.5h0a.51.51,0,0,0-.331.142L15.861,15.975a.441.441,0,0,0,0,.614.429.429,0,0,0,.331.142H20.63a.425.425,0,1,0,0-.85h-3.4l9.35-9.822v10.2a.425.425,0,0,0,.85,0V4.972A.292.292,0,0,0,27.336,4.642Z" transform="translate(-8.305 -4.5)" fill="#fff"/><path d="M4.3,5H.425A.423.423,0,0,0,0,5.425H0V8.211a.425.425,0,1,0,.85,0V5.8H4.2c2.125,0,3.589.992,3.589,2.881,0,1.794-1.511,2.975-3.683,2.975H.425A.423.423,0,0,0,0,12.083H0v4.439a.425.425,0,1,0,.85,0V12.461H4.108c2.456,0,4.628-1.275,4.628-3.778C8.736,6.322,6.942,5,4.3,5Z" transform="translate(0 -4.764)" fill="#fff"/><path d="M53.844,5H49.972a.423.423,0,0,0-.425.425h0V8.211a.425.425,0,0,0,.85,0V5.8H53.75c2.125,0,3.589.992,3.589,2.881,0,1.794-1.511,2.975-3.683,2.975H49.925a.423.423,0,0,0-.425.425h0v4.439a.425.425,0,1,0,.85,0V12.461h3.211c2.456,0,4.628-1.275,4.628-3.778C58.236,6.322,56.442,5,53.844,5Z" transform="translate(-26.125 -4.764)" fill="#fff"/><path d="M85.022,16.192H77.75V11.328H84.6a.378.378,0,0,0,0-.756H77.75V5.756h7.272a.378.378,0,1,0,0-.756H77.278a.372.372,0,0,0-.378.378h0V10.9h0v5.619h0a.372.372,0,0,0,.378.378h7.744a.372.372,0,0,0,.378-.378A.365.365,0,0,0,85.022,16.192Z" transform="translate(-40.586 -4.764)" fill="#fff"/><path d="M109.428,11.983a3.534,3.534,0,0,0,2.408-3.4c0-2.314-1.794-3.683-4.392-3.683h-3.919a.423.423,0,0,0-.425.425h0V8.111a.425.425,0,1,0,.85,0V5.75H107.3c2.125,0,3.589.992,3.589,2.881,0,1.794-1.511,2.975-3.683,2.975h-3.683a.423.423,0,0,0-.425.425h0v4.439a.425.425,0,1,0,.85,0V12.408h3.211a6.411,6.411,0,0,0,1.369-.142h0l2.125,4.392a.422.422,0,0,0,.756-.378Z" transform="translate(-54.414 -4.711)" fill="#fff"/></g></g><g transform="translate(132.883 2.314)"><path d="M281.872,17.083a.473.473,0,0,1-.472-.472V5.372a.472.472,0,1,1,.944,0V16.658A.466.466,0,0,1,281.872,17.083Z" transform="translate(-281.4 -4.9)" fill="#fff"/></g></svg>