<svg xmlns="http://www.w3.org/2000/svg" width="15" height="13.932" viewBox="0 0 15 13.932"><path d="M7.626-7.459C7.26-7.645,5.443-8.537,5.1-8.657s-.586-.186-.832.186S3.32-7.273,3.1-7.02s-.433.279-.8.093a10.047,10.047,0,0,1-5.024-4.392c-.379-.652.379-.606,1.085-2.016a.684.684,0,0,0-.033-.645c-.093-.186-.832-2-1.138-2.742-.3-.719-.606-.619-.832-.632s-.459-.013-.705-.013a1.367,1.367,0,0,0-.985.459,4.148,4.148,0,0,0-1.291,3.081,7.232,7.232,0,0,0,1.5,3.82A16.5,16.5,0,0,0,1.191-4.431c2.342,1.011,3.261,1.1,4.432.925A3.781,3.781,0,0,0,8.112-5.263,3.087,3.087,0,0,0,8.324-7.02C8.238-7.186,7.992-7.279,7.626-7.459Z" transform="translate(6.621 17.367)" fill="#003865"/></svg>