<svg xmlns="http://www.w3.org/2000/svg" width="20" height="20" viewBox="0 0 20 20"><g transform="translate(0)"><path d="M17.444,0H2.556A2.559,2.559,0,0,0,0,2.556V17.444A2.559,2.559,0,0,0,2.556,20H17.444A2.559,2.559,0,0,0,20,17.444V2.556A2.559,2.559,0,0,0,17.444,0Zm1.378,17.444a1.379,1.379,0,0,1-1.378,1.378H2.556a1.379,1.379,0,0,1-1.378-1.378V15.3L5.055,12a.381.381,0,0,1,.491,0l2.429,2.017a.589.589,0,0,0,.793-.037l5.771-5.779a.381.381,0,0,1,.566.029L18.822,12.8v4.643Zm0-6.512-2.8-3.452A1.559,1.559,0,0,0,13.7,7.362l-5.391,5.4L6.3,11.088a1.557,1.557,0,0,0-2.007.012L1.178,13.749V2.556A1.379,1.379,0,0,1,2.556,1.178H17.444a1.379,1.379,0,0,1,1.378,1.378Z" transform="translate(0)" fill="#fff"/></g><g transform="translate(3.456 2.461)"><path d="M91.3,63a2.84,2.84,0,1,0,2.84,2.84A2.844,2.844,0,0,0,91.3,63Zm0,4.5a1.662,1.662,0,1,1,1.662-1.662A1.664,1.664,0,0,1,91.3,67.5Z" transform="translate(-88.461 -62.995)" fill="#fff"/></g></svg>