<svg xmlns="http://www.w3.org/2000/svg" width="372" height="218.988" viewBox="0 0 372 218.988"><g transform="translate(-392.834)" opacity="0.15"><g transform="translate(392.834 9.152)"><path d="M401.553,4.343a4.905,4.905,0,1,1-6.9-.734A4.913,4.913,0,0,1,401.553,4.343Z" transform="translate(-392.834 -2.519)" fill="#fff"/><path d="M410.44,15.353a4.9,4.9,0,1,1-6.9-.734A4.916,4.916,0,0,1,410.44,15.353Z" transform="translate(-369.431 26.475)" fill="#fff"/><path d="M419.327,26.363a4.9,4.9,0,1,1-6.9-.734A4.909,4.909,0,0,1,419.327,26.363Z" transform="translate(-346.028 55.469)" fill="#fff"/><path d="M428.212,37.373a4.9,4.9,0,1,1-6.9-.734A4.909,4.909,0,0,1,428.212,37.373Z" transform="translate(-322.623 84.463)" fill="#fff"/><path d="M437.1,48.383a4.905,4.905,0,1,1-6.9-.734A4.913,4.913,0,0,1,437.1,48.383Z" transform="translate(-299.219 113.456)" fill="#fff"/><path d="M445.989,59.393a4.905,4.905,0,1,1-6.9-.734A4.913,4.913,0,0,1,445.989,59.393Z" transform="translate(-275.816 142.45)" fill="#fff"/></g><g transform="translate(465.273 16.705)"><path d="M421.487,6.423a4.9,4.9,0,1,1-6.9-.738A4.905,4.905,0,0,1,421.487,6.423Z" transform="translate(-412.771 -4.597)" fill="#fff"/><path d="M430.377,17.433a4.905,4.905,0,1,1-6.9-.738A4.909,4.909,0,0,1,430.377,17.433Z" transform="translate(-389.368 24.396)" fill="#fff"/><path d="M439.264,28.443a4.9,4.9,0,1,1-6.9-.738A4.912,4.912,0,0,1,439.264,28.443Z" transform="translate(-365.964 53.39)" fill="#fff"/><path d="M448.151,39.453a4.9,4.9,0,1,1-6.9-.738A4.905,4.905,0,0,1,448.151,39.453Z" transform="translate(-342.561 82.384)" fill="#fff"/><path d="M457.037,50.463a4.9,4.9,0,1,1-6.9-.738A4.906,4.906,0,0,1,457.037,50.463Z" transform="translate(-319.157 111.378)" fill="#fff"/></g><g transform="translate(537.71 24.257)"><path d="M441.426,8.5a4.9,4.9,0,1,1-6.9-.734A4.91,4.91,0,0,1,441.426,8.5Z" transform="translate(-432.708 -6.676)" fill="#fff"/><path d="M450.311,19.51a4.9,4.9,0,1,1-6.9-.734A4.909,4.909,0,0,1,450.311,19.51Z" transform="translate(-409.303 22.318)" fill="#fff"/><path d="M459.2,30.52a4.905,4.905,0,1,1-6.9-.734A4.913,4.913,0,0,1,459.2,30.52Z" transform="translate(-385.899 51.312)" fill="#fff"/><path d="M468.088,41.53a4.9,4.9,0,1,1-6.9-.734A4.916,4.916,0,0,1,468.088,41.53Z" transform="translate(-362.496 80.306)" fill="#fff"/></g><g transform="translate(579.194)"><path d="M450.774.53a4.044,4.044,0,0,0,.44-.53h-7.089A4.869,4.869,0,0,0,450.774.53Z" transform="translate(-444.125)" fill="#fff"/><path d="M461.363,10.58a4.9,4.9,0,1,1-6.9-.738A4.912,4.912,0,0,1,461.363,10.58Z" transform="translate(-421.69 23.054)" fill="#fff"/><path d="M470.25,21.59a4.9,4.9,0,1,1-6.9-.738A4.906,4.906,0,0,1,470.25,21.59Z" transform="translate(-398.286 52.048)" fill="#fff"/><path d="M479.135,32.6a4.9,4.9,0,1,1-6.9-.734A4.91,4.91,0,0,1,479.135,32.6Z" transform="translate(-374.881 81.041)" fill="#fff"/></g><g transform="translate(650.298)"><path d="M464.783,7.347a4.905,4.905,0,1,0,7.63-6.166A4.936,4.936,0,0,0,470.989,0h-4.622a5.01,5.01,0,0,0-.854.443A4.916,4.916,0,0,0,464.783,7.347Z" transform="translate(-463.694)" fill="#fff"/><path d="M481.3,12.658a4.905,4.905,0,1,1-6.9-.738A4.909,4.909,0,0,1,481.3,12.658Z" transform="translate(-440.291 28.527)" fill="#fff"/><path d="M490.187,23.668a4.9,4.9,0,1,1-6.9-.738A4.912,4.912,0,0,1,490.187,23.668Z" transform="translate(-416.887 57.521)" fill="#fff"/></g><g transform="translate(722.735 6.907)"><path d="M492.348,3.725a4.9,4.9,0,1,1-6.9-.734A4.909,4.909,0,0,1,492.348,3.725Z" transform="translate(-483.631 -1.901)" fill="#fff"/><path d="M501.234,14.735a4.9,4.9,0,1,1-6.9-.734A4.91,4.91,0,0,1,501.234,14.735Z" transform="translate(-460.227 27.093)" fill="#fff"/></g></g></svg>