<svg xmlns="http://www.w3.org/2000/svg" width="177.706" height="296.172" viewBox="0 0 177.706 296.172"><g transform="translate(-478.681 -33.39)" opacity="0.15"><g transform="translate(478.681 33.39)"><path d="M487.776,67.511a148.789,148.789,0,0,1,24.995-25.019Z" transform="translate(-456.205 -10.897)" fill="#fff"/><path d="M487.776,67.511l24.995-25.019A148.789,148.789,0,0,0,487.776,67.511Z" transform="translate(-456.205 -10.897)" fill="#fff"/><path d="M480.555,69.743c.927-3,1.983-5.942,3.094-8.857Z" transform="translate(-473.976 34.37)" fill="#fff"/><path d="M506.152,38.359C509.063,37.248,512,36.2,515,35.265Z" transform="translate(-410.982 -28.682)" fill="#fff"/><path d="M569.145,38.359l-85.5,85.579c-1.111,2.914-2.167,5.859-3.094,8.857l97.436-97.53C575,36.2,572.056,37.248,569.145,38.359Z" transform="translate(-473.976 -28.682)" fill="#fff"/><path d="M514.968,34.43c2.18-.336,4.382-.609,6.593-.841Z" transform="translate(-389.287 -32.807)" fill="#fff"/><path d="M478.88,76.313c.235-2.215.509-4.42.838-6.6Z" transform="translate(-478.098 56.085)" fill="#fff"/><path d="M603.779,34.43,479.718,158.6c-.329,2.184-.6,4.389-.838,6.6L610.372,33.589C608.161,33.821,605.959,34.094,603.779,34.43Z" transform="translate(-478.098 -32.807)" fill="#fff"/><path d="M478.8,82.3c-.093-1.865-.118-3.741-.142-5.621Z" transform="translate(-478.654 73.226)" fill="#fff"/><path d="M521.926,33.363c1.876.021,3.755.048,5.613.138Z" transform="translate(-372.163 -33.363)" fill="#fff"/><path d="M628.417,33.363l-149.763,149.9c.024,1.879.049,3.755.142,5.621L634.03,33.5C632.172,33.411,630.292,33.384,628.417,33.363Z" transform="translate(-478.654 -33.363)" fill="#fff"/><path d="M527.932,33.847c1.64.253,3.26.564,4.883.872Z" transform="translate(-357.383 -32.172)" fill="#fff"/><path d="M480.01,87.576c-.3-1.623-.62-3.243-.872-4.89Z" transform="translate(-477.463 88.019)" fill="#fff"/><path d="M648.012,33.847,479.138,202.877c.253,1.647.568,3.267.872,4.89L652.9,34.719C651.272,34.411,649.652,34.1,648.012,33.847Z" transform="translate(-477.463 -32.172)" fill="#fff"/><path d="M481.65,92.43c-.471-1.467-.907-2.945-1.333-4.427Z" transform="translate(-474.561 101.104)" fill="#fff"/><path d="M481.65,214.815,652.268,44.034V38.272L480.317,210.389C480.743,211.87,481.179,213.348,481.65,214.815Z" transform="translate(-474.561 -21.282)" fill="#fff"/><path d="M483.8,96.776c-.606-1.322-1.225-2.63-1.793-3.966Z" transform="translate(-470.41 112.934)" fill="#fff"/><path d="M483.8,215.006,648.116,50.53V44.768L482,211.039C482.572,212.375,483.191,213.684,483.8,215.006Z" transform="translate(-470.41 -5.296)" fill="#fff"/><path d="M486.254,100.812c-.727-1.2-1.409-2.433-2.1-3.658Z" transform="translate(-465.121 123.624)" fill="#fff"/><path d="M486.254,213.743,642.827,57.021V51.265L484.153,210.085C484.845,211.31,485.527,212.542,486.254,213.743Z" transform="translate(-465.121 10.693)" fill="#fff"/><path d="M489.125,104.435c-.831-1.094-1.637-2.2-2.44-3.319Z" transform="translate(-458.89 133.374)" fill="#fff"/><path d="M489.125,211.132,636.6,63.522V57.76L486.685,207.813C487.488,208.928,488.294,210.039,489.125,211.132Z" transform="translate(-458.89 26.677)" fill="#fff"/><path d="M492.352,107.7c-.935-.986-1.869-1.973-2.776-2.98Z" transform="translate(-451.775 142.241)" fill="#fff"/><path d="M492.352,207.277,629.482,70.018V64.256L489.576,204.3C490.483,205.3,491.417,206.29,492.352,207.277Z" transform="translate(-451.775 42.663)" fill="#fff"/><path d="M495.9,110.64c-1.038-.879-2.073-1.758-3.084-2.672Z" transform="translate(-443.794 150.237)" fill="#fff"/><path d="M495.9,202.227,621.5,76.511V70.752l-128.682,128.8C493.829,200.469,494.864,201.348,495.9,202.227Z" transform="translate(-443.794 58.65)" fill="#fff"/><path d="M499.777,113.259c-1.139-.775-2.246-1.589-3.361-2.395Z" transform="translate(-434.942 157.364)" fill="#fff"/><path d="M499.777,195.987,612.649,83.007V77.248L496.416,193.592C497.53,194.4,498.638,195.211,499.777,195.987Z" transform="translate(-434.942 74.636)" fill="#fff"/><path d="M504.083,115.444c-1.249-.661-2.485-1.35-3.714-2.042Z" transform="translate(-425.212 163.61)" fill="#fff"/><path d="M504.083,188.431,602.918,89.5V83.744L500.37,186.389C501.6,187.081,502.834,187.77,504.083,188.431Z" transform="translate(-425.212 90.623)" fill="#fff"/><path d="M508.827,117.189c-1.377-.536-2.762-1.056-4.118-1.634Z" transform="translate(-414.534 168.908)" fill="#fff"/><path d="M508.827,179.488,592.24,96V90.24l-87.531,87.614C506.066,178.432,507.45,178.951,508.827,179.488Z" transform="translate(-414.534 106.609)" fill="#fff"/><path d="M514,118.509c-1.512-.388-3-.831-4.492-1.26Z" transform="translate(-402.726 173.077)" fill="#fff"/><path d="M514,168.99l66.433-66.5V96.736l-70.925,70.995C511,168.16,512.487,168.6,514,168.99Z" transform="translate(-402.726 122.595)" fill="#fff"/><path d="M519.908,119.093c-1.706-.2-3.409-.4-5.094-.661Z" transform="translate(-389.666 175.988)" fill="#fff"/><path d="M519.908,156.5l47.464-47.509v-5.762l-52.558,52.61C516.5,156.1,518.2,156.3,519.908,156.5Z" transform="translate(-389.666 138.579)" fill="#fff"/><path d="M526.614,118.91c-1.263.031-2.516.1-3.786.1-.675,0-1.343-.042-2.014-.052Z" transform="translate(-374.902 177.165)" fill="#fff"/><path d="M520.813,141.551c.672.01,1.34.052,2.014.052,1.27,0,2.523-.066,3.786-.1l26-26.02v-5.759Z" transform="translate(-374.902 154.568)" fill="#fff"/><path d="M534.739,118.11c-2.308.46-4.631.872-6.977,1.218Z" transform="translate(-357.801 175.196)" fill="#fff"/><path d="M527.763,123.972c2.343-.346,4.665-.758,6.974-1.218l.768-.768v-5.763Z" transform="translate(-357.799 170.552)" fill="#fff"/></g></g></svg>