<?xml version="1.0" standalone="no"?>
<!DOCTYPE svg PUBLIC "-//W3C//DTD SVG 20010904//EN"
 "http://www.w3.org/TR/2001/REC-SVG-20010904/DTD/svg10.dtd">
<svg version="1.0" xmlns="http://www.w3.org/2000/svg"
 width="700.000000pt" height="700.000000pt" viewBox="0 0 700.000000 700.000000"
 preserveAspectRatio="xMidYMid meet">
<metadata>
Created by potrace 1.14, written by Peter Selinger 2001-2017
</metadata>
<g transform="translate(0.000000,700.000000) scale(0.100000,-0.100000)"
fill="#000000" stroke="none">
<path d="M3438 6989 c-16 -9 -314 -115 -348 -124 -8 -2 -62 -20 -120 -40 -156
-55 -585 -203 -665 -230 -38 -13 -169 -58 -290 -100 -121 -43 -238 -83 -260
-90 -22 -8 -105 -36 -185 -63 -80 -28 -257 -89 -394 -136 -137 -47 -251 -88
-254 -91 -7 -7 -6 -1904 1 -1911 3 -3 576 137 1273 311 902 225 1276 315 1298
311 45 -9 56 -11 221 -51 83 -20 159 -38 170 -40 11 -3 70 -16 130 -31 61 -14
117 -28 125 -29 8 -2 121 -29 250 -59 284 -67 261 -62 340 -80 36 -8 144 -34
240 -56 96 -23 183 -44 193 -46 10 -2 26 -5 35 -8 9 -3 28 -7 42 -10 25 -5
470 -109 708 -166 68 -17 126 -30 129 -30 5 0 -1 197 -22 775 -3 83 -7 220
-10 305 -3 85 -7 207 -10 270 -2 63 -7 201 -11 305 -3 105 -7 201 -8 215 -1
20 -11 28 -51 43 -55 21 -476 167 -565 197 -30 9 -179 60 -330 113 -151 52
-311 107 -355 122 -44 15 -89 30 -100 35 -11 5 -40 15 -65 23 -25 8 -164 56
-310 107 -146 50 -290 100 -320 110 -30 10 -147 50 -259 89 -113 39 -205 71
-205 71 -1 0 -9 -5 -18 -11z"/>
<path d="M3453 4799 c2 -10 -91 -39 -198 -63 -11 -3 -166 -41 -345 -86 -179
-45 -332 -84 -340 -85 -8 -2 -62 -16 -120 -30 -58 -15 -113 -28 -123 -30 -9
-2 -20 -6 -25 -8 -4 -3 -23 -8 -42 -11 -19 -3 -77 -17 -127 -31 -51 -13 -103
-27 -115 -29 -13 -2 -97 -23 -188 -46 -91 -23 -172 -43 -180 -45 -8 -2 -89
-22 -179 -45 -90 -23 -171 -43 -180 -45 -9 -2 -115 -28 -236 -59 -201 -50
-372 -90 -435 -102 -14 -3 -106 -23 -205 -46 -99 -22 -191 -42 -205 -44 -72
-13 -85 -20 -86 -50 -2 -36 -13 -416 -19 -674 -3 -107 -7 -287 -10 -400 -3
-113 -7 -304 -10 -425 -3 -121 -7 -283 -10 -360 -2 -77 -7 -277 -10 -445 -4
-168 -8 -307 -10 -309 -7 -6 15 -41 26 -41 9 0 183 -64 244 -90 11 -5 54 -21
95 -35 41 -15 89 -33 105 -40 37 -16 68 -28 75 -29 7 -2 70 -26 95 -37 11 -4
67 -26 125 -48 244 -91 536 -202 555 -211 11 -5 63 -25 115 -44 52 -19 183
-68 290 -109 107 -42 310 -119 450 -172 600 -228 886 -337 1050 -400 96 -37
180 -67 185 -68 6 -1 33 9 60 22 92 43 156 71 160 71 2 0 35 14 72 31 38 17
192 85 343 151 151 66 303 133 338 149 35 16 65 29 67 29 6 0 131 56 175 78
l34 17 0 1158 0 1157 75 1 c42 0 153 2 246 4 94 1 387 6 653 10 l483 7 -5
-239 c-3 -131 -8 -328 -11 -438 -6 -234 -12 -448 -21 -859 -6 -289 -5 -299 12
-292 18 7 317 105 554 181 58 18 136 44 175 57 l70 24 0 1347 c0 741 -2 1347
-5 1347 -3 1 -23 5 -45 9 -122 26 -224 47 -435 92 -129 28 -244 52 -255 55
-60 12 -73 14 -105 19 -46 8 -189 41 -480 110 -63 15 -140 33 -170 40 -30 7
-136 32 -235 55 -99 24 -214 51 -255 60 -41 10 -151 36 -245 58 -93 22 -298
70 -455 107 -157 36 -397 93 -534 126 -267 63 -277 65 -273 48z"/>
</g>
</svg>
