<svg xmlns="http://www.w3.org/2000/svg" width="30" height="22.358" viewBox="0 0 30 22.358"><g transform="translate(0 -65.206)"><path d="M150.832,82.862l-6.709-6.711a7.786,7.786,0,1,0-3.86,3.929l6.675,6.677a2.754,2.754,0,1,0,3.894-3.895Zm-18.1-5.593a6.035,6.035,0,1,1,8.533,0A6.043,6.043,0,0,1,132.73,77.269Zm16.859,8.245a1,1,0,0,1-1.408,0L141.8,79.135a7.85,7.85,0,0,0,1.4-1.42l6.388,6.39A1,1,0,0,1,149.589,85.514Z" transform="translate(-121.637)"/><path d="M.879,216.7H4.627a.879.879,0,1,0,0-1.758H.879a.879.879,0,1,0,0,1.758Z" transform="translate(0 -140.967)"/><path d="M.879,280.7H6.032a.879.879,0,1,0,0-1.758H.879a.879.879,0,1,0,0,1.758Z" transform="translate(0 -201.217)"/><path d="M.879,344.7h8.9a.879.879,0,0,0,0-1.758H.879a.879.879,0,0,0,0,1.758Z" transform="translate(0 -261.466)"/><path d="M20.087,406.947H.879a.879.879,0,0,0,0,1.758H20.087a.879.879,0,0,0,0-1.758Z" transform="translate(0 -321.716)"/></g></svg>