<svg xmlns="http://www.w3.org/2000/svg" width="15.384" height="18.934" viewBox="0 0 15.384 18.934"><g transform="translate(-48)"><path d="M61.9,2.367H58.651V1.775A1.777,1.777,0,0,0,56.876,0H54.509a1.777,1.777,0,0,0-1.775,1.775v.592H49.479A1.481,1.481,0,0,0,48,3.846V5.917a.592.592,0,0,0,.592.592h.323l.511,10.735A1.773,1.773,0,0,0,51.2,18.934h8.986a1.773,1.773,0,0,0,1.773-1.691l.511-10.735h.323a.592.592,0,0,0,.592-.592V3.846A1.481,1.481,0,0,0,61.9,2.367Zm-7.988-.592a.592.592,0,0,1,.592-.592h2.367a.592.592,0,0,1,.592.592v.592h-3.55ZM49.183,3.846a.3.3,0,0,1,.3-.3H61.9a.3.3,0,0,1,.3.3V5.325H49.183ZM60.776,17.187a.591.591,0,0,1-.591.564H51.2a.591.591,0,0,1-.591-.564L50.1,6.509H61.284Z"/><path d="M240.592,216.876a.592.592,0,0,0,.592-.592v-7.692a.592.592,0,0,0-1.183,0v7.692A.592.592,0,0,0,240.592,216.876Z" transform="translate(-184.9 -200.308)"/><path d="M320.592,216.876a.592.592,0,0,0,.592-.592v-7.692a.592.592,0,1,0-1.183,0v7.692A.592.592,0,0,0,320.592,216.876Z" transform="translate(-261.941 -200.308)"/><path d="M160.592,216.876a.592.592,0,0,0,.592-.592v-7.692a.592.592,0,0,0-1.183,0v7.692A.592.592,0,0,0,160.592,216.876Z" transform="translate(-107.858 -200.308)"/></g></svg>